<svg version="1.1" xmlns="http://www.w3.org/2000/svg" width="512px" height="512px" transform="rotate(0) scale(1, 1)">
<path d="M0 0 C1.828125 1.63671875 1.828125 1.63671875 3 3 C2.05125 3.5775 1.1025 4.155 0.125 4.75 C-3.42903589 7.23413737 -3.42903589 7.23413737 -5 11 C-4.79789491 13.76210287 -4.36848279 15.45697273 -2.8125 17.75 C-0.15393964 19.5834899 1.76745852 19.81162346 5 20 C7.65192879 18.89963877 9.95942398 17.77648728 12.4375 16.375 C20.10517966 12.29851208 27.63203477 9.35677014 36 7 C37.30904297 6.63068359 37.30904297 6.63068359 38.64453125 6.25390625 C60.76667687 1.20239268 85.75628089 6.05557531 105.20703125 17.203125 C120.71509167 27.18033869 132.94438023 39.68235951 141.25 56.25 C143.02648156 59.63329915 143.68904672 60.8056542 147 62.875 C150.81947232 63.03414468 152.8219958 62.06939808 156 60 C157.44569025 57.10861949 157.29987963 55.23120301 157 52 C155.9002225 49.23773502 154.47769959 46.70098982 153 44.125 C152.6184375 43.43664062 152.236875 42.74828125 151.84375 42.0390625 C150.90708892 40.35307255 149.95506752 38.67563186 149 37 C154.1715408 37.56927038 158.12149036 39.22788324 162.6875 41.5625 C163.39229492 41.92182617 164.09708984 42.28115234 164.82324219 42.65136719 C186.88370297 54.16948283 201.7753112 72.70262361 210 96 C211.26254276 100.30285711 212.23324243 104.58347641 213 109 C213.13019531 109.70125 213.26039063 110.4025 213.39453125 111.125 C215.49403843 124.56184598 213.81868168 138.42063509 209.8125 151.3125 C208.0469537 157.09124379 207.7800671 161.10365765 209 167 C213.47254497 168.49084832 217.52745503 168.49084832 222 167 C222.92407511 165.24407593 222.92407511 165.24407593 223.5 163.0625 C223.74363281 162.26070312 223.98726563 161.45890625 224.23828125 160.6328125 C224.48964844 159.76398438 224.74101562 158.89515625 225 158 C225.56242073 156.14580929 226.12491847 154.29164193 226.6875 152.4375 C227.12639904 150.95874785 227.56442084 149.47973345 228 148 C238.4660911 151.03364959 246.09128223 159.0908643 252 168 C259.6419236 181.94213542 261.97481639 198.86632049 257.5637207 214.31762695 C252.67071071 228.92798311 242.39523841 240.26022894 228.95703125 247.5625 C215.40042763 254.15276437 199.77186053 254.4118746 185.42578125 250.25390625 C178.41289622 247.77682755 172.74346254 243.65326826 167 239 C166.3503125 238.47792969 165.700625 237.95585937 165.03125 237.41796875 C158.18260329 231.26975182 153.19974216 221.87668304 150.1875 213.25 C149.27360354 209.75546325 149.27360354 209.75546325 146 208 C141.98328119 207.38876018 140.45463177 207.69046348 137.0625 210 C134.72400104 213.40145303 134.8369729 214.83220449 135.45922852 218.80664062 C136.38825599 222.5747593 138.1096817 225.84669937 139.9375 229.25 C140.29779297 229.94351563 140.65808594 230.63703125 141.02929688 231.3515625 C141.71497602 232.66988484 142.40526327 233.98582514 143.10107422 235.29882812 C144.09754911 237.18460678 145.05801893 239.08644683 146 241 C128.3025487 269.10094219 104.77918472 288.08731819 72.3125 296.0546875 C44.39562478 302.37801326 14.24523117 297.04334939 -10 282 C-13.74685666 279.43219152 -17.38061509 276.74291365 -21 274 C-24.51824511 271.65450326 -25.85775694 271.42008597 -30 272 C-33.08333333 273.91666667 -33.08333333 273.91666667 -35 277 C-35.72613356 280.44760429 -35.72613356 280.44760429 -34 284 C-31.64350086 286.26325637 -29.18710488 288.18778656 -26.54296875 290.10546875 C-24.12371317 291.90783274 -22.07588681 293.81765745 -20 296 C-33.16922958 312.00366641 -49.15178691 323.12663088 -70.1640625 325.52734375 C-90.33012066 327.36891996 -110.27614942 322.52116082 -126.1328125 309.4921875 C-141.24067503 296.49283663 -150.20326303 279.72435547 -153 260 C-154.33956484 240.38964911 -149.73317453 221.48512895 -136.93359375 206.1484375 C-122.04393283 189.60436981 -104.4024701 179.68745427 -82 178 C-77.83359721 177.88141688 -73.66950248 177.86313854 -69.50154305 177.86190033 C-65.98335875 177.85752129 -62.46534735 177.82642478 -58.94726562 177.80078125 C-54.49937312 177.77047603 -50.05176552 177.74768252 -45.60375977 177.74951172 C-41.98147781 177.75030396 -38.3600361 177.7267343 -34.73797417 177.6876297 C-33.37027208 177.67725933 -32.00247199 177.67557871 -30.63475227 177.68328094 C-21.2152932 177.73106161 -13.28372989 176.83839621 -6.09925842 170.25946045 C-0.48811258 164.29157648 1.28925354 157.61667983 2.1796875 149.6484375 C3.32458092 145.95206731 5.00556906 144.43300644 8 142 C10.71985178 141.52693305 12.82471834 141.34535333 15.53125 141.3984375 C16.24478638 141.39043121 16.95832275 141.38242493 17.69348145 141.37417603 C19.96290558 141.35118643 22.2305292 141.36053556 24.5 141.375 C26.76913281 141.37885661 29.03747395 141.37533908 31.30651855 141.35440063 C32.71442993 141.34237858 34.1225642 141.34487039 35.53039551 141.36410522 C39.85744099 141.33954895 42.5543214 140.64216951 46 138 C47.42041821 135.15916359 47.31452272 133.14522722 47 130 C44.61552382 126.84908505 42.81705703 125.69298507 39 125 C34.62808464 124.77105354 30.25229904 124.81483332 25.875 124.8125 C24.6890625 124.80025391 23.503125 124.78800781 22.28125 124.77539062 C11.27683772 124.7571714 1.41463673 125.2450193 -7 133 C-11.98963152 139.00465292 -13.54680198 144.72231572 -14.5078125 152.3515625 C-15.14273672 155.76805948 -16.43900661 157.67909974 -19 160 C-21.74563915 161.37281957 -23.958392 161.13988689 -27.03173828 161.15771484 C-28.30131378 161.16797699 -29.57088928 161.17823914 -30.87893677 161.18881226 C-31.56085209 161.19225018 -32.24276741 161.1956881 -32.94534683 161.19923019 C-35.09230889 161.21105869 -37.23907332 161.23053152 -39.38595581 161.25234985 C-45.49209759 161.3137605 -51.59822821 161.36755548 -57.70458984 161.40136719 C-61.44185201 161.42261432 -65.17876785 161.45816774 -68.9158287 161.50212479 C-70.32601645 161.51607473 -71.73626564 161.52495841 -73.14651871 161.52817917 C-100.70732467 161.59765536 -123.87813009 170.63350225 -144 189.5625 C-163.67912856 209.82860413 -169.28841325 234.53511028 -170 262 C-189.92585947 261.39435078 -206.84376996 255.26674979 -221.5625 241.625 C-222.366875 240.75875 -223.17125 239.8925 -224 239 C-224.59296875 238.42378906 -225.1859375 237.84757813 -225.796875 237.25390625 C-230.42534861 232.50882381 -233.59216128 227.49914291 -236.5625 221.625 C-236.92126221 220.92270264 -237.28002441 220.22040527 -237.6496582 219.49682617 C-240.12796393 214.38389178 -240.12796393 214.38389178 -239 211 C-237.93072266 211.66708984 -237.93072266 211.66708984 -236.83984375 212.34765625 C-230.83620399 216.19507832 -230.83620399 216.19507832 -224 217.125 C-221.01230088 216.18593254 -221.01230088 216.18593254 -219 214.375 C-217.54364946 210.91616747 -218.08694131 208.58701629 -219 205 C-221.17653685 202.3367841 -223.77670125 200.86344324 -226.75 199.1875 C-239.33119752 191.71912586 -247.84012271 180.41096414 -252.11328125 166.33203125 C-255.63533632 151.38383523 -253.58314563 135.18271123 -245.625 122.125 C-244.44188633 120.39910479 -243.23541464 118.68885254 -242 117 C-241.52691406 116.34257812 -241.05382812 115.68515625 -240.56640625 115.0078125 C-232.02319422 104.1170323 -218.7512326 98.45222345 -205.53125 95.7734375 C-202.80617773 94.94077653 -201.66415562 94.29027357 -200 92 C-199.51313061 88.17459766 -199.46025088 85.91522677 -201.4375 82.5625 C-208.00170186 78.55993789 -216.93093285 81.52012052 -224 83 C-221.96554323 70.38636805 -214.6657078 60.24461402 -204.80859375 52.21484375 C-192.17054796 43.37499419 -177.78621635 38.99686016 -162.4375 41.60546875 C-153.25365287 43.49007071 -153.25365287 43.49007071 -149.33984375 45.08203125 C-145.6709427 46.52141647 -142.92861675 46.31682393 -139 46 C-136.83333333 45.16666667 -136.83333333 45.16666667 -136 43 C-135.6077553 39.91107295 -135.38309533 37.95275729 -136 35 C-139.58489886 30.83689164 -144.99769942 29.04887257 -150 27 C-145.50005514 16.92549658 -135.73962762 11.89741001 -126.07421875 7.7421875 C-112.63255637 2.85741566 -97.08420283 3.21900581 -84 9 C-73.51634704 14.02694415 -66.10756206 20.90232056 -59 30 C-56.15916359 31.42041821 -54.14522722 31.31452272 -51 31 C-48.65402281 29.22466591 -47.3728227 27.74564539 -46.0625 25.125 C-45.90209685 19.67129299 -50.18868539 15.3773519 -53.6875 11.625 C-54.49574219 10.75101563 -55.30398437 9.87703125 -56.13671875 8.9765625 C-56.75160156 8.32429688 -57.36648437 7.67203125 -58 7 C-57.45703125 5.19921875 -57.45703125 5.19921875 -56 3 C-53.54217896 1.75800049 -51.25412955 0.75449464 -48.6875 -0.1875 C-48.02298828 -0.44724609 -47.35847656 -0.70699219 -46.67382812 -0.97460938 C-32.93639578 -6.23315173 -13.35512665 -6.69997126 0 0 Z " fill="#08524d" transform="translate(253,50)"/>
<path d="M0 0 C4.01152521 0.66037393 7.14279202 2.74726094 10.5625 4.8125 C27.65734777 14.80634264 44.58075676 16.14070398 64 14 C68.28094475 30.93266539 65.77944423 46.21399171 57.05957031 61.29052734 C44.79575005 81.07653414 23.79774225 91.32661503 2 97 C1.05511719 97.24621094 0.11023438 97.49242187 -0.86328125 97.74609375 C-25.7867387 102.97605226 -53.55279578 98.0740144 -75.16015625 84.87109375 C-83.59050446 79.31657271 -95.67462114 70.97613657 -99 61 C-98.33170166 60.87995605 -97.66340332 60.75991211 -96.97485352 60.63623047 C-59.82248605 53.86039336 -27.58142412 39.52701282 -5.125 7.625 C-3.39825786 5.09512198 -1.69905674 2.54858511 0 0 Z " fill="#08524d" transform="translate(410,304)"/>
<path d="M0 0 C0.52464844 0.15855469 1.04929688 0.31710937 1.58984375 0.48046875 C3.29466748 0.99390152 5.000538 1.50386251 6.70703125 2.01171875 C9.10471783 2.73130915 11.49638987 3.46387853 13.88671875 4.20703125 C15.29908313 4.63931687 16.71185643 5.07026838 18.125 5.5 C18.84727783 5.72236328 19.56955566 5.94472656 20.3137207 6.17382812 C24.72013646 7.48173266 28.98752986 8.32857513 33.54296875 8.90893555 C41.93156304 10.03128382 41.93156304 10.03128382 45.34375 13.125 C47.11519096 15.67338875 48.56877126 18.24858613 50 21 C51.88428453 23.75913092 53.92227665 26.38416125 56 29 C56.91458984 30.15435547 56.91458984 30.15435547 57.84765625 31.33203125 C71.36146394 47.3717843 89.4225822 55.70777079 109 62 C109.07423798 68.17469663 109.12864413 74.34913261 109.16479492 80.52416992 C109.17986772 82.62415086 109.20032941 84.7241004 109.22631836 86.82397461 C109.26276754 89.84496824 109.27974159 92.86554511 109.29296875 95.88671875 C109.30845261 96.82335861 109.32393646 97.75999847 109.33988953 98.72502136 C109.34115413 103.63925109 109.24232861 107.02631907 106 111 C103.5982138 112.80133965 101.73332492 113.0461553 98.75 113.5625 C89.64152047 112.19622807 83.65017983 102.26094481 78.01953125 95.55859375 C75.36149104 92.40222379 72.61082129 89.34582806 69.8125 86.3125 C66.62263156 82.83863691 63.57951106 79.30089975 60.625 75.625 C56.71054385 70.77357297 52.56862614 66.19407315 48.31445312 61.64306641 C45.5155824 58.64877904 42.78250469 55.62198007 40.125 52.5 C32.99647975 44.34085032 26.29845233 41.2952188 15.5625 40.125 C6.61597315 39.03114036 -0.05526867 36.29761867 -5.7109375 29.09375 C-8.57464534 24.44239424 -11.10665307 19.06869963 -10.9140625 13.52734375 C-9.66380352 10.07043109 -7.45139009 7.77746379 -4.9375 5.1875 C-4.46505859 4.68541016 -3.99261719 4.18332031 -3.50585938 3.66601562 C-2.34591548 2.43577211 -1.17411185 1.21672935 0 0 Z " fill="#08524d" transform="translate(248,354)"/>
</svg>