<svg version="1.1" xmlns="http://www.w3.org/2000/svg" width="512px" height="512px" transform="rotate(0) scale(1, 1)">
<path d="M0 0 C1.51758446 -0.00967334 1.51758446 -0.00967334 3.06582719 -0.0195421 C4.17029008 -0.01644489 5.27475298 -0.01334769 6.41268444 -0.01015663 C7.59145867 -0.01468774 8.7702329 -0.01921886 9.98472756 -0.02388728 C13.25308302 -0.03435786 16.52130011 -0.03585705 19.78966701 -0.03349853 C23.31602516 -0.03309031 26.8423505 -0.04412996 30.36869335 -0.05361366 C37.27624473 -0.07022372 44.18376196 -0.07572321 51.09133164 -0.07683842 C56.70661445 -0.07778891 62.32188601 -0.08189925 67.93716526 -0.08823967 C83.85965064 -0.10585225 99.78210906 -0.11507854 115.70460425 -0.11357872 C116.56291716 -0.11349881 117.42123008 -0.1134189 118.30555248 -0.11333656 C119.594595 -0.11321392 119.594595 -0.11321392 120.90967878 -0.1130888 C134.83613412 -0.11227594 148.76248129 -0.13141357 162.68890534 -0.1596133 C176.99054692 -0.18834414 191.29213575 -0.20215348 205.59380692 -0.20042574 C213.62226821 -0.1997619 221.65061611 -0.20525162 229.6790514 -0.22678185 C236.51485523 -0.24499632 243.35049428 -0.24933888 250.18631188 -0.235763 C253.67293687 -0.22923454 257.15924576 -0.22911122 260.64584064 -0.2464695 C264.4287566 -0.26187595 268.21084141 -0.25264272 271.99373913 -0.23720741 C273.64039522 -0.2526381 273.64039522 -0.2526381 275.32031709 -0.26838052 C282.73815349 -0.20146229 288.3481025 0.87595835 293.91712475 6.18695641 C294.36314037 6.82890953 294.809156 7.47086266 295.26868725 8.13226891 C295.96091381 9.08746422 295.96091381 9.08746422 296.66712475 10.06195641 C299.99576624 16.01958864 300.20115589 21.5364369 300.1944685 28.18695641 C300.19875362 29.13611931 300.20303875 30.08528221 300.20745373 31.06320763 C300.21318012 33.06522387 300.21370979 35.06726091 300.20936108 37.06928062 C300.20620475 40.11538149 300.22966911 43.16050692 300.25501537 46.20648766 C300.25728906 48.15830936 300.25799154 50.11013365 300.2569685 52.06195641 C300.26617825 52.96429008 300.27538799 53.86662376 300.28487682 54.79630089 C300.23428465 61.78914592 299.22014979 67.4906648 294.58118725 73.00726891 C290.90662167 76.08364939 287.46546601 78.73334265 282.89368725 80.25726891 C282.87386791 81.15743736 282.85404858 82.05760582 282.83362865 82.98505211 C281.65793662 133.84185202 273.56268857 175.98223351 236.14368725 212.97601891 C226.08612806 222.44883628 213.12456395 232.84697667 199.89368725 237.25726891 C202.63516056 238.93827667 205.38813545 240.59945725 208.14368725 242.25726891 C209.30964428 242.97269859 209.30964428 242.97269859 210.499156 243.70258141 C211.25325756 244.15375328 212.00735912 244.60492516 212.78431225 245.06976891 C213.47557201 245.48871422 214.16683178 245.90765953 214.87903881 246.33930016 C217.1313583 247.53369131 217.1313583 247.53369131 220.89368725 247.25726891 C223.3621186 245.16265191 223.3621186 245.16265191 225.83118725 242.38226891 C250.7895311 216.34152641 285.0743511 203.89252387 320.54212475 202.06976891 C358.65056627 201.37213153 393.58779479 216.23675165 420.98743725 242.35883141 C439.02177217 260.06768033 451.61623778 282.82874462 457.89368725 307.25726891 C458.21337475 308.46383141 458.53306225 309.67039391 458.86243725 310.91351891 C463.13240245 330.36558262 463.00858557 354.00963949 457.89368725 373.25726891 C457.7220808 373.90969566 457.55047436 374.56212242 457.37366772 375.23431969 C451.7506211 396.09336036 442.12853685 414.97763427 427.89368725 431.25726891 C427.28653881 431.98558922 426.67939037 432.71390953 426.0538435 433.46430016 C422.03891464 438.22576908 417.71304389 442.31930467 412.89368725 446.25726891 C411.52470287 447.40002281 411.52470287 447.40002281 410.12806225 448.56586266 C385.51597619 468.38539426 355.82808305 478.43352687 324.33118725 478.56976891 C323.30813488 478.57618904 323.30813488 478.57618904 322.26441479 478.58273888 C310.45438049 478.62129421 299.2511728 477.31272667 287.76185131 474.51093102 C285.66952645 474.08699209 285.66952645 474.08699209 282.89368725 475.25726891 C281.28093756 475.35125936 279.66457033 475.38816654 278.04908752 475.39148998 C277.04483004 475.39594783 276.04057256 475.40040567 275.00588304 475.4049986 C273.3462866 475.40472206 273.3462866 475.40472206 271.65316296 475.40443993 C270.48018113 475.40811661 269.3071993 475.4117933 268.09867257 475.41558141 C264.83723596 475.42470979 261.57582892 475.42931828 258.31438172 475.43197072 C254.79890321 475.43587362 251.28343929 475.44545198 247.76797009 475.45418358 C239.27523021 475.47394857 230.78248914 475.48401433 222.28973201 475.49291137 C218.29053579 475.49729429 214.2913409 475.50266109 210.29214573 475.50790024 C196.99815966 475.52491269 183.70417442 475.53940687 170.41017914 475.54664898 C166.96010175 475.54855888 163.51002437 475.55047921 160.05994701 475.55243492 C159.20244495 475.55291866 158.34494288 475.5534024 157.4614559 475.5539008 C143.57044456 475.56220112 129.67951933 475.58753799 115.78854559 475.6200156 C101.52765375 475.65308631 87.26680568 475.67109776 73.00587529 475.67429322 C64.99861511 475.67645833 56.99148051 475.68520703 48.9842577 475.71075439 C42.16488292 475.73246159 35.34566421 475.74051177 28.5262588 475.73078761 C25.04774213 475.72624288 21.56954745 475.72813867 18.09107494 475.74754906 C14.31682061 475.7651965 10.54338415 475.75819572 6.76912975 475.7450161 C5.12626373 475.76146997 5.12626373 475.76146997 3.45020849 475.77825624 C-3.9950819 475.71545522 -9.37363389 474.54317925 -15.12975025 469.47601891 C-15.57576588 468.90883141 -16.0217815 468.34164391 -16.48131275 467.75726891 C-16.94279713 467.19008141 -17.4042815 466.62289391 -17.87975025 466.03851891 C-20.36380416 462.43110304 -21.35788506 459.74707179 -21.41270924 455.34027672 C-21.42869663 454.36536278 -21.44468403 453.39044884 -21.46115589 452.38599205 C-21.46651859 451.33804466 -21.47188129 450.29009727 -21.4774065 449.21039391 C-21.48643497 448.12522484 -21.49546345 447.04005577 -21.50476551 445.92200279 C-21.51926993 443.6255831 -21.52815522 441.32912206 -21.53184986 439.03265953 C-21.5437224 435.53389576 -21.59288873 432.0369093 -21.64342213 428.53851891 C-21.65288944 426.30415249 -21.660123 424.06977526 -21.6649065 421.83539391 C-21.68443882 420.79554344 -21.70397114 419.75569298 -21.72409534 418.68433189 C-21.6772682 411.07575474 -19.86489472 406.31815592 -14.69882679 400.73657799 C-11.15825189 397.46912527 -7.676918 396.45664759 -3.10631275 395.25726891 C-3.1220232 394.04893394 -3.13773365 392.84059898 -3.15392017 391.59564781 C-3.20908638 387.02198782 -3.24297099 382.44835577 -3.27110767 377.87445641 C-3.28600024 375.91184066 -3.30632109 373.94925699 -3.33263111 371.98676109 C-3.84888296 332.42769776 9.31495705 295.95961012 36.9600935 267.22211266 C49.08614306 254.87508725 63.05280361 245.94010954 77.89368725 237.25726891 C76.99649975 236.81898766 76.09931225 236.38070641 75.17493725 235.92914391 C40.62012769 218.5604234 15.72882655 188.9317319 3.08118725 152.56976891 C-1.02890897 139.56138356 -3.16995025 126.67099713 -3.422719 113.06976891 C-3.4435001 112.12665855 -3.4642812 111.1835482 -3.48569202 110.21185875 C-3.5505836 107.22706282 -3.60978897 104.24218604 -3.66881275 101.25726891 C-3.71205554 99.22210461 -3.75567158 97.18694821 -3.79967213 95.15180016 C-3.90620224 90.18703727 -4.00763614 85.22219384 -4.10631275 80.25726891 C-4.65779987 80.06277657 -5.20928699 79.86828423 -5.77748585 79.66789818 C-6.49975361 79.40662636 -7.22202137 79.14535454 -7.96617603 78.87616539 C-8.68266315 78.61979805 -9.39915028 78.36343071 -10.13734913 78.09929466 C-12.75060068 76.98173967 -14.21303244 75.52377379 -15.98131275 73.31976891 C-16.81275806 72.31623375 -16.81275806 72.31623375 -17.66100025 71.29242516 C-20.28546607 67.59689356 -21.35596158 64.90168217 -21.41270924 60.34027672 C-21.42869663 59.36536278 -21.44468403 58.39044884 -21.46115589 57.38599205 C-21.46651859 56.33804466 -21.47188129 55.29009727 -21.4774065 54.21039391 C-21.48643497 53.12522484 -21.49546345 52.04005577 -21.50476551 50.92200279 C-21.51926993 48.6255831 -21.52815522 46.32912206 -21.53184986 44.03265953 C-21.5437224 40.53389576 -21.59288873 37.0369093 -21.64342213 33.53851891 C-21.65288944 31.30415249 -21.660123 29.06977526 -21.6649065 26.83539391 C-21.68443882 25.79554344 -21.70397114 24.75569298 -21.72409534 23.68433189 C-21.67751463 16.11579537 -19.93162413 11.1923081 -14.62802601 5.73657799 C-10.14163648 1.74373764 -5.95888743 0.00963105 0 0 Z M12.89368725 81.25726891 C12.89368725 128.10383581 16.92183161 162.81611844 48.89368725 196.25726891 C49.49181225 196.91855797 50.08993725 197.57984703 50.70618725 198.26117516 C64.66717743 213.1549039 83.21069184 222.8990651 102.47059155 228.96332359 C103.27923656 229.22274742 104.08788158 229.48217125 104.921031 229.74945641 C105.99985546 230.07985924 105.99985546 230.07985924 107.10047436 230.41693687 C108.89368725 231.25726891 108.89368725 231.25726891 110.89368725 234.25726891 C111.45352176 240.52741549 111.45352176 240.52741549 109.65809155 242.86810875 C107.60790521 244.48227233 105.83015429 245.17548714 103.3507185 245.98383141 C102.44958324 246.28853355 101.54844799 246.5932357 100.62000561 246.90717125 C99.65844555 247.22895348 98.69688549 247.5507357 97.70618725 247.88226891 C63.4285948 259.89605773 38.67179943 284.57925636 22.95374584 316.95306969 C11.5261351 341.79272656 12.89368725 367.05479554 12.89368725 394.25726891 C73.28368725 394.25726891 133.67368725 394.25726891 195.89368725 394.25726891 C194.90368725 390.95726891 193.91368725 387.65726891 192.89368725 384.25726891 C191.90368725 380.95726891 190.91368725 377.65726891 189.89368725 374.25726891 C138.08368725 374.25726891 86.27368725 374.25726891 32.89368725 374.25726891 C34.14018585 350.57379552 34.14018585 350.57379552 40.39368725 343.38226891 C44.26118531 340.09489555 47.19673683 337.93668942 52.14368725 336.56976891 C53.0357185 336.31840172 53.92774975 336.06703453 54.84681225 335.80805016 C55.86001537 335.53541344 55.86001537 335.53541344 56.89368725 335.25726891 C56.93235912 333.95402672 56.93235912 333.95402672 56.97181225 332.62445641 C57.55178898 320.84038375 57.55178898 320.84038375 61.89368725 316.25726891 C65.3652774 313.87578092 68.21611454 312.77977428 72.358531 312.11664391 C73.39952953 311.93706139 74.44052807 311.75747887 75.51307201 311.57245445 C76.60805004 311.38594322 77.70302807 311.19943199 78.83118725 311.00726891 C92.25946415 308.50375726 105.5186091 304.95318415 113.89368725 293.25726891 C121.59395973 280.92188095 125.24803014 267.2207752 128.89368725 253.25726891 C129.08334057 252.54280602 129.27299389 251.82834312 129.46839428 251.09222984 C131.37061795 243.84224529 132.53383603 236.74217435 132.89368725 229.25726891 C132.96974194 228.11258141 133.04579662 226.96789391 133.124156 225.78851891 C133.17185131 224.62320641 133.21954662 223.45789391 133.26868725 222.25726891 C133.31767162 221.18476891 133.366656 220.11226891 133.41712475 219.00726891 C133.1860268 216.0872617 133.1860268 216.0872617 130.69813061 214.65668297 C127.86824067 213.24457109 125.60819198 212.621239 122.499156 212.11664391 C120.95373119 211.84739098 120.95373119 211.84739098 119.37708569 211.57269859 C117.74561596 211.2928109 117.74561596 211.2928109 116.08118725 211.00726891 C89.04464538 205.94229372 68.37228511 191.08281219 51.89368725 169.25726891 C50.86558632 167.6077883 49.85502963 165.94652868 48.89368725 164.25726891 C49.69806225 164.30367516 50.50243725 164.35008141 51.33118725 164.39789391 C59.23416033 164.64052904 66.75300354 164.02071697 74.54993725 162.71039391 C76.09518078 162.45111107 76.09518078 162.45111107 77.67164135 162.18659019 C91.40963377 159.76883816 104.88872192 156.21317354 118.39368725 152.75726891 C155.16840382 143.34666249 191.02119982 135.95224168 228.89368725 143.25726891 C230.0332185 143.46996422 231.17274975 143.68265953 232.34681225 143.90180016 C234.53454164 144.32651298 236.71565057 144.78536096 238.89368725 145.25726891 C225.81263825 172.70252157 208.96761582 195.33875351 179.22669506 206.23431969 C175.63483359 207.44747756 172.04832285 208.64753666 168.405406 209.69916344 C163.39763594 211.22796887 163.39763594 211.22796887 159.9600935 215.05805016 C159.60817944 216.11379234 159.25626537 217.16953453 158.89368725 218.25726891 C158.50825756 219.27820641 158.12282787 220.29914391 157.7257185 221.35101891 C153.97171271 233.89313786 151.6118871 249.70960869 157.33118725 261.94476891 C160.92912922 267.82846225 165.28044292 273.14465277 169.89368725 278.25726891 C170.52017162 278.95465172 171.146656 279.65203453 171.79212475 280.37055016 C175.79302637 284.5824698 180.19257889 288.19716705 184.76868725 291.75726891 C185.34070873 292.2033651 185.91273022 292.64946129 186.50208569 293.10907555 C189.37488516 295.50730958 189.37488516 295.50730958 192.89368725 296.25726891 C193.6207185 294.42615562 193.6207185 294.42615562 194.36243725 292.55805016 C198.07675859 283.38291994 201.93915844 274.91646428 207.5225935 266.72601891 C207.97505444 265.91133141 208.42751537 265.09664391 208.89368725 264.25726891 C207.57528753 260.30206976 205.23311309 259.36367073 201.76868725 257.44476891 C201.14703686 257.0951107 200.52538647 256.7454525 199.88489819 256.38519859 C192.17137191 252.15993033 184.02298313 249.16539285 175.796031 246.10492516 C174.90013256 245.76332359 174.00423412 245.42172203 173.08118725 245.06976891 C172.31161694 244.78746422 171.54204662 244.50515953 170.749156 244.21430016 C168.89368725 243.25726891 168.89368725 243.25726891 166.89368725 240.25726891 C166.91712475 237.99555016 166.91712475 237.99555016 167.26868725 235.56976891 C167.37954662 234.76152672 167.490406 233.95328453 167.60462475 233.12055016 C167.70001537 232.50566734 167.795406 231.89078453 167.89368725 231.25726891 C168.46474194 231.09871422 169.03579662 230.94015953 169.624156 230.77680016 C188.69950076 225.28771049 205.68989716 217.0101748 220.89368725 204.25726891 C221.713531 203.58953453 222.53337475 202.92180016 223.37806225 202.23383141 C229.34284274 197.1946203 234.13503418 191.42652271 238.89368725 185.25726891 C239.57431225 184.40390953 240.25493725 183.55055016 240.95618725 182.67133141 C264.36653725 152.21958706 264.89368725 118.92686359 264.89368725 81.25726891 C181.73368725 81.25726891 98.57368725 81.25726891 12.89368725 81.25726891 Z M292.89368725 222.25726891 C291.66392162 222.59758141 290.434156 222.93789391 289.16712475 223.28851891 C256.94413785 233.16222918 231.36678055 254.84845183 215.06263256 284.05121422 C200.17715173 312.14336225 197.49553561 346.07781174 206.52698803 376.38226891 C216.51099194 407.972106 238.5717711 433.96932011 267.79993725 449.41937828 C297.68191378 464.29950712 330.98527713 466.29247582 362.58118725 456.06976891 C392.80780024 445.75900112 418.53581236 423.31467453 432.82557201 394.67474937 C446.9571838 364.9070792 449.16596137 331.37876617 438.56995678 300.13788414 C427.35900501 269.27608801 404.55740712 243.95445289 374.84681225 230.00726891 C349.6214694 218.61517859 319.84469118 214.74732624 292.89368725 222.25726891 Z " fill="#08524d" transform="translate(36.10631275177002,16.74273109436035)"/>
<path d="M0 0 C0.65871094 0.65355469 1.31742188 1.30710937 1.99609375 1.98046875 C2.84171875 2.78484375 3.68734375 3.58921875 4.55859375 4.41796875 C5.76515625 5.68640625 5.76515625 5.68640625 6.99609375 6.98046875 C7.64964844 7.63917969 8.30320312 8.29789062 8.9765625 8.9765625 C28.16354591 29.08821981 35.6818693 55.25937788 35.3984375 82.5534668 C34.73306354 108.1495713 25.34088888 132.01604079 7.99609375 150.98046875 C6.84173828 152.25664062 6.84173828 152.25664062 5.6640625 153.55859375 C-8.62320181 168.60753774 -27.13087421 177.8025796 -47.00390625 182.98046875 C-48.40382813 183.34978516 -48.40382813 183.34978516 -49.83203125 183.7265625 C-78.06101526 189.71077695 -107.17443345 182.43128306 -131.00390625 166.98046875 C-134.87060357 164.17955884 -138.46333495 161.18160475 -142.00390625 157.98046875 C-143.37675781 156.74876953 -143.37675781 156.74876953 -144.77734375 155.4921875 C-163.57055954 137.7254919 -175.2142719 112.64568688 -176.4453125 86.828125 C-176.79951295 73.16381919 -176.28076336 60.02734091 -172.00390625 46.98046875 C-171.69042236 46.01246338 -171.69042236 46.01246338 -171.37060547 45.02490234 C-162.34748624 18.18534694 -143.03091544 -3.09433523 -118.00390625 -16.01953125 C-80.04667622 -34.56375018 -31.06144771 -29.63333517 0 0 Z M-71.00390625 -4.01953125 C-73.09340765 -2.89430337 -73.09340765 -2.89430337 -75.00390625 -1.01953125 C-75.56234403 1.64652327 -75.56234403 1.64652327 -75.37890625 4.54296875 C-75.36601562 5.51363281 -75.353125 6.48429687 -75.33984375 7.484375 C-75.2378487 10.15084141 -75.2378487 10.15084141 -73.00390625 11.98046875 C-70.50390625 12.31380208 -70.50390625 12.31380208 -68.00390625 11.98046875 C-65.41770372 9.39426622 -65.64761454 8.14001849 -65.56640625 4.54296875 C-65.5299843 1.61521675 -65.5299843 1.61521675 -66.00390625 -1.01953125 C-68.30708158 -3.32440846 -68.30708158 -3.32440846 -71.00390625 -4.01953125 Z M-112.00390625 6.98046875 C-114.22193528 8.79318594 -114.22193528 8.79318594 -114.31640625 11.3359375 C-113.94207988 14.50367438 -113.00078085 15.83847705 -111.00390625 18.29296875 C-110.44703125 18.99035156 -109.89015625 19.68773437 -109.31640625 20.40625 C-108.88328125 20.92574219 -108.45015625 21.44523437 -108.00390625 21.98046875 C-104.71314629 21.60142667 -104.71314629 21.60142667 -102.00390625 19.98046875 C-102.36379286 15.30194279 -102.90970836 11.60814903 -106.00390625 7.98046875 C-109.00097554 6.9109831 -109.00097554 6.9109831 -112.00390625 6.98046875 Z M-35.12890625 8.73046875 C-37.61969957 11.71942073 -38.88217172 13.70225617 -39.25390625 17.60546875 C-39.2360002 20.16784028 -39.2360002 20.16784028 -37.00390625 21.98046875 C-34.56848414 22.19773521 -34.56848414 22.19773521 -32.00390625 20.98046875 C-29.11535009 18.0526659 -27.20235258 15.25619517 -26.56640625 11.16796875 C-26.8334515 8.78112337 -26.8334515 8.78112337 -29.00390625 6.98046875 C-32.94809267 6.55666391 -32.94809267 6.55666391 -35.12890625 8.73046875 Z M-143.00390625 37.98046875 C-143.30415674 40.42179535 -143.30415674 40.42179535 -142.00390625 42.98046875 C-138.61936279 45.94784755 -135.57944876 48.07894016 -131.00390625 47.79296875 C-130.01390625 47.39078125 -130.01390625 47.39078125 -129.00390625 46.98046875 C-128.14415824 44.68752387 -128.14415824 44.68752387 -128.00390625 41.98046875 C-130.22033566 39.10731951 -132.59269699 37.22090848 -136.00390625 35.98046875 C-139.98175957 35.53837411 -139.98175957 35.53837411 -143.00390625 37.98046875 Z M-75.37890625 37.23046875 C-78.87947665 41.00031379 -78.19871645 45.79209216 -78.2421875 50.62890625 C-78.25025925 51.47844879 -78.25833099 52.32799133 -78.26664734 53.20327759 C-78.28047173 55.00040658 -78.29120124 56.79756164 -78.29907227 58.59472656 C-78.31629906 61.33839721 -78.36020025 64.08086683 -78.40429688 66.82421875 C-78.41442314 68.57160574 -78.42293945 70.31900295 -78.4296875 72.06640625 C-78.44719559 72.88426605 -78.46470367 73.70212585 -78.48274231 74.54476929 C-78.46830126 78.34930351 -78.21542177 80.57744242 -76.41894531 84.00048828 C-73.15196905 86.67893324 -71.13259155 86.59784853 -66.9375 86.57421875 C-66.26219742 86.57425903 -65.58689484 86.57429932 -64.89112854 86.57434082 C-63.46809547 86.5689942 -62.04506232 86.55144731 -60.62231445 86.52246094 C-58.44455845 86.48052944 -56.26988928 86.48139866 -54.09179688 86.48828125 C-47.26585119 86.85689284 -47.26585119 86.85689284 -41.10180664 84.66601562 C-39.18558622 81.72414642 -39.52892995 79.36467485 -40.00390625 75.98046875 C-42.14757875 73.55326442 -43.84275868 72.15543804 -47.10205078 71.66430664 C-49.51910665 71.58698316 -51.9002754 71.63130632 -54.31640625 71.73046875 C-55.5703418 71.75753906 -55.5703418 71.75753906 -56.84960938 71.78515625 C-58.90153853 71.83205749 -60.95287381 71.90379464 -63.00390625 71.98046875 C-62.9881958 71.09786377 -62.97248535 70.21525879 -62.95629883 69.3059082 C-62.90502627 66.01645989 -62.86748708 62.72743914 -62.83911133 59.43774414 C-62.82406865 58.01677734 -62.80362921 56.59585662 -62.77758789 55.17504883 C-62.74100278 53.12699989 -62.72413528 51.07956725 -62.7109375 49.03125 C-62.69522705 47.80059814 -62.6795166 46.56994629 -62.66333008 45.30200195 C-63.03509066 41.67633697 -63.73776747 39.81469125 -66.00390625 36.98046875 C-69.74399338 35.8924434 -71.87468753 35.38614311 -75.37890625 37.23046875 Z M-13.00390625 40.98046875 C-13.83932479 43.61289548 -13.83932479 43.61289548 -13.00390625 45.98046875 C-12.34390625 46.64046875 -11.68390625 47.30046875 -11.00390625 47.98046875 C-5.37509486 47.84956616 -2.28220128 45.31753887 1.99609375 41.98046875 C1.61705167 38.68970879 1.61705167 38.68970879 -0.00390625 35.98046875 C-5.12724702 35.04895225 -9.2802961 37.66257884 -13.00390625 40.98046875 Z M-153.19140625 77.48046875 C-153.45953125 78.30546875 -153.72765625 79.13046875 -154.00390625 79.98046875 C-152.24773423 82.42383852 -150.88373047 83.81257569 -147.875 84.38671875 C-143.81226384 84.54735412 -141.71934721 84.5388617 -138.44140625 81.98046875 C-137.96703125 81.32046875 -137.49265625 80.66046875 -137.00390625 79.98046875 C-137.69902904 77.28364408 -137.69902904 77.28364408 -140.00390625 74.98046875 C-145.05981961 73.97083935 -149.65216837 73.43562546 -153.19140625 77.48046875 Z M-4.00390625 77.98046875 C-2.91605657 81.2303001 -2.91605657 81.2303001 -1.00390625 83.98046875 C0.61748812 84.10541491 2.24493497 84.15618499 3.87109375 84.16796875 C5.19753906 84.18923828 5.19753906 84.18923828 6.55078125 84.2109375 C9.25376101 84.15115299 9.25376101 84.15115299 11.99609375 81.98046875 C12.41276042 79.48046875 12.41276042 79.48046875 11.99609375 76.98046875 C9.39423267 74.37860767 8.1725502 74.68236698 4.55859375 74.66796875 C3.59050781 74.65121094 2.62242187 74.63445312 1.625 74.6171875 C-1.34137666 75.02710285 -2.19776917 75.66004179 -4.00390625 77.98046875 Z M-133.00390625 109.98046875 C-134.49367084 110.68773073 -135.97053621 111.42220781 -137.44140625 112.16796875 C-138.26511719 112.57402344 -139.08882813 112.98007812 -139.9375 113.3984375 C-142.2233862 114.84243979 -142.2233862 114.84243979 -142.859375 117.5390625 C-143.23515845 119.99474067 -143.23515845 119.99474067 -141.87890625 121.85546875 C-140.03759497 123.18868238 -140.03759497 123.18868238 -137.69140625 122.91796875 C-134.27622265 121.72662563 -131.80622625 120.27327602 -129.00390625 117.98046875 C-128.04170923 115.35280486 -128.04170923 115.35280486 -128.00390625 112.98046875 C-129.65390625 111.99046875 -131.30390625 111.00046875 -133.00390625 109.98046875 Z M-9.00390625 109.98046875 C-10.32390625 110.97046875 -11.64390625 111.96046875 -13.00390625 112.98046875 C-13.12604519 115.32195106 -13.12604519 115.32195106 -12.00390625 117.98046875 C-9.56282722 120.14207845 -7.01008292 121.72036086 -4.00390625 122.98046875 C-1.10895415 122.95908139 -1.10895415 122.95908139 0.99609375 121.98046875 C1.85584176 119.68752387 1.85584176 119.68752387 1.99609375 116.98046875 C-0.82140044 112.98901865 -4.59031366 111.67800436 -9.00390625 109.98046875 Z M-111.87890625 140.60546875 C-113.65790413 143.72010056 -114.01475416 144.77797444 -113.81640625 148.48046875 C-113.54828125 149.30546875 -113.28015625 150.13046875 -113.00390625 150.98046875 C-111.27913714 151.93549033 -111.27913714 151.93549033 -109.00390625 151.98046875 C-105.93486089 149.42293095 -103.21412597 146.85317186 -102.00390625 142.98046875 C-102.2793482 139.66496673 -102.2793482 139.66496673 -104.00390625 136.98046875 C-108.21894573 135.92670888 -109.59366118 137.25420154 -111.87890625 140.60546875 Z M-39.00390625 138.98046875 C-39.54614511 141.69166306 -39.32108991 143.38274816 -38.0234375 145.828125 C-35.64640026 149.55853921 -35.64640026 149.55853921 -31.9453125 151.75 C-29.93728788 152.18653082 -29.93728788 152.18653082 -28.19140625 150.91796875 C-26.75048038 148.95936266 -26.75048038 148.95936266 -27.06640625 146.16796875 C-28.1663026 142.42832116 -29.46413669 139.94353324 -32.00390625 136.98046875 C-35.52319544 136.31012795 -36.44566166 136.42222416 -39.00390625 138.98046875 Z M-73.671875 147.1328125 C-75.50189132 149.67122224 -75.37007628 151.44249232 -75.31640625 154.54296875 C-75.31253906 155.51363281 -75.30867188 156.48429688 -75.3046875 157.484375 C-75.24380511 160.1521921 -75.24380511 160.1521921 -73.00390625 161.98046875 C-70.50390625 162.39713542 -70.50390625 162.39713542 -68.00390625 161.98046875 C-65.85837248 158.7621681 -65.70806757 157.71260368 -65.69140625 153.98046875 C-65.67464844 153.11421875 -65.65789062 152.24796875 -65.640625 151.35546875 C-65.82345445 148.93256255 -65.82345445 148.93256255 -67.3359375 147.16796875 C-69.71461979 145.47448066 -71.26968411 145.47321926 -73.671875 147.1328125 Z " fill="#08524d" transform="translate(430.00390625,278.01953125)"/>
</svg>