<svg version="1.1" xmlns="http://www.w3.org/2000/svg" width="512px" height="512px" transform="rotate(0) scale(1, 1)">
<path d="M0 0 C0.67933594 0.23299805 1.35867188 0.46599609 2.05859375 0.70605469 C10.40297456 3.58917652 18.44166104 7.00887572 26.4375 10.75 C27.27345703 11.13905518 28.10941406 11.52811035 28.97070312 11.92895508 C29.74220703 12.29786865 30.51371094 12.66678223 31.30859375 13.046875 C31.99751709 13.37526367 32.68644043 13.70365234 33.39624023 14.04199219 C35 15 35 15 36 17 C28.7797725 15.41154995 22.48338347 13.52558734 16 10 C9.782391 6.87414538 3.87510153 5.0908303 -3 4 C-2.39671875 4.72445313 -1.7934375 5.44890625 -1.171875 6.1953125 C6.1529029 15.05593093 6.1529029 15.05593093 8.25 18.4375 C10.74411665 22.08959938 13.26067797 24.43472034 17.5 25.8125 C20.01315741 26.16905982 20.01315741 26.16905982 22.3125 25.1875 C26.83354622 24.87207817 29.69373017 28.16957049 33 31 C32.67 30.38125 32.34 29.7625 32 29.125 C31 27 31 27 31 25 C30.34 24.7525 29.68 24.505 29 24.25 C22.59447965 21.58103319 17.06382739 18.81681142 12 14 C11.67 13.01 11.34 12.02 11 11 C15.89972716 11.46223841 18.29494454 12.6727785 21.9375 15.9375 C25.95934053 19.33872368 28.83101696 21.10104643 34 22 C34 21.34 34 20.68 34 20 C33.34 20 32.68 20 32 20 C32.33 19.34 32.66 18.68 33 18 C34.98 18.99 36.96 19.98 39 21 C39 22.32 39 23.64 39 25 C41.2704415 27.52093031 41.2704415 27.52093031 44 30 C48 34.64864865 48 34.64864865 48 37 C44.04666373 38.29088531 41.45293079 39.02264654 37.25 38.8125 C33.90063086 38.63171535 33.90063086 38.63171535 32.0625 41.0625 C30.80739402 44.53249889 30.78451337 47.33672732 31 51 C29.68 51.33 28.36 51.66 27 52 C27 52.66 27 53.32 27 54 C26.34 54.33 25.68 54.66 25 55 C25.75925781 55.43570313 26.51851563 55.87140625 27.30078125 56.3203125 C37.47780127 62.41860465 37.47780127 62.41860465 39 68 C38.67 68.99 38.34 69.98 38 71 C32.39 71 26.78 71 21 71 C21.78375 72.52625 22.5675 74.0525 23.375 75.625 C25.24853556 79.36151598 26.76233415 83.00138726 28 87 C28.64969486 89.13812589 28.64969486 89.13812589 30 91 C35.88371145 93.15638513 41.9379471 93.34712287 48 92 C48.33 91.01 48.66 90.02 49 89 C49.66 89 50.32 89 51 89 C50.65775391 88.22076172 50.65775391 88.22076172 50.30859375 87.42578125 C47.36332535 80.2805337 47.36332535 80.2805337 49 76 C49.66 75.34 50.32 74.68 51 74 C50.34 72.35 49.68 70.7 49 69 C51.64 68.67 54.28 68.34 57 68 C57.33 67.01 57.66 66.02 58 65 C59.98 65.33 61.96 65.66 64 66 C63.34 64.35 62.68 62.7 62 61 C67.68783355 61.44160198 71.21172255 63.6860429 75.75 66.875 C76.45302246 67.36170166 77.15604492 67.84840332 77.88037109 68.34985352 C83.29858233 72.22417922 87.56991911 76.41872757 91.7890625 81.58984375 C94.32646839 84.35588515 96.81696884 86.03454666 100 88 C99.236875 87.236875 98.47375 86.47375 97.6875 85.6875 C96.800625 84.800625 95.91375 83.91375 95 83 C94.401875 82.46375 93.80375 81.9275 93.1875 81.375 C92 80 92 80 92 77 C93.485 76.505 93.485 76.505 95 76 C93.60120336 72.86140655 91.91835015 70.67507511 89.5625 68.1875 C86.35586004 64.62679355 84.59340862 61.49903609 83 57 C83.99 57 84.98 57 86 57 C86 55.68 86 54.36 86 53 C83.81044697 50.73070496 83.81044697 50.73070496 80.9375 48.625 C79.44089844 47.45517578 79.44089844 47.45517578 77.9140625 46.26171875 C76.95242188 45.51535156 75.99078125 44.76898438 75 44 C72.6433085 42.02536599 70.32351544 40.01371338 68 38 C71.37634165 38 71.80007901 38.34418763 74.30078125 40.38671875 C74.94152588 40.90661377 75.58227051 41.42650879 76.24243164 41.9621582 C76.9255542 42.531521 77.60867676 43.10088379 78.3125 43.6875 C79.01947021 44.27039795 79.72644043 44.8532959 80.45483398 45.45385742 C89.56875607 53.04081836 98.72443312 60.87033739 106.3203125 70.015625 C107.56164504 71.48212949 108.85711429 72.9031957 110.1796875 74.296875 C131.92993324 97.228444 148.78498289 127.2193978 159 157 C159.25974609 157.75168457 159.51949219 158.50336914 159.78710938 159.27783203 C162.87862477 168.34436884 165.48997378 177.50447129 167.75 186.8125 C167.94867676 187.62307861 168.14735352 188.43365723 168.35205078 189.26879883 C171.43667739 202.46767027 172.37492791 215.3806521 172.3125 228.875 C172.30976578 230.10672943 172.30976578 230.10672943 172.30697632 231.36334229 C172.21478368 256.27577551 170.07979969 280.77154451 164 305 C163.77973145 305.89187012 163.55946289 306.78374023 163.33251953 307.70263672 C156.54129702 334.65545517 144.87083363 361.14932331 129 384 C128.60989746 384.57121582 128.21979492 385.14243164 127.81787109 385.73095703 C121.73652984 394.62396955 115.10767818 402.9098292 108 411 C107.23816406 411.87398438 106.47632813 412.74796875 105.69140625 413.6484375 C96.84103568 423.65046057 87.48685342 432.73124945 77 441 C75.9531128 441.85907796 74.90758653 442.71981652 73.86328125 443.58203125 C22.66517914 485.44045004 -45.29093325 503.29900734 -110.62573242 497.17749023 C-154.96695754 492.38115628 -196.60086683 476.74169204 -233 451 C-234.03036377 450.27707764 -234.03036377 450.27707764 -235.08154297 449.53955078 C-245.90622559 441.88686039 -255.52448563 433.25113502 -265 424 C-266.04404996 422.99586405 -267.08830447 421.99194071 -268.1328125 420.98828125 C-274.24731196 415.01855406 -279.79540151 408.77271227 -285 402 C-285.51965332 401.3296875 -286.03930664 400.659375 -286.57470703 399.96875 C-318.2677755 358.85733033 -339.92796672 306.65257859 -340.203125 254.20703125 C-340.21013931 253.30644485 -340.21715363 252.40585846 -340.22438049 251.47798157 C-340.24177809 248.58943619 -340.24823227 245.70109584 -340.25 242.8125 C-340.25101212 241.33194122 -340.25101212 241.33194122 -340.25204468 239.82147217 C-340.23631228 225.35031441 -339.87100014 211.23005389 -337 197 C-336.82307617 196.09813965 -336.64615234 195.1962793 -336.46386719 194.26708984 C-331.19413805 168.00490775 -322.49278804 143.67085886 -310 120 C-309.49629883 119.03247803 -309.49629883 119.03247803 -308.98242188 118.04541016 C-293.75369905 88.99669361 -270.85351584 62.18797423 -245 42 C-244.03964844 41.22269531 -243.07929688 40.44539063 -242.08984375 39.64453125 C-206.89993713 11.66165987 -164.33747337 -5.54341331 -120 -12 C-119.20416504 -12.11714355 -118.40833008 -12.23428711 -117.58837891 -12.35498047 C-78.32648686 -17.84495623 -37.3215254 -13.05576047 0 0 Z M-126 -3 C-119.56318772 -3.51085812 -114.04057576 -4.72942897 -108 -7 C-108 -7.33 -108 -7.66 -108 -8 C-114.63701679 -8.35555447 -121.01844807 -7.98155193 -126 -3 Z M-104 -6 C-106.64017635 -5.18220159 -109.30270591 -4.6190511 -112 -4 C-112 -3.67 -112 -3.34 -112 -3 C-109.03 -3 -106.06 -3 -103 -3 C-103 -1.02 -103 0.96 -103 3 C-101.68 3.66 -100.36 4.32 -99 5 C-100.32 5 -101.64 5 -103 5 C-103 5.66 -103 6.32 -103 7 C-102.34 7.33 -101.68 7.66 -101 8 C-102.32 8.99 -103.64 9.98 -105 11 C-104.58167594 15.74100599 -102.5526248 18.94774489 -99 22 C-96.11613684 23.68984263 -93.23187066 25.12243212 -90 26 C-86.7525637 25.279072 -86.7525637 25.279072 -85.3125 22.1875 C-83.7461668 18.95807219 -83.7461668 18.95807219 -84 15 C-83.42894531 14.91363281 -82.85789062 14.82726562 -82.26953125 14.73828125 C-74.7827808 13.44089524 -68.01240556 10.8797026 -61 8 C-63.67642489 5.81509993 -63.67642489 5.81509993 -66 6 C-66 5.34 -66 4.68 -66 4 C-63.69 4.33 -61.38 4.66 -59 5 C-58.94824448 2.12688428 -58.94824448 2.12688428 -60 -1 C-62.19788473 -2.67326401 -64.52080472 -3.73865503 -67 -5 C-67.66 -5.99 -68.32 -6.98 -69 -8 C-78.20136877 -10.31803713 -96.08176569 -11.27882287 -104 -6 Z M-161.3046875 0.85546875 C-165.89380004 3.23371704 -170.12796206 5.51516586 -174 9 C-174.99 8.505 -174.99 8.505 -176 8 C-175.67 7.34 -175.34 6.68 -175 6 C-176.6498275 6.42218816 -178.29483665 6.86324425 -179.9375 7.3125 C-180.85402344 7.55613281 -181.77054687 7.79976562 -182.71484375 8.05078125 C-183.46894531 8.36402344 -184.22304687 8.67726563 -185 9 C-185.33 9.99 -185.66 10.98 -186 12 C-187.74780273 12.57446289 -187.74780273 12.57446289 -189.99609375 12.91015625 C-195.21400638 13.91704952 -199.41646545 15.91229057 -204.0625 18.4375 C-205.29033203 19.09576782 -205.29033203 19.09576782 -206.54296875 19.76733398 C-235.59358344 35.6670367 -278.90888264 68.89914566 -289.9140625 101.7265625 C-291.35006912 107.58105104 -292.37874429 113.20852631 -292.69140625 119.234375 C-293 122 -293 122 -294.02734375 125.8046875 C-295.14237623 130.07020088 -295.15189512 133.99410415 -295 138.375 C-294.8691427 145.56744979 -295.43490876 152.13603381 -297.65234375 159.02734375 C-298.32692988 162.85505157 -296.08284797 165.96046333 -294 169 C-290.73336058 172.83390016 -287.51333939 176.5140371 -282.4140625 177.5 C-279.68545241 177.55199648 -279.68545241 177.55199648 -276 177 C-275.75507813 177.61488281 -275.51015625 178.22976562 -275.2578125 178.86328125 C-272.99320623 183.97773196 -272.99320623 183.97773196 -268.546875 187.01953125 C-266.78381717 187.41905459 -265.01816818 187.80733177 -263.25 188.18359375 C-261 189 -261 189 -259.6875 190.72265625 C-258.875 192.6875 -258.875 192.6875 -258 196 C-256.35 195.67 -254.7 195.34 -253 195 C-253.33 196.32 -253.66 197.64 -254 199 C-254.66 199 -255.32 199 -256 199 C-255.505 201.475 -255.505 201.475 -255 204 C-254.01 204 -253.02 204 -252 204 C-250.6559907 205.99284138 -249.32458708 207.99419671 -248 210 C-244.55361461 213.65645383 -244.55361461 213.65645383 -240 215 C-239.67 213.35 -239.34 211.7 -239 210 C-240.1446875 209.6596875 -240.1446875 209.6596875 -241.3125 209.3125 C-244.80817551 207.60530964 -245.58696657 206.64413886 -247 203 C-247.50171663 197.92795846 -247.50076993 193.00754169 -245.9375 188.125 C-244.96035774 184.86785913 -245.02754084 183.20911522 -246 180 C-250.67482292 178.50405667 -255.35601989 178.45200663 -260 180 C-258.54577025 173.56828468 -256.87674489 168.25085473 -253.140625 162.79296875 C-251.58148876 160.34213472 -250.76645817 157.78712062 -250 155 C-250.66 154.67 -251.32 154.34 -252 154 C-256.32546787 156.42648198 -258.4093281 158.5380896 -261.0625 162.75 C-263.40382551 165.98653821 -264.33777615 166.88445977 -268.3359375 167.58203125 C-271.60179566 167.56432052 -274.75933324 167.39472783 -278 167 C-277.91864935 163.45742654 -277.80584824 159.9165153 -277.6875 156.375 C-277.66494141 155.37597656 -277.64238281 154.37695312 -277.61914062 153.34765625 C-277.35370086 146.06012808 -276.32339229 141.23564406 -271 136 C-270.36508604 134.56337265 -269.78433743 133.1019893 -269.25 131.625 C-267.2098494 126.88783212 -264.8247497 124.00217346 -260 122 C-255.60505885 121.28979088 -251.29632919 121.9259177 -247 123 C-247 122.34 -247 121.68 -247 121 C-247.66 121 -248.32 121 -249 121 C-249 120.34 -249 119.68 -249 119 C-247.86820313 119.144375 -246.73640625 119.28875 -245.5703125 119.4375 C-244.08854988 119.62506489 -242.60677859 119.81256134 -241.125 120 C-240.37863281 120.09539062 -239.63226563 120.19078125 -238.86328125 120.2890625 C-234.94392131 120.81016783 -234.94392131 120.81016783 -231 121 C-230.95101562 121.96421875 -230.90203125 122.9284375 -230.8515625 123.921875 C-230.73941406 125.81679687 -230.73941406 125.81679687 -230.625 127.75 C-230.55539063 129.00296875 -230.48578125 130.2559375 -230.4140625 131.546875 C-230.04676696 134.60998121 -229.60288714 136.41974266 -228 139 C-226.16754522 136.25131782 -225.65162808 135.07239879 -225.0703125 131.98046875 C-224.91433594 131.20509766 -224.75835937 130.42972656 -224.59765625 129.63085938 C-224.28501735 128.0146971 -223.9776373 126.39750777 -223.67578125 124.77929688 C-222.35156393 118.27125323 -220.38006507 113.42590679 -214.6875 109.5859375 C-213.46602596 108.83627747 -212.23663014 108.09938586 -211 107.375 C-205.00934515 103.80550743 -205.00934515 103.80550743 -200 99 C-199.13124876 95.52499505 -199 92.59524597 -199 89 C-198.34 89 -197.68 89 -197 89 C-196.67 88.34 -196.34 87.68 -196 87 C-195.46375 86.87625 -194.9275 86.7525 -194.375 86.625 C-189.81402825 85.42474428 -185.8928168 82.5952112 -182 80 C-180.989375 79.731875 -179.97875 79.46375 -178.9375 79.1875 C-177.4834375 78.5996875 -177.4834375 78.5996875 -176 78 C-175.56228271 76.79500854 -175.56228271 76.79500854 -175.11572266 75.56567383 C-174 73 -174 73 -171.84521484 71.69799805 C-170.54124756 71.23453979 -170.54124756 71.23453979 -169.2109375 70.76171875 C-168.26992187 70.41689453 -167.32890625 70.07207031 -166.359375 69.71679688 C-165.37453125 69.37712891 -164.3896875 69.03746094 -163.375 68.6875 C-162.38242188 68.32849609 -161.38984375 67.96949219 -160.3671875 67.59960938 C-157.91695678 66.71611272 -155.46183317 65.85051486 -153 65 C-154.32 66.98 -155.64 68.96 -157 71 C-151.01448228 69.49829538 -145.38744379 68.05773837 -140 65 C-140 64.34 -140 63.68 -140 63 C-140.7425 63.433125 -140.7425 63.433125 -141.5 63.875 C-144.91752035 65.41288416 -148.3506202 66.14847805 -152 67 C-151.95875 65.88625 -151.9175 64.7725 -151.875 63.625 C-151.58878141 59.95633975 -151.58878141 59.95633975 -154 58 C-152.68 57.67 -151.36 57.34 -150 57 C-150 56.34 -150 55.68 -150 55 C-154.27302345 56.33888068 -158.36140868 57.68070434 -162.375 59.6875 C-165 61 -165 61 -168 61 C-166.27430361 59.86968397 -164.54428261 58.74596893 -162.8125 57.625 C-161.84957031 56.99851563 -160.88664063 56.37203125 -159.89453125 55.7265625 C-154.37730447 52.43558512 -151.01611958 51.86623669 -144.5625 52.25 C-136.11782339 52.52171279 -129.22904925 50.46787856 -122 46 C-121.67 45.01 -121.34 44.02 -121 43 C-121.556875 42.608125 -122.11375 42.21625 -122.6875 41.8125 C-128.67158507 37.12227116 -131.06082223 33.23644388 -133 26 C-134.0725 26.515625 -135.145 27.03125 -136.25 27.5625 C-138.71477612 28.63240282 -139.72132303 29.03572782 -142.4375 28.6875 C-142.953125 28.460625 -143.46875 28.23375 -144 28 C-143.67 26.68 -143.34 25.36 -143 24 C-146.85984235 21.84566939 -149.56033708 20.44334502 -154 21 C-158.09318267 23.90579094 -161.51248563 27.34245114 -162.9375 32.1875 C-164.4449558 36.17782418 -166.97803545 36.81170975 -170.6875 38.63671875 C-173.75792249 40.44681579 -175.48900638 42.77006128 -177.6484375 45.55078125 C-179 47 -179 47 -181.875 47.9375 C-182.57625 47.958125 -183.2775 47.97875 -184 48 C-182.8905928 44.51329166 -181.73662334 41.22515763 -180 38 C-180.94875 37.731875 -181.8975 37.46375 -182.875 37.1875 C-186 36 -186 36 -188 33 C-189.485 32.505 -189.485 32.505 -191 32 C-188.03703362 26.76816264 -185.15607524 24.45196089 -179.8125 21.8125 C-178.81754517 21.30106445 -178.81754517 21.30106445 -177.80249023 20.77929688 C-172.99049703 18.3566062 -168.19495722 16.45823361 -163 15 C-163 14.34 -163 13.68 -163 13 C-161.35 13 -159.7 13 -158 13 C-158 13.66 -158 14.32 -158 15 C-158.99 15 -159.98 15 -161 15 C-161 15.99 -161 16.98 -161 18 C-159.35 17.67 -157.7 17.34 -156 17 C-156.33 15.35 -156.66 13.7 -157 12 C-154.98177083 11.83723958 -152.96354167 11.67447917 -150.9453125 11.51171875 C-148.60480784 11.12606964 -148.60480784 11.12606964 -147 8 C-149.31 8.66 -151.62 9.32 -154 10 C-153.67 8.35 -153.34 6.7 -153 5 C-153.70125 5.309375 -154.4025 5.61875 -155.125 5.9375 C-158.10737301 7.03968133 -160.85934517 7.54198784 -164 8 C-165.66804677 8.32635698 -167.33524314 8.65725594 -169 9 C-169 8.34 -169 7.68 -169 7 C-168.39671875 6.81824219 -167.7934375 6.63648438 -167.171875 6.44921875 C-161.14414802 4.58012094 -161.14414802 4.58012094 -156 1 C-158.89459136 -0.31297091 -158.89459136 -0.31297091 -161.3046875 0.85546875 Z M-129 1 C-129 1.66 -129 2.32 -129 3 C-130.2375 2.79375 -131.475 2.5875 -132.75 2.375 C-136.11909835 1.93892876 -138.12841921 1.96596361 -141 4 C-141.33 3.34 -141.66 2.68 -142 2 C-142.99 2.99 -143.98 3.98 -145 5 C-141.61981469 6.04005702 -138.5219721 6.08004482 -135 6 C-134.67 6.99 -134.34 7.98 -134 9 C-137.90102388 11.78644563 -141.38486888 13.68139111 -146 15 C-145.401875 15.268125 -144.80375 15.53625 -144.1875 15.8125 C-142 17 -142 17 -140.5 18.6875 C-139.7575 19.3371875 -139.7575 19.3371875 -139 20 C-136.83700789 19.77242269 -136.83700789 19.77242269 -135 19 C-135.33 18.34 -135.66 17.68 -136 17 C-134.02 17.33 -132.04 17.66 -130 18 C-130.33 16.02 -130.66 14.04 -131 12 C-130.278125 12.350625 -129.55625 12.70125 -128.8125 13.0625 C-125.66532752 14.11155749 -124.11750618 14.03916873 -121 13 C-120.67 12.34 -120.34 11.68 -120 11 C-121.65 10.34 -123.3 9.68 -125 9 C-124.67 7.68 -124.34 6.36 -124 5 C-124.99 4.67 -125.98 4.34 -127 4 C-127.66 3.01 -128.32 2.02 -129 1 Z M-52 13 C-47.43523727 16.04317515 -44.63989001 17.5999883 -39 17 C-37.12109566 15.62493901 -37.12109566 15.62493901 -36 14 C-39.46222615 12.93276039 -42.64039266 12.89826514 -46.25 12.9375 C-47.32765625 12.94652344 -48.4053125 12.95554687 -49.515625 12.96484375 C-50.74539063 12.98224609 -50.74539063 12.98224609 -52 13 Z M-4 28 C-3.07713876 31.13877099 -2.60173422 32.64701012 0.27734375 34.3359375 C1.59412109 34.85027344 1.59412109 34.85027344 2.9375 35.375 C6.53141777 37.00155761 8.50790356 37.93480935 9.9375 41.6875 C10.288125 42.780625 10.63875 43.87375 11 45 C14.60752884 47.40501922 16.45356758 48.24602334 20.75 47.5625 C21.4925 47.376875 22.235 47.19125 23 47 C22.99003516 45.10941853 22.99003516 45.10941853 22 43 C19.86022282 41.55661762 17.8406486 40.36507655 15.5625 39.1875 C10.0494459 36.20915094 4.93351825 32.99042413 -0.109375 29.25 C-1.90030732 27.81616189 -1.90030732 27.81616189 -4 28 Z M-3 37 C-3.33 37.99 -3.66 38.98 -4 40 C-2.12821884 43.18288354 -2.12821884 43.18288354 0 46 C1.32 45.34 2.64 44.68 4 44 C3.61402985 41.20171644 3.19863427 40.1794116 1.0625 38.25 C-0.88311217 36.82723276 -0.88311217 36.82723276 -3 37 Z M-127 51 C-128.98 53.31 -130.96 55.62 -133 58 C-131.23103898 58.36340286 -129.45973374 58.71540883 -127.6875 59.0625 C-126.70136719 59.25972656 -125.71523437 59.45695312 -124.69921875 59.66015625 C-121.90723539 60.20922216 -121.90723539 60.20922216 -119 59 C-119 58.34 -119 57.68 -119 57 C-118.34 56.67 -117.68 56.34 -117 56 C-117.82201984 53.80882227 -117.82201984 53.80882227 -120.06640625 53.1484375 C-120.89011719 52.89320312 -121.71382812 52.63796875 -122.5625 52.375 C-123.38878906 52.11460938 -124.21507812 51.85421875 -125.06640625 51.5859375 C-126.02353516 51.29589844 -126.02353516 51.29589844 -127 51 Z M-119 59 C-119 59.66 -119 60.32 -119 61 C-118.34 61 -117.68 61 -117 61 C-117 60.34 -117 59.68 -117 59 C-117.66 59 -118.32 59 -119 59 Z M92 59 C92 59.66 92 60.32 92 61 C92.66 60.67 93.32 60.34 94 60 C93.34 59.67 92.68 59.34 92 59 Z M65 67 C65.33 67.66 65.66 68.32 66 69 C66.66 68.67 67.32 68.34 68 68 C67.01 67.67 66.02 67.34 65 67 Z M76 74 C78.12780579 76.34058637 80.11562221 77.70700306 83 79 C83.33 78.34 83.66 77.68 84 77 C80.19572508 74.7986134 80.19572508 74.7986134 76 74 Z M64 78 C64.99 79.65 65.98 81.3 67 83 C67.33 82.34 67.66 81.68 68 81 C67.34 80.01 66.68 79.02 66 78 C65.34 78 64.68 78 64 78 Z M-195 87 C-195 90 -195 90 -195 90 Z M86 86 C85.01 86.66 84.02 87.32 83 88 C85.475 88.99 85.475 88.99 88 90 C87.34 88.68 86.68 87.36 86 86 Z M100 73 C98.43637654 75.59874294 98.43637654 75.59874294 98 79 C100.63537244 83.82459916 105.19474895 87.49726508 110 90 C110.96550781 89.90589844 111.93101562 89.81179687 112.92578125 89.71484375 C116 90 116 90 118.23046875 92.6328125 C118.90546542 93.78388737 119.55723106 94.9488389 120.1875 96.125 C120.84105469 97.26195313 121.49460937 98.39890625 122.16796875 99.5703125 C123.83386901 102.68899145 125.44203987 105.82619886 127 109 C125.68 109.33 124.36 109.66 123 110 C123 110.66 123 111.32 123 112 C118.05 109.69 113.1 107.38 108 105 C108.495 109.95 108.495 109.95 109 115 C107.22545177 114.23775772 105.455478 113.46485997 103.6875 112.6875 C102.70136719 112.25824219 101.71523438 111.82898438 100.69921875 111.38671875 C98 110 98 110 96.5234375 108.44140625 C94.29085881 106.32904334 91.88596138 106.00950645 88.9375 105.25 C85.6796875 104.23046875 85.6796875 104.23046875 83 103 C81.5625 99.5625 81.5625 99.5625 81 96 C79.02033737 92.93692369 79.02033737 92.93692369 76 91 C69.04465965 90.02381188 59.85650003 91.29663166 54.02734375 95.3828125 C53.48207031 95.85460937 52.93679688 96.32640625 52.375 96.8125 C50.1205394 98.69214954 49.3531819 99.01669397 46.35546875 98.875 C43.84880025 98.37016047 41.4372548 97.76991751 39 97 C38.81824219 97.54269531 38.63648438 98.08539063 38.44921875 98.64453125 C38.19785156 99.35996094 37.94648438 100.07539062 37.6875 100.8125 C37.44386719 101.52019531 37.20023437 102.22789063 36.94921875 102.95703125 C36 105 36 105 34.37890625 106.3359375 C32.17884503 108.99096889 32.97969309 111.47278701 33.25 114.8125 C33.42621273 121.40014505 33.42621273 121.40014505 31.5234375 124.078125 C29.625 125.5625 29.625 125.5625 27.6796875 126.859375 C25.22970109 128.5230867 24.78523616 130.1862371 24 133 C23.52785224 134.46062086 23.04792114 135.91873659 22.5625 137.375 C22.31371094 138.16003906 22.06492187 138.94507813 21.80859375 139.75390625 C21 142 21 142 19.125 145.3125 C17.15702127 151.76309694 19.92903238 157.78709713 22 164 C22.0467035 165.35336356 22.03854859 166.70912467 21.9921875 168.0625 C21.97349609 168.85487061 21.95480469 169.64724121 21.93554688 170.46362305 C21.91556641 171.30062744 21.89558594 172.13763184 21.875 173 C21.7678924 180.43904551 22.34398352 186.96471824 25 194 C25.99 194 26.98 194 28 194 C29.71875 195.609375 29.71875 195.609375 31.5 197.75 C32.38171875 198.79414063 32.38171875 198.79414063 33.28125 199.859375 C37.75 205.425 37.75 205.425 39.25 208.875 C41.52587666 212.93906547 44.36912605 215.16512534 48 218 C48.7528125 218.62648437 49.505625 219.25296875 50.28125 219.8984375 C51.0546875 220.53007812 51.828125 221.16171875 52.625 221.8125 C53.33914063 222.39644531 54.05328125 222.98039063 54.7890625 223.58203125 C57.3191191 225.20466472 59.00229403 225.79246651 62 226 C63.6719465 225.34668757 65.3384708 224.67936952 67 224 C68.93997208 224.03557072 70.87933878 224.14623325 72.8125 224.3125 C79.6714337 224.48455991 84.54443695 222.4554697 90.53051758 219.40161133 C93.42540053 217.95581073 95.55552001 216.99016365 98.82421875 217.0625 C102.55570608 218.67032219 103.25532228 221.44602686 105 225 C106.27875 224.95875 107.5575 224.9175 108.875 224.875 C111.0546875 224.8046875 111.0546875 224.8046875 113 225 C116.0064006 228.0064006 115.97096278 230.24332416 116.1328125 234.4609375 C116.13023437 235.75257813 116.12765625 237.04421875 116.125 238.375 C116.12886719 240.30472656 116.12886719 240.30472656 116.1328125 242.2734375 C116 246 116 246 115.28515625 249.03125 C114.89794786 253.06246068 116.45617539 255.68381139 118.3125 259.125 C124.35192033 271.27814454 126.48625052 285.62052332 122.07666016 298.74902344 C119.93290781 304.24069431 117.50386892 309.58850381 114.92382812 314.88793945 C113.29061517 318.6217992 112.88244091 321.84235979 112.859375 325.90234375 C112.64003257 339.07501386 111.1285098 350.99761937 107.61132812 363.68994141 C106.79595529 366.77103475 106.1418763 369.87869562 105.50610352 373.0012207 C104.98688968 375.05177724 104.26012292 376.83176182 103.375 378.75 C102.0287805 381.93197336 101.8741364 383.63600923 102 387 C116.23888085 384.14627858 123.45986511 373.77798493 131.18945312 362.22167969 C133.4755541 358.75163862 135.72070269 355.25679881 137.91186523 351.72583008 C138.64410842 350.56445986 139.39681311 349.41576837 140.16821289 348.2800293 C144.31803278 342.0317538 147.10547508 335.23264854 149.9375 328.3125 C150.20145569 327.67139282 150.46541138 327.03028564 150.73736572 326.36975098 C155.35149269 315.1137547 159.10871361 303.81976393 162 292 C162.26006836 290.9466748 162.52013672 289.89334961 162.78808594 288.80810547 C164.33689398 282.50432903 165.8473114 276.19246557 167.31738281 269.86987305 C167.85115627 267.62577184 168.4452598 265.39600045 169.06225586 263.17333984 C170.10844625 258.98558952 170.30537397 255.01674274 170.30078125 250.71484375 C170.30638062 249.94487564 170.31197998 249.17490753 170.31774902 248.38160706 C170.32959922 245.90003584 170.32341188 243.41907005 170.3125 240.9375 C170.31067719 240.08752441 170.30885437 239.23754883 170.30697632 238.36181641 C170.22954096 216.93618322 167.36668146 196.74421364 162 176 C161.79036621 175.17999512 161.58073242 174.35999023 161.36474609 173.51513672 C152.54242256 139.78112518 135.65957849 109.11106024 114 82 C113.360625 81.15824219 112.72125 80.31648438 112.0625 79.44921875 C108.43136379 74.85077213 108.43136379 74.85077213 103.0625 73 C102.051875 73 101.04125 73 100 73 Z M-298 125 C-297 127 -297 127 -297 127 Z M-299 128 C-299.33 130.97 -299.66 133.94 -300 137 C-299.67 137 -299.34 137 -299 137 C-298.67 134.03 -298.34 131.06 -298 128 C-298.33 128 -298.66 128 -299 128 Z M-236 149 C-234.68 149.33 -233.36 149.66 -232 150 C-232 150.99 -232 151.98 -232 153 C-226.06 155.475 -226.06 155.475 -220 158 C-220 158.99 -220 159.98 -220 161 C-217.03 161 -214.06 161 -211 161 C-216.83698049 154.78644013 -225.16074248 149.25388076 -233.875 148.875 C-234.926875 148.936875 -234.926875 148.936875 -236 149 Z M-206 162 C-205.34 163.98 -204.68 165.96 -204 168 C-205.65 168 -207.3 168 -209 168 C-209 168.33 -209 168.66 -209 169 C-207.741875 169.37125 -206.48375 169.7425 -205.1875 170.125 C-204.47980469 170.33382812 -203.77210938 170.54265625 -203.04296875 170.7578125 C-200.68854587 171.26093748 -200.68854587 171.26093748 -198 169 C-196.0103005 168.60986284 -194.00980131 168.26797351 -192 168 C-192.57944932 166.00136244 -192.57944932 166.00136244 -194 164 C-198.07913567 162.14584742 -201.5528265 161.78822983 -206 162 Z M-184 168 C-183.67 168.66 -183.34 169.32 -183 170 C-182.34 170 -181.68 170 -181 170 C-181 169.34 -181 168.68 -181 168 C-181.99 168 -182.98 168 -184 168 Z M-213.5546875 199.58984375 C-216 201 -216 201 -219 202 C-220.68749704 204.54672255 -220.68749704 204.54672255 -222.1875 207.5625 C-222.71730469 208.57441406 -223.24710938 209.58632812 -223.79296875 210.62890625 C-224.39044922 211.80259766 -224.39044922 211.80259766 -225 213 C-226.98 211.35 -228.96 209.7 -231 208 C-231.99 208.495 -231.99 208.495 -233 209 C-232.71125 209.55945313 -232.4225 210.11890625 -232.125 210.6953125 C-228.7457316 217.99359356 -227.48269847 225.02743336 -229 233 C-230.74286556 236.18787418 -232.70395151 238.8068966 -235.0234375 241.59765625 C-238.42983781 245.73784635 -240.55069177 250.60830121 -241 256 C-240.34 256.99 -239.68 257.98 -239 259 C-238.34 259 -237.68 259 -237 259 C-237.30035156 259.73605469 -237.60070312 260.47210938 -237.91015625 261.23046875 C-238.29042969 262.20628906 -238.67070312 263.18210937 -239.0625 264.1875 C-239.44535156 265.15042969 -239.82820313 266.11335938 -240.22265625 267.10546875 C-241.0861976 270.32096692 -241.09545489 271.87592493 -240 275 C-238.43348594 277.186314 -238.43348594 277.186314 -236.4375 279.3125 C-232.83085836 283.62885645 -230.3003947 287.96946471 -227.875 293 C-227.54040771 293.69125977 -227.20581543 294.38251953 -226.86108398 295.09472656 C-226.20859877 296.44553604 -225.55664454 297.79660216 -224.90527344 299.14794922 C-219.86081769 309.46813295 -214.15810376 315.56189775 -204.3125 321.4375 C-198.24316155 325.1666497 -195.23144051 329.30567847 -193 336 C-192.81927532 338.28917934 -192.67931198 340.58167088 -192.5625 342.875 C-192.21559013 349.03021516 -191.47397927 355.01984022 -190.40234375 361.09765625 C-190 364 -190 364 -190.03125 367.04296875 C-189.9991642 370.07908718 -189.48575218 372.36980661 -188.5625 375.25 C-188.29566406 376.10078125 -188.02882812 376.9515625 -187.75390625 377.828125 C-187.04914624 380.00935483 -187.04914624 380.00935483 -186 382 C-185.97475934 383.37110873 -186.0099613 384.74363533 -186.078125 386.11328125 C-186.45711773 396.96510633 -186.033891 405.14795618 -181 415 C-180.67 414.34 -180.34 413.68 -180 413 C-179.67 413.66 -179.34 414.32 -179 415 C-178.34 415 -177.68 415 -177 415 C-176.12109375 421.15234375 -176.12109375 421.15234375 -176 423 C-176.33 423.33 -176.66 423.66 -177 424 C-177.04080783 425.99958364 -177.04254356 428.00045254 -177 430 C-175.68 430.33 -174.36 430.66 -173 431 C-173.268125 431.680625 -173.53625 432.36125 -173.8125 433.0625 C-174.05997549 436.93961607 -172.72474177 438.48223198 -170.51953125 441.546875 C-168.72109732 443.26671413 -167.38946009 443.47560503 -165 444 C-164.29848848 445.3153341 -163.63474075 446.65117592 -163 448 C-159.72233735 451.27766265 -156.51361077 451.56599896 -152 452 C-152.99 450.35 -153.98 448.7 -155 447 C-154.01 446.67 -153.02 446.34 -152 446 C-152.309375 445.195625 -152.309375 445.195625 -152.625 444.375 C-153.1351473 441.14406708 -152.15725127 439.02171164 -151 436 C-150.67 435.01 -150.34 434.02 -150 433 C-151.98 432.01 -153.96 431.02 -156 430 C-156 429.01 -156 428.02 -156 427 C-155.525625 426.54625 -155.05125 426.0925 -154.5625 425.625 C-152.47320368 423.45213182 -152.14593847 421.99173871 -152 419 C-153.32337286 416.84659471 -153.32337286 416.84659471 -155 415 C-155.33 414.01 -155.66 413.02 -156 412 C-153.36 412.33 -150.72 412.66 -148 413 C-146.64973223 410.87060172 -146.64973223 410.87060172 -147.9375 407.875 C-148.288125 406.92625 -148.63875 405.9775 -149 405 C-148.26394531 405.03480469 -147.52789062 405.06960938 -146.76953125 405.10546875 C-140.65940601 405.29127255 -140.65940601 405.29127255 -134.8125 403.75 C-134.214375 403.1725 -133.61625 402.595 -133 402 C-133 397.6504455 -133.17134666 397.32990263 -135.9375 394.375 C-138.93556701 391.12886598 -138.93556701 391.12886598 -140 389 C-139.360625 389.33 -138.72125 389.66 -138.0625 390 C-133.99266398 391.32892605 -130.24275563 391.67163313 -126 391 C-123.77813322 389.05586656 -123.1634529 387.8717488 -122.625 385 C-122 383 -122 383 -119.875 381.375 C-113.78021011 376.34017357 -110.06163771 370.50035014 -108.5 362.75 C-107.43593617 357.80336996 -106.29148185 355.20343404 -102.15625 352.2421875 C-96.6622896 349.07718858 -91.4006199 346.30484062 -85.0625 345.5 C-81.88400733 345.2806717 -81.88400733 345.2806717 -79.875 342.9375 C-79.25625 341.968125 -78.6375 340.99875 -78 340 C-77.5771875 339.3503125 -77.154375 338.700625 -76.71875 338.03125 C-72.22217185 331.12129764 -72.22217185 331.12129764 -70.47265625 323.19140625 C-70.40240234 322.27939453 -70.33214844 321.36738281 -70.25976562 320.42773438 C-70.12854107 318.52173018 -70.00092064 316.61547433 -69.87695312 314.70898438 C-69.23455304 306.50825532 -67.02433704 302.73770783 -61.0625 297 C-53.50087232 289.86269232 -53.50087232 289.86269232 -50.98828125 280.2109375 C-51.00639887 276.79274651 -51.15111832 274.94451527 -53 272 C-55.41141507 270.81208889 -57.84808656 269.94500142 -60.390625 269.07421875 C-63.7344789 267.69763219 -65.95577958 265.76527534 -68.52734375 263.26953125 C-71.41992922 260.77592309 -74.72437241 260.78004814 -78.375 260.5 C-81.22409763 260.28023489 -83.91307525 260.01894031 -86.70703125 259.41015625 C-89.50202723 258.91019956 -90.64086966 259.51462164 -93 261 C-93.185625 260.071875 -93.37125 259.14375 -93.5625 258.1875 C-94.75663103 254.74845301 -94.75663103 254.74845301 -98.125 253.0625 C-102.29629303 251.55205284 -105.70745692 252.17161449 -110 253 C-110.061875 252.401875 -110.12375 251.80375 -110.1875 251.1875 C-110.80091009 248.77173113 -110.80091009 248.77173113 -113.30078125 247.85546875 C-117.04828249 245.27940061 -118.19239375 242.20313606 -120 238.125 C-123.1327806 231.13355062 -126.377552 225.47641802 -133.91015625 222.4765625 C-136.52498197 221.88028449 -138.88496392 221.96804147 -141.5625 222.0625 C-146.61572031 222.19384225 -149.14133404 221.49117396 -153 218 C-153.86908704 216.97074888 -154.72318166 215.92866734 -155.5625 214.875 C-158.091817 211.89170303 -159.4731432 211.33448636 -163 210 C-163.66666667 208.66666667 -164.33333333 207.33333333 -165 206 C-167.82663841 203.31831741 -169.77606848 201.99650305 -173.734375 202.0078125 C-175.66523842 202.20702857 -177.59229604 202.4489077 -179.51171875 202.73828125 C-182 203 -182 203 -185 202 C-186.39439664 201.93334624 -187.79169875 201.91461801 -189.1875 201.9375 C-190.445625 201.958125 -191.70375 201.97875 -193 202 C-193.2475 201.38125 -193.495 200.7625 -193.75 200.125 C-195.20628639 197.64931313 -196.37812506 197.04874998 -199 196 C-199 196.99 -199 197.98 -199 199 C-200.65 199.66 -202.3 200.32 -204 201 C-204 203.31 -204 205.62 -204 208 C-204.99 207.67 -205.98 207.34 -207 207 C-206.34 203.04 -205.68 199.08 -205 195 C-207.80301272 195 -211.22522673 198.15345613 -213.5546875 199.58984375 Z M-180 417 C-179 419 -179 419 -179 419 Z M-150 449 C-150.33 450.32 -150.66 451.64 -151 453 C-147.37 453 -143.74 453 -140 453 C-143.33810482 451.33094759 -146.46157845 450.1258614 -150 449 Z M-117.625 473 C-118.85089844 473.2784375 -118.85089844 473.2784375 -120.1015625 473.5625 C-120.72804687 473.706875 -121.35453125 473.85125 -122 474 C-122 475.32 -122 476.64 -122 478 C-122.99 478.495 -122.99 478.495 -124 479 C-123.01 479.33 -122.02 479.66 -121 480 C-121 480.99 -121 481.98 -121 483 C-122.65 483 -124.3 483 -126 483 C-123.22739701 484.93798263 -123.22739701 484.93798263 -121 486 C-128.26 486 -135.52 486 -143 486 C-138.15643361 489.99347848 -138.15643361 489.99347848 -132.71875 491.23046875 C-131.71070313 491.39353516 -130.70265625 491.55660156 -129.6640625 491.72460938 C-128.61992187 491.87736328 -127.57578125 492.03011719 -126.5 492.1875 C-125.48679688 492.35185547 -124.47359375 492.51621094 -123.4296875 492.68554688 C-110.64842375 494.68363051 -97.9186368 495.20762191 -85 495.1875 C-84.27866882 495.18689575 -83.55733765 495.1862915 -82.81414795 495.18566895 C-54.80334788 495.12226636 -29.82020649 489.79149171 -3 482 C-3 481.67 -3 481.34 -3 481 C-22.79153564 479.85868714 -40.95487092 483.38305273 -60.0703125 488.2890625 C-73.75146445 491.7376666 -90.38302797 493.87654606 -104 489 C-106.1875 486.6875 -106.1875 486.6875 -108 484 C-109.01789875 483.11764391 -110.06125411 482.2640076 -111.125 481.4375 C-113.67675529 479.2740553 -114.86489475 478.06478417 -116 475 C-114.35 474.67 -112.7 474.34 -111 474 C-111 473.34 -111 472.68 -111 472 C-113.33818679 472 -115.34566188 472.47900843 -117.625 473 Z " fill="#08524d" transform="translate(340,14)"/>
<path d="M0 0 C1 1 1 1 1.0625 4.0625 C1.041875 5.031875 1.02125 6.00125 1 7 C3.475 7.495 3.475 7.495 6 8 C6.33 9.65 6.66 11.3 7 13 C6.13375 13.12375 6.13375 13.12375 5.25 13.25 C2.3840696 14.20531013 1.0009236 15.78469173 -1 18 C-1.99 17.67 -2.98 17.34 -4 17 C-5.24546405 14.50907189 -4.7767578 13.58919267 -4 11 C-5.26457031 12.299375 -5.26457031 12.299375 -6.5546875 13.625 C-7.66119357 14.75026041 -8.76797888 15.87524628 -9.875 17 C-10.43058594 17.57234375 -10.98617187 18.1446875 -11.55859375 18.734375 C-13.00134404 20.19450782 -14.4974374 21.60149298 -16 23 C-16.66 23 -17.32 23 -18 23 C-17.55330608 18.08636685 -15.39398522 14.47990889 -12 11 C-9.68222489 9.63236873 -7.57515931 8.85838644 -5 8 C-5.886875 7.855625 -6.77375 7.71125 -7.6875 7.5625 C-10.47117646 7.08980022 -13.23483757 6.56929815 -16 6 C-12.02427974 1.08881616 -6.11505713 -0.58238639 0 0 Z " fill="#08524d" transform="translate(138,69)"/>
<path d="M0 0 C4.32911773 3.91462773 6.99474357 8.00539818 9.75 13.125 C10.39026123 14.3011084 10.39026123 14.3011084 11.04345703 15.50097656 C25.73731069 42.80737077 25.73731069 42.80737077 28 56 C27.67 56.99 27.34 57.98 27 59 C24.21569288 53.11473908 21.48268592 47.22623913 19.01953125 41.19921875 C14.64827954 30.56595137 9.77497484 20.59504923 3.81005859 10.75195312 C3.3145752 9.92501953 2.8190918 9.09808594 2.30859375 8.24609375 C1.86314209 7.52091553 1.41769043 6.7957373 0.95874023 6.04858398 C0 4 0 4 0 0 Z " fill="#08524d" transform="translate(473,136)"/>
<path d="M0 0 C2.97 0 5.94 0 9 0 C8.67 0.99 8.34 1.98 8 3 C6.9275 3.103125 5.855 3.20625 4.75 3.3125 C1.10883911 3.68450606 1.10883911 3.68450606 -0.90625 5.46875 C-3.3735247 7.27317478 -5.2547463 7.67515397 -8.25 8.1875 C-9.14203125 8.34605469 -10.0340625 8.50460938 -10.953125 8.66796875 C-11.62859375 8.77753906 -12.3040625 8.88710937 -13 9 C-13 6 -13 6 -11 4 C-8.8359375 3.8046875 -8.8359375 3.8046875 -6.375 3.875 C-5.14910156 3.90207031 -5.14910156 3.90207031 -3.8984375 3.9296875 C-2.95871094 3.96449219 -2.95871094 3.96449219 -2 4 C-1.34 2.68 -0.68 1.36 0 0 Z " fill="#08524d" transform="translate(144,84)"/>
<path d="M0 0 C0.33 0 0.66 0 1 0 C1.11622939 3.74973906 1.1872595 7.49901464 1.25 11.25 C1.28351563 12.31347656 1.31703125 13.37695312 1.3515625 14.47265625 C1.36445313 15.49746094 1.37734375 16.52226562 1.390625 17.578125 C1.41157227 18.52075195 1.43251953 19.46337891 1.45410156 20.43457031 C0.87271731 23.71907875 -0.49259159 24.89169466 -3 27 C-2.49396008 24.83125748 -2.00016187 23.00032373 -1 21 C-0.92822611 19.57457046 -0.91607603 18.14582459 -0.9375 16.71875 C-0.94523437 15.87699219 -0.95296875 15.03523438 -0.9609375 14.16796875 C-0.98027344 12.84732422 -0.98027344 12.84732422 -1 11.5 C-1.02546884 9.76047836 -1.04651561 8.02088465 -1.0625 6.28125 C-1.07410156 5.50845703 -1.08570313 4.73566406 -1.09765625 3.93945312 C-1 2 -1 2 0 0 Z " fill="#08524d" transform="translate(496,271)"/>
<path d="M0 0 C-0.50740462 4.39750672 -3.08293314 6.86948922 -6 10 C-6.66 10 -7.32 10 -8 10 C-7.49396008 7.83125748 -7.00016187 6.00032373 -6 4 C-6.66 4 -7.32 4 -8 4 C-7.67 3.01 -7.34 2.02 -7 1 C-4.53721199 -0.231394 -2.7204945 -0.07159196 0 0 Z " fill="#08524d" transform="translate(131,54)"/>
<path d="M0 0 C0.66 0 1.32 0 2 0 C2.56359649 9.58114035 2.56359649 9.58114035 -1 14 C-1.33 14 -1.66 14 -2 14 C-2.05437607 12.41705218 -2.09296271 10.83355744 -2.125 9.25 C-2.14820313 8.36828125 -2.17140625 7.4865625 -2.1953125 6.578125 C-1.99139502 3.8864142 -1.36551721 2.30095026 0 0 Z " fill="#08524d" transform="translate(501,254)"/>
<path d="M0 0 C0.66 0.33 1.32 0.66 2 1 C1.88534579 3.22972273 1.75785234 5.45878753 1.625 7.6875 C1.55539062 8.92886719 1.48578125 10.17023438 1.4140625 11.44921875 C1.03577906 14.69317772 0.38020024 17.06567185 -1 20 C-1.33 20 -1.66 20 -2 20 C-1.47594437 13.30992818 -0.89536075 6.6512513 0 0 Z " fill="#08524d" transform="translate(498,298)"/>
<path d="M0 0 C5.08938811 1.59043379 8.87456643 4.7446951 13 8 C9.18008284 8 7.88692091 6.76738773 4.8125 4.5625 C3.91144531 3.92441406 3.01039063 3.28632812 2.08203125 2.62890625 C1.39496094 2.09136719 0.70789063 1.55382813 0 1 C0 0.67 0 0.34 0 0 Z " fill="#08524d" transform="translate(392,40)"/>
<path d="M0 0 C0 0.66 0 1.32 0 2 C-2.31 2.66 -4.62 3.32 -7 4 C-6.67 3.01 -6.34 2.02 -6 1 C-4 0 -4 0 0 0 Z " fill="#08524d" transform="translate(202,53)"/>
<path d="M0 0 C0 0.66 0 1.32 0 2 C-1.8125 3.0625 -1.8125 3.0625 -4 4 C-4.99 3.67 -5.98 3.34 -7 3 C-3.375 0 -3.375 0 0 0 Z " fill="#08524d" transform="translate(142,33)"/>
<path d="M0 0 C-1.8125 1.0625 -1.8125 1.0625 -4 2 C-4.99 1.67 -5.98 1.34 -7 1 C-3.375 -1.125 -3.375 -1.125 0 0 Z " fill="#08524d" transform="translate(137,40)"/>
<path d="M0 0 C0.66 0 1.32 0 2 0 C1.67 1.32 1.34 2.64 1 4 C0.34 4 -0.32 4 -1 4 C-0.67 2.68 -0.34 1.36 0 0 Z " fill="#08524d" transform="translate(136,64)"/>
<path d="M0 0 C0.99 0.33 1.98 0.66 3 1 C1.35 1.66 -0.3 2.32 -2 3 C-2 2.34 -2 1.68 -2 1 C-1.34 0.67 -0.68 0.34 0 0 Z " fill="#08524d" transform="translate(210,54)"/>
<path d="M0 0 C0.33 1.32 0.66 2.64 1 4 C0.01 4.495 0.01 4.495 -1 5 C-0.67 3.35 -0.34 1.7 0 0 Z " fill="#08524d" transform="translate(499,246)"/>
<path d="M0 0 C0.66 0.33 1.32 0.66 2 1 C0.68 1.99 -0.64 2.98 -2 4 C-2 3.01 -2 2.02 -2 1 C-1.34 0.67 -0.68 0.34 0 0 Z " fill="#08524d" transform="translate(172,62)"/>
<path d="M0 0 C0.99 0 1.98 0 3 0 C3 0.66 3 1.32 3 2 C1.68 2.33 0.36 2.66 -1 3 C-0.67 2.01 -0.34 1.02 0 0 Z " fill="#08524d" transform="translate(205,25)"/>
<path d="M0 0 C0.66 0 1.32 0 2 0 C1.67 0.99 1.34 1.98 1 3 C0.34 3 -0.32 3 -1 3 C-0.67 2.01 -0.34 1.02 0 0 Z " fill="#08524d" transform="translate(120,62)"/>
<path d="M0 0 C1.32 0.33 2.64 0.66 4 1 C2.68 1.33 1.36 1.66 0 2 C0 1.34 0 0.68 0 0 Z " fill="#08524d" transform="translate(168,54)"/>
<path d="M0 0 C0.66 0 1.32 0 2 0 C2 0.99 2 1.98 2 3 C1.34 3 0.68 3 0 3 C0 2.01 0 1.02 0 0 Z " fill="#08524d" transform="translate(496,256)"/>
<path d="M0 0 C0.66 0 1.32 0 2 0 C2 0.66 2 1.32 2 2 C1.01 1.67 0.02 1.34 -1 1 C-0.67 0.67 -0.34 0.34 0 0 Z " fill="#08524d" transform="translate(491,323)"/>
<path d="M0 0 C0.66 0 1.32 0 2 0 C2 0.66 2 1.32 2 2 C1.34 2 0.68 2 0 2 C0 1.34 0 0.68 0 0 Z " fill="#08524d" transform="translate(182,462)"/>
<path d="M0 0 C0.99 0.33 1.98 0.66 3 1 C2.01 1 1.02 1 0 1 C0 0.67 0 0.34 0 0 Z " fill="#08524d" transform="translate(405,49)"/>
<path d="M0 0 C0.99 0.33 1.98 0.66 3 1 C2.01 1.33 1.02 1.66 0 2 C0 1.34 0 0.68 0 0 Z " fill="#08524d" transform="translate(126,48)"/>
<path d="M0 0 C0.33 0.66 0.66 1.32 1 2 C0.34 1.67 -0.32 1.34 -1 1 C-0.67 0.67 -0.34 0.34 0 0 Z " fill="#08524d" transform="translate(148,76)"/>
<path d="M0 0 C0.66 0 1.32 0 2 0 C1.67 0.66 1.34 1.32 1 2 C0.67 1.34 0.34 0.68 0 0 Z " fill="#08524d" transform="translate(178,48)"/>
<path d="M0 0 C0.33 0.66 0.66 1.32 1 2 C0.34 1.67 -0.32 1.34 -1 1 C-0.67 0.67 -0.34 0.34 0 0 Z " fill="#08524d" transform="translate(202,28)"/>
<path d="M0 0 C2 1 2 1 2 1 Z " fill="#08524d" transform="translate(166,388)"/>
<path d="" fill="#08524d" transform="translate(0,0)"/>
<path d="M0 0 C2 1 2 1 2 1 Z " fill="#08524d" transform="translate(77,194)"/>
<path d="M0 0 C2 1 2 1 2 1 Z " fill="#08524d" transform="translate(185,62)"/>
<path d="" fill="#08524d" transform="translate(0,0)"/>
</svg>