<svg version="1.1" xmlns="http://www.w3.org/2000/svg" width="512px" height="512px" transform="rotate(0) scale(1, 1)">
<path d="M0 0 C0.89358215 0.00021149 1.78716431 0.00042297 2.70782471 0.00064087 C24.78102337 0.05251591 46.06429192 2.77484394 67.1875 9.375 C67.98140137 9.62088867 68.77530273 9.86677734 69.59326172 10.12011719 C95.15813834 18.19110418 123.92010517 31.10760517 143.1875 50.375 C143.13218009 53.15898884 143.0109583 55.909858 142.83984375 58.6875 C142.79093491 59.53981201 142.74202606 60.39212402 142.69163513 61.27026367 C142.19117896 69.77417537 141.5758553 78.26974228 140.9437561 86.76470947 C139.46967924 106.6235361 138.24942064 126.49020234 137.1875 146.375 C136.01755493 146.05776978 136.01755493 146.05776978 134.82397461 145.73413086 C119.78707601 141.79057659 106.60855195 142.44645278 92.5 149.5625 C79.85846982 157.18459908 71.95186446 168.17573926 68.1875 182.375 C65.55815155 196.65408938 68.5868499 209.11822646 76.1875 221.375 C83.95993766 232.04051168 94.75244311 238.74884402 107.53125 241.96484375 C116.16747092 243.29837786 124.95839241 243.11169984 133.13671875 239.93359375 C135.1875 239.375 135.1875 239.375 139.1875 240.375 C140.1775 255.225 141.1675 270.075 142.1875 285.375 C134.7625 287.355 134.7625 287.355 127.1875 289.375 C97.83906252 298.70498362 75.70904577 317.76633823 61.59472656 345.03051758 C51.44787457 365.58752595 47.90371405 387.93059049 48.2265625 410.69140625 C48.03698697 423.71524548 43.36715226 434.95006098 34.390625 444.40625 C19.84875457 457.40111294 2.57203419 457.07809125 -15.8125 456.375 C-59.05321017 453.65438389 -101.03248326 438.12010697 -135.8125 412.375 C-136.36180176 411.96846191 -136.91110352 411.56192383 -137.47705078 411.14306641 C-163.77416613 391.51198144 -184.04280667 367.45232867 -200.8125 339.375 C-201.38460205 338.41907959 -201.38460205 338.41907959 -201.96826172 337.44384766 C-215.53240583 314.39918604 -223.42255705 287.615884 -227.8125 261.375 C-227.93109375 260.69985352 -228.0496875 260.02470703 -228.171875 259.32910156 C-236.02500329 212.74789714 -227.05267039 161.73799472 -204.8125 120.375 C-204.29945313 119.38371094 -203.78640625 118.39242187 -203.2578125 117.37109375 C-194.48107273 100.69528818 -182.81648258 85.92610136 -169.8125 72.375 C-169.22726563 71.7572168 -168.64203125 71.13943359 -168.0390625 70.50292969 C-158.38178042 60.3497602 -148.27908342 51.43417339 -136.8125 43.375 C-136.1417041 42.90255859 -135.4709082 42.43011719 -134.77978516 41.94335938 C-95.22463192 14.46516208 -48.05594064 -0.10559903 0 0 Z M-4.8125 62.375 C-5.44800781 62.81457031 -6.08351562 63.25414062 -6.73828125 63.70703125 C-15.26902327 70.27059551 -19.77750493 80.3073013 -22.8125 90.375 C-23.00457031 90.97441406 -23.19664062 91.57382813 -23.39453125 92.19140625 C-26.07021197 106.16996256 -22.98277832 119.27370838 -15.3671875 131.1328125 C-7.32496192 142.73139914 3.53885726 149.57121071 17.3125 152.625 C31.24743217 155.05223546 43.22396702 151.63361688 55.1875 144.375 C66.59288889 136.12396254 74.37538346 124.15442852 76.71875 110.21484375 C78.17427555 96.33773087 75.28061749 82.88513544 66.875 71.5625 C58.219265 61.24650549 47.60862223 54.56689182 34.1875 52.375 C19.65802494 51.14926239 7.2956605 53.86714209 -4.8125 62.375 Z M-115.8125 88.375 C-116.6271875 88.70371094 -117.441875 89.03242187 -118.28125 89.37109375 C-130.37871314 94.76641296 -138.83596447 104.27018846 -144.09375 116.30859375 C-149.6117571 130.83277674 -148.25327741 144.27305647 -142.5625 158.5 C-136.62404772 170.37690455 -126.94782083 178.277586 -114.8125 183.375 C-100.58781578 187.74505763 -85.14381507 186.71048737 -71.9609375 179.90234375 C-59.12550365 172.42384717 -51.33626187 161.27753485 -47.4375 147 C-44.81213745 132.06825048 -47.33002342 118.36942678 -55.91015625 105.87109375 C-63.66792495 95.69200915 -74.86616769 87.27083494 -87.8125 85.375 C-97.37429744 84.62157644 -106.88821394 84.49419251 -115.8125 88.375 Z M-162.8125 217.375 C-163.84375 218.07625 -164.875 218.7775 -165.9375 219.5 C-175.92088602 228.37727223 -180.98449982 241.89761305 -182.015625 254.9453125 C-182.29506816 270.17496477 -176.86829667 282.97951968 -166.4296875 294.015625 C-154.37859265 304.87959707 -142.19562686 308.20483247 -126.4453125 307.71875 C-113.34053603 306.97506589 -101.5622579 300.1328277 -92.66015625 290.6640625 C-82.77017433 278.41135762 -79.63339075 265.91631504 -80.8125 250.375 C-82.77492246 236.81793149 -89.54163886 224.90122637 -100.3125 216.40234375 C-119.98697122 202.93333802 -143.5014335 204.21152122 -162.8125 217.375 Z M-79.328125 316.2421875 C-89.17462927 328.65869132 -92.30481807 342.79916868 -90.8125 358.375 C-88.40275368 371.43380491 -81.41626459 383.2652941 -70.53515625 390.9921875 C-58.17971454 398.83877133 -44.77691399 402.36417237 -30.23828125 399.7265625 C-17.77391454 396.51791364 -5.68325726 389.74387687 1.31835938 378.5703125 C9.23253084 364.78521522 11.82094948 352.82663615 8.46875 336.9765625 C4.81823452 323.7277089 -2.27051037 313.43617887 -14.1484375 306.3984375 C-36.1810824 294.45666546 -61.85841766 297.71218 -79.328125 316.2421875 Z " fill="#08524d" transform="translate(240.8125,14.625)"/>
<path d="M0 0 C4.79795574 2.82445696 8.51625024 6.54097198 10.06321716 12.08377075 C10.4793801 14.4368708 10.79023374 16.78259233 11.06640625 19.15625 C11.2420536 20.51568726 11.2420536 20.51568726 11.42124939 21.90258789 C11.80666472 24.96400848 12.1615005 28.02766594 12.5078125 31.09375 C12.63246887 32.19299805 12.75712524 33.29224609 12.88555908 34.42480469 C13.69914375 41.7094809 14.4556025 48.99920532 15.18774414 56.29248047 C15.56707527 60.06158426 15.95593163 63.82961953 16.34570312 67.59765625 C18.09717697 84.74303156 19.46133186 101.89134636 20.5078125 119.09375 C20.566203 119.98473389 20.62459351 120.87571777 20.68475342 121.79370117 C21.91090121 140.72740059 21.69506538 159.72673272 21.69311523 178.69091797 C21.69303456 182.59754118 21.69989607 186.50404567 21.71362305 190.41064453 C21.78315272 210.54561044 21.68555401 230.63883764 20.62109375 250.75 C20.58214682 251.50105515 20.54319988 252.25211029 20.50307274 253.02592468 C19.89419507 264.43364334 18.70531741 275.71745336 17.5078125 287.09375 C0.0178125 287.09375 -17.4721875 287.09375 -35.4921875 287.09375 C-37.05717511 283.96377479 -36.98477651 280.57031074 -37.24609375 277.125 C-37.31149353 276.26360916 -37.37689331 275.40221832 -37.4442749 274.51472473 C-39.43217197 247.12835605 -39.79983288 219.79990492 -39.80360031 192.35244751 C-39.80467005 189.45354237 -39.80936292 186.55466174 -39.81472778 183.65576172 C-39.86958655 144.13224056 -37.66974085 105.02973297 -34.08813477 65.67602539 C-33.6343646 60.68735531 -33.197299 55.69736532 -32.76416874 50.70686626 C-32.42230421 46.7932744 -32.07075491 42.8805974 -31.71639824 38.96811867 C-31.55092612 37.12618478 -31.38864144 35.28396128 -31.22981453 33.44144249 C-29.2513145 10.61497457 -29.2513145 10.61497457 -24.5546875 4.62109375 C-23.8740625 4.09644531 -23.1934375 3.57179688 -22.4921875 3.03125 C-21.8115625 2.48339844 -21.1309375 1.93554688 -20.4296875 1.37109375 C-14.84511961 -2.31066774 -6.14790798 -2.2356029 0 0 Z " fill="#08524d" transform="translate(448.4921875,0.90625)"/>
<path d="M0 0 C13.28562395 12.10841677 18.18282953 25.45204811 19.16015625 42.96875 C19.21019124 44.4738566 19.25684014 45.97907816 19.30078125 47.484375 C19.98417501 68.83563989 24.22088432 89.2339765 34.36547852 108.20898438 C35.59575166 110.9333496 35.62494704 113.04720789 35.16015625 115.96875 C34.23120117 118.10742188 34.23120117 118.10742188 32.16015625 119.96875 C28.97796868 120.59446304 25.820062 120.52850558 22.5859375 120.5 C21.1509919 120.50574036 21.1509919 120.50574036 19.6870575 120.51159668 C17.65358433 120.51432225 15.62007649 120.5069161 13.58666992 120.49023438 C10.52894718 120.46913837 7.47365749 120.48985348 4.41601562 120.515625 C-20.59575464 120.55275414 -40.44225758 113.63081298 -59.02734375 96.21875 C-69.73762558 84.93073512 -78.76442948 69.59539862 -80.83984375 53.96875 C-80.948125 53.246875 -81.05640625 52.525 -81.16796875 51.78125 C-83.34191902 35.30499529 -80.58573063 21.03196818 -70.98828125 7.32421875 C-62.90503899 -2.43887427 -51.91649698 -7.80839615 -39.77734375 -10.78125 C-25.2507705 -12.01755411 -11.43893236 -9.52235639 0 0 Z " fill="#08524d" transform="translate(465.83984375,392.03125)"/>
<path d="M0 0 C15.51 0 31.02 0 47 0 C45.82761778 11.72382221 44.65918081 23.35043262 43 35 C42.2265625 34.86722656 41.453125 34.73445313 40.65625 34.59765625 C28.78870756 32.58546155 17.96496146 31.37937982 5.96875 32.87890625 C4.99421875 32.93884766 4.99421875 32.93884766 4 33 C1.40397881 30.40397881 1.86735224 23.94830271 1.4375 20.4375 C1.29892578 19.36435547 1.16035156 18.29121094 1.01757812 17.18554688 C0.88673828 16.13302734 0.75589844 15.08050781 0.62109375 13.99609375 C0.5017749 13.03888428 0.38245605 12.0816748 0.25952148 11.09545898 C-0.04955791 7.40889493 0 3.69949789 0 0 Z " fill="#08524d" transform="translate(416,319)"/>
<path d="M0 0 C3.7313892 4.07780464 5.65053706 9.17660216 5.91015625 14.671875 C5.21027418 20.97081366 3.97398837 25.58538886 -0.77734375 29.984375 C-5.69233567 33.75014125 -10.32626154 34.84723376 -16.46484375 34.546875 C-22.34650108 33.7680254 -27.01972636 31.59671049 -30.875 27.00390625 C-34.04411059 22.0401022 -34.97442207 16.91567511 -34.19140625 11.125 C-32.81556037 5.22851765 -30.49303601 1.65363789 -25.6953125 -2.04296875 C-17.53872635 -7.11327906 -7.48526678 -6.01652649 0 0 Z " fill="#08524d" transform="translate(281.52734375,102.390625)"/>
<path d="M0 0 C4.77829121 3.52683398 9.18506625 8.03377164 10.625 13.9375 C11.10538929 19.79824938 10.65514543 24.79156882 7.625 29.9375 C3.66113809 34.36136563 -0.63298399 37.52172044 -6.625 38.1875 C-12.74276822 38.48592772 -17.35467266 37.52842859 -22.375 33.9375 C-24.75 31.4375 -24.75 31.4375 -26.375 28.9375 C-26.766875 28.339375 -27.15875 27.74125 -27.5625 27.125 C-29.85388392 20.95588946 -29.69495196 16.10468162 -27.38671875 10.046875 C-25.32074162 5.73943234 -22.69843085 2.90586403 -18.8125 0.0625 C-12.62031069 -1.96403468 -6.21340645 -1.9560724 0 0 Z " fill="#08524d" transform="translate(209.375,346.0625)"/>
<path d="M0 0 C4.31601157 3.991687 7.69947291 7.63015522 8.23828125 13.671875 C8.40148026 20.44033907 8.19348535 24.592611 4 30 C-0.71408754 34.71408754 -4.56276404 36.1730737 -11.1875 36.375 C-17.41259127 36.31954262 -21.44543571 35.30776524 -26 31 C-30.79448817 24.8532203 -31.80279452 19.62089449 -31 12 C-29.21020063 6.08854835 -26.04503582 2.43062436 -21 -1 C-13.97621397 -4.13828737 -6.62749155 -3.94277384 0 0 Z " fill="#08524d" transform="translate(121,255)"/>
<path d="M0 0 C4.26421817 3.22416496 7.85431792 6.81295376 9.5625 11.9375 C10.03576956 17.74862953 10.42247977 23.08523588 7.9375 28.4375 C2.78646539 33.85964169 -1.54654966 37.61856964 -9.25 38.25 C-14.53847808 38.07072956 -19.1941912 36.94754439 -23.203125 33.35546875 C-27.93862504 28.0797539 -29.93217691 23.46659775 -29.75390625 16.34765625 C-29.03135748 10.84379712 -26.89833738 6.36181645 -22.9375 2.5 C-15.75182622 -1.99104612 -8.19250344 -2.53222834 0 0 Z " fill="#08524d" transform="translate(153.4375,132.0625)"/>
<path d="M0 0 C5.09328959 3.66399229 7.71454458 8.02554873 8.75390625 14.26171875 C8.83514037 20.64875114 8.02331949 25.28073664 3.75390625 30.26171875 C-1.69197922 35.28868995 -6.37421019 36.74825169 -13.68359375 36.57421875 C-19.14985286 35.90760179 -23.41211542 33.48259752 -27.12109375 29.44921875 C-30.83821953 23.87353008 -31.74165948 18.99744066 -30.78515625 12.46875 C-29.37004792 6.67500939 -26.2370515 2.54844702 -21.24609375 -0.73828125 C-14.62537643 -4.52154829 -6.43943178 -3.70755163 0 0 Z " fill="#08524d" transform="translate(369.24609375,190.73828125)"/>
</svg>