<svg version="1.0" xmlns="http://www.w3.org/2000/svg" width="512.000000ptpx" height="512.000000ptpx" viewBox="0 0 512.000000 512.000000" preserveAspectRatio="xMidYMid meet" transform="rotate(0) scale(1, 1)">

<g transform="translate(0.000000,512.000000) scale(0.100000,-0.100000)" fill="#08524d" stroke="none">
<path d="M2010 4850 c-491 -69 -929 -307 -1237 -674 -183 -217 -320 -480 -388&#10;-743 -39 -147 -55 -262 -62 -428 -6 -156 -6 -156 30 -113 1 1 138 5 305 8&#10;l304 5 159 414 c87 227 159 419 159 426 0 24 41 50 82 50 74 0 69 14 213 -658&#10;71 -334 132 -604 135 -599 4 4 57 165 119 357 62 193 119 360 127 372 32 50&#10;126 51 158 1 8 -13 51 -214 95 -448 97 -507 92 -482 97 -478 2 3 114 407 248&#10;899 217 792 248 897 271 917 30 26 71 28 103 7 27 -20 20 4 193 -702 l143&#10;-583 386 0 c364 0 387 -1 417 -20 17 -10 37 -28 43 -40 17 -32 -5 -87 -44&#10;-111 -29 -18 -55 -19 -479 -19 l-448 0 -22 23 c-18 18 -42 109 -127 479 -58&#10;252 -107 458 -110 458 -3 0 -113 -386 -245 -857 -302 -1085 -270 -980 -308&#10;-1003 -43 -27 -61 -25 -96 8 -29 26 -31 37 -116 507 -48 264 -88 481 -89 482&#10;-1 1 -55 -157 -119 -352 -104 -310 -122 -358 -148 -380 -57 -47 -137 -28 -158&#10;38 -5 17 -70 310 -143 649 -73 340 -136 614 -139 610 -4 -4 -48 -124 -99 -267&#10;-111 -314 -115 -324 -142 -352 l-21 -23 -342 0 c-334 0 -343 0 -369 21 l-28&#10;22 7 -49 c82 -596 417 -1110 919 -1413 253 -152 539 -239 854 -260 494 -33&#10;943 107 1341 417 l83 65 191 -191 191 -191 -67 -70 c-54 -56 -67 -75 -67 -101&#10;0 -36 -7 -28 359 -407 217 -226 247 -253 275 -253 17 1 41 7 54 14 13 7 106&#10;95 207 196 193 193 202 206 190 279 -6 35 -37 68 -302 322 -163 156 -303 287&#10;-312 291 -9 4 -30 7 -47 7 -26 1 -43 -11 -95 -64 l-64 -65 -192 192 -192 193&#10;60 75 c335 416 489 906 439 1401 -78 762 -576 1391 -1290 1628 -193 64 -311&#10;82 -560 86 -124 2 -254 0 -290 -5z m2427 -3872 l213 -213 -112 -112 c-62 -62&#10;-117 -113 -123 -113 -6 0 -105 94 -220 210 l-210 210 115 115 c63 63 117 115&#10;120 115 3 0 100 -96 217 -212z"/>
</g>
</svg>