<svg version="1.0" xmlns="http://www.w3.org/2000/svg" width="512.000000ptpx" height="512.000000ptpx" viewBox="0 0 512.000000 512.000000" preserveAspectRatio="xMidYMid meet" transform="rotate(0) scale(1, 1)">

<g transform="translate(0.000000,512.000000) scale(0.100000,-0.100000)" fill="#ccffa4" stroke="none">
<path d="M2675 5113 c-337 -29 -752 -110 -1023 -199 -238 -78 -428 -195 -558&#10;-344 -178 -205 -277 -402 -354 -706 -41 -158 -67 -236 -133 -389 -59 -137 -60&#10;-134 32 -229 128 -132 154 -210 108 -326 -14 -36 -34 -102 -46 -148 -34 -138&#10;-86 -223 -248 -405 -79 -89 -162 -189 -185 -222 l-40 -60 34 -28 c18 -15 68&#10;-47 112 -70 134 -72 178 -120 195 -214 13 -68 -3 -146 -46 -232 l-37 -74 24&#10;-19 c102 -79 120 -99 120 -134 0 -21 -11 -51 -27 -76 -18 -26 -24 -43 -16 -45&#10;29 -10 104 -67 128 -98 60 -79 71 -165 41 -306 -36 -173 42 -329 165 -329 60&#10;0 429 105 719 205 426 146 591 205 656 232 175 74 284 185 284 291 0 34 17 60&#10;51 78 39 20 82 11 110 -24 18 -23 20 -37 17 -93 -6 -83 -40 -157 -103 -227&#10;-94 -105 -233 -180 -501 -272 -98 -34 -180 -63 -181 -64 -1 -1 24 -34 55 -73&#10;100 -125 173 -260 237 -436 29 -81 -4 -77 655 -77 352 0 580 4 580 9 0 5 -13&#10;46 -30 90 -45 123 -118 379 -150 525 -51 230 -64 352 -64 581 0 225 7 288 56&#10;505 25 110 30 157 30 255 0 66 -4 140 -9 165 -8 44 -10 46 -96 88 -113 56&#10;-194 131 -240 220 -33 67 -34 67 -83 73 -27 4 -68 12 -92 18 -41 12 -45 11&#10;-78 -19 -46 -40 -136 -85 -211 -104 -78 -20 -208 -20 -287 0 -130 34 -270 135&#10;-336 242 l-25 41 -50 -7 c-85 -12 -236 -7 -305 11 -36 9 -108 38 -160 64 -80&#10;39 -109 60 -186 137 -76 77 -97 106 -136 186 -60 123 -78 200 -78 332 0 125&#10;23 228 76 335 33 65 36 81 38 160 1 78 5 96 34 155 33 68 106 145 160 169 24&#10;10 30 21 39 72 17 88 66 178 132 241 101 96 201 131 349 124 l95 -5 57 56&#10;c190 186 482 234 716 117 l66 -33 50 33 c92 62 201 79 309 48 64 -18 148 -73&#10;183 -118 24 -32 28 -33 110 -39 105 -7 244 -52 341 -109 89 -53 209 -173 262&#10;-263 33 -57 82 -180 99 -252 2 -7 11 -13 20 -13 31 0 119 -52 166 -97 86 -85&#10;128 -230 99 -350 -11 -46 -10 -53 19 -114 78 -168 59 -384 -47 -542 -19 -28&#10;-44 -81 -55 -117 -41 -132 -123 -259 -226 -349 l-56 -49 31 -69 c53 -118 58&#10;-136 58 -203 0 -88 -38 -167 -105 -217 -47 -35 -47 -36 -53 -102 -3 -36 -19&#10;-136 -36 -221 -38 -195 -51 -305 -51 -446 0 -294 58 -595 192 -1001 l70 -213&#10;60 0 c53 0 63 3 89 29 16 17 29 40 29 54 0 13 -22 80 -49 148 -100 248 -158&#10;485 -186 751 -23 227 -17 370 25 576 58 278 142 442 436 850 156 216 235 388&#10;269 581 32 182 16 540 -36 796 -73 358 -242 620 -550 855 -389 297 -698 430&#10;-1088 469 -95 10 -342 12 -436 4z"/>
<path d="M2283 4705 c-151 -41 -270 -152 -318 -296 -30 -88 -100 -116 -156&#10;-60 -31 31 -37 68 -19 115 9 25 8 26 -30 26 -91 0 -200 -70 -244 -157 -25 -50&#10;-21 -58 42 -76 110 -31 212 -123 212 -192 0 -44 -41 -85 -87 -85 -25 0 -44 10&#10;-76 39 -65 59 -101 74 -168 69 -121 -9 -200 -121 -169 -239 9 -31 28 -60 66&#10;-97 30 -29 57 -64 60 -78 16 -63 -53 -126 -113 -103 -15 6 -42 21 -60 35 l-31&#10;24 -17 -48 c-25 -71 -31 -223 -11 -300 69 -272 324 -455 593 -426 l63 6 0 48&#10;0 48 -39 7 c-130 22 -245 164 -246 302 0 122 160 130 180 9 4 -22 14 -54 22&#10;-69 15 -29 67 -67 93 -67 9 0 28 29 47 68 43 91 99 117 156 72 42 -33 43 -69&#10;5 -152 -29 -66 -32 -82 -33 -168 0 -88 3 -101 33 -162 42 -85 105 -148 190&#10;-190 61 -30 74 -33 162 -33 86 0 101 3 160 31 36 17 88 51 115 76 28 25 60 47&#10;71 50 12 3 60 -6 105 -19 107 -32 268 -36 372 -9 81 21 118 12 143 -36 35 -67&#10;-7 -120 -112 -144 -41 -9 -74 -19 -74 -24 0 -14 49 -60 96 -90 26 -16 91 -46&#10;143 -66 147 -56 227 -102 292 -166 71 -70 99 -83 145 -68 72 24 82 89 33 200&#10;-18 38 -37 70 -44 70 -7 0 -31 -7 -54 -15 -64 -22 -135 -29 -160 -15 -13 6&#10;-29 27 -37 47 -14 31 -13 38 3 71 14 30 27 40 63 50 25 8 69 21 99 30 67 20&#10;184 95 234 151 21 24 37 44 35 46 -2 2 -21 0 -43 -5 -137 -32 -327 10 -442 97&#10;-31 24 -35 24 -84 13 -124 -30 -264 29 -335 142 -33 52 -31 92 5 129 48 48 81&#10;41 150 -31 56 -58 60 -60 108 -60 98 0 159 75 135 166 -18 68 -15 102 13 129&#10;30 31 82 33 119 4 57 -45 73 -208 27 -296 -11 -23 -21 -46 -21 -51 0 -5 28&#10;-22 63 -38 54 -25 74 -29 152 -28 80 0 98 3 157 31 167 78 257 244 227 417&#10;l-11 66 -42 -25 c-60 -35 -109 -30 -143 14 -21 27 -16 89 10 112 12 10 43 37&#10;68 59 68 59 86 137 50 215 -50 108 -159 145 -267 90 -63 -32 -108 -32 -139 0&#10;-38 37 -35 95 8 131 17 15 51 36 75 46 23 10 42 21 42 23 0 3 -11 34 -24 70&#10;-75 198 -251 340 -461 373 -54 9 -55 8 -55 -15 0 -37 -18 -63 -56 -79 -30 -12&#10;-39 -12 -69 0 -39 17 -51 38 -60 108 -11 87 -82 153 -176 165 -29 4 -52 -1&#10;-94 -21 -63 -31 -100 -83 -111 -156 -9 -62 -20 -79 -60 -96 -29 -12 -39 -12&#10;-67 0 -55 22 -69 85 -41 183 5 18 -1 25 -35 42 -95 49 -210 62 -308 36z m188&#10;-564 c37 -37 38 -79 4 -119 -20 -24 -35 -30 -80 -36 -126 -14 -208 -95 -222&#10;-219 -12 -99 -92 -140 -154 -78 -36 36 -39 88 -10 180 45 144 151 247 291 285&#10;91 24 137 21 171 -13z m814 -345 c61 -26 70 -75 31 -180 -31 -88 -76 -155&#10;-147 -221 -62 -57 -176 -118 -241 -130 -32 -6 -41 -14 -59 -52 -36 -74 -122&#10;-158 -203 -198 -85 -42 -183 -61 -232 -45 -33 11 -64 51 -64 84 0 50 56 96&#10;115 96 50 0 106 23 151 63 44 39 49 57 15 57 -38 0 -167 75 -223 130 -70 67&#10;-77 103 -29 151 45 45 84 40 152 -18 64 -55 119 -81 198 -94 108 -17 231 23&#10;310 102 51 52 67 81 96 169 18 55 27 68 56 82 41 21 32 21 74 4z"/>
<path d="M3527 1958 c-4 -80 -18 -185 -41 -298 -20 -98 -40 -237 -46 -316 -24&#10;-318 37 -687 188 -1140 l67 -199 112 -3 112 -3 -45 133 c-145 432 -204 745&#10;-204 1078 0 187 9 273 49 480 16 80 32 166 35 191 l7 46 -40 12 c-25 7 -67 36&#10;-111 76 -38 36 -72 65 -74 65 -1 0 -6 -55 -9 -122z"/>
</g>
</svg>