<svg version="1.1" xmlns="http://www.w3.org/2000/svg" width="512px" height="512px" transform="rotate(0) scale(1, 1)">
<path d="M0 0 C5.33425497 4.16907049 10.22158885 8.72447641 15.09375 13.41796875 C15.87363281 14.12308594 16.65351563 14.82820313 17.45703125 15.5546875 C42.84190496 39.22619496 54.83007958 77.54466605 56.21484375 111.37646484 C59.02037495 203.58024768 -9.61927503 295.35794442 -67.90625 361.5 C-71.57743627 365.02061027 -74.71196238 366.84736166 -79.84375 366.85546875 C-81.06384766 366.88447266 -81.06384766 366.88447266 -82.30859375 366.9140625 C-94.19181968 364.64463439 -104.24590694 347.73980423 -111.29882812 338.51855469 C-113.1040101 336.15953498 -114.91944433 333.80855791 -116.734375 331.45703125 C-135.91712069 306.52706035 -153.95974317 280.55029687 -169.90625 253.41796875 C-170.37691895 252.62326172 -170.84758789 251.82855469 -171.33251953 251.00976562 C-199.85782527 202.68851721 -223.68182834 148.65547758 -213.90625 91.41796875 C-213.78797852 90.69158203 -213.66970703 89.96519531 -213.54785156 89.21679688 C-207.58372721 53.73556851 -189.60876861 20.77307303 -160.0859375 -0.4296875 C-112.29668372 -32.77843299 -47.46802825 -34.13233219 0 0 Z M-114.21875 81.66796875 C-121.94047646 90.85604326 -125.31479282 101.84020615 -124.84375 113.73046875 C-123.52971089 126.42289202 -118.26519994 137.15503263 -108.51953125 145.44921875 C-98.34238466 152.99021277 -87.54024159 156.37886388 -74.90625 155.41796875 C-62.08652705 153.42228629 -51.09074378 147.26066232 -43.28125 136.79296875 C-36.62580932 126.82453215 -33.79328734 115.98679632 -35.34765625 104.01953125 C-37.90080212 91.50182176 -44.08252441 81.34805375 -54.359375 73.55859375 C-74.39018931 60.83461736 -98.01316293 64.73540207 -114.21875 81.66796875 Z " fill="#08524d" transform="translate(335.90625,24.58203125)"/>
<path d="M0 0 C5.26991497 0.49355469 10.41440463 1.12526741 14.44140625 4.8125 C17.63194522 9.83921216 20.01563992 15.12954939 22.36328125 20.58984375 C22.73673676 21.44969879 23.11019226 22.30955383 23.4949646 23.19546509 C24.73122174 26.045216 25.96143109 28.89753272 27.19140625 31.75 C28.06080527 33.75848169 28.93043928 35.76686167 29.80029297 37.77514648 C37.09191744 54.62609605 44.33137232 71.49968607 51.56640625 88.375 C51.83247177 88.99555645 52.09853729 89.6161129 52.37266541 90.25547409 C54.14952821 94.40020958 55.9247848 98.54563041 57.69921875 102.69140625 C58.15042084 103.74462067 58.60162292 104.79783508 59.0664978 105.88296509 C59.48299591 106.85688202 59.89949402 107.83079895 60.32861328 108.83422852 C60.69020538 109.67921402 61.05179749 110.52419952 61.42434692 111.39479065 C61.7599765 112.19263474 62.09560608 112.99047882 62.44140625 113.8125 C63.00177078 115.08026527 63.00177078 115.08026527 63.57345581 116.37364197 C64.44140625 118.8125 64.44140625 118.8125 64.44140625 122.8125 C63.75328857 123.15394043 63.0651709 123.49538086 62.35620117 123.84716797 C50.5767921 129.69815991 38.80732493 135.55421154 27.19116211 141.72460938 C19.22650193 145.94752207 11.20864611 150.06561999 3.19140625 154.1875 C-6.3215027 159.0796858 -15.82947458 163.98002963 -25.30859375 168.9375 C-33.7969362 173.37680554 -42.29886534 177.78935647 -50.80859375 182.1875 C-51.42027405 182.50365265 -52.03195435 182.8198053 -52.66217041 183.14553833 C-53.57987213 183.61985794 -53.57987213 183.61985794 -54.51611328 184.10375977 C-55.7516297 184.7423462 -56.98714403 185.38093669 -58.22265625 186.01953125 C-58.83464874 186.33584 -59.44664124 186.65214874 -60.07717896 186.9780426 C-67.55329879 190.84268442 -75.0244449 194.71691635 -82.49462891 198.59301758 C-87.68567893 201.28644363 -92.87745897 203.97841212 -98.07290649 206.66334534 C-100.52134622 207.92876674 -102.9692751 209.19517467 -105.41717529 210.4616394 C-107.1247947 211.34459682 -108.83313664 212.22615645 -110.54150391 213.10766602 C-111.59128418 213.65092529 -112.64106445 214.19418457 -113.72265625 214.75390625 C-115.21394043 215.52371826 -115.21394043 215.52371826 -116.73535156 216.30908203 C-120.10648059 218.10425779 -123.38353079 220.03836827 -126.63427734 222.04272461 C-129.13847702 223.04446802 -130.03914591 222.74467308 -132.55859375 221.8125 C-134.6281395 220.11209774 -134.6281395 220.11209774 -136.8739624 217.8578949 C-137.72929062 217.00669067 -138.58461884 216.15548645 -139.46586609 215.27848816 C-140.40544365 214.32829364 -141.34487669 213.37795618 -142.28417969 212.42749023 C-143.27918649 211.43163718 -144.27485443 210.43644433 -145.27113342 209.44186401 C-147.97385021 206.74000865 -150.66721177 204.02899745 -153.35900784 201.31626773 C-156.17369261 198.48284069 -158.99686423 195.65789602 -161.81915283 192.83204651 C-167.16223887 187.47963281 -172.497631 182.1196171 -177.83031201 176.75683886 C-183.90175778 170.65187156 -189.98171508 164.55541142 -196.06240797 158.4596566 C-208.57064175 145.92005747 -221.06812814 133.36979651 -233.55859375 120.8125 C-232.00965084 116.16567126 -228.35590853 115.36673134 -224.13476562 113.234375 C-223.01650391 112.68265625 -221.89824219 112.1309375 -220.74609375 111.5625 C-219.63943359 110.9953125 -218.53277344 110.428125 -217.39257812 109.84375 C-215.79446289 109.04710937 -215.79446289 109.04710937 -214.1640625 108.234375 C-213.18590576 107.74549805 -212.20774902 107.25662109 -211.19995117 106.75292969 C-208.35269206 105.7391907 -207.28344593 105.58611403 -204.55859375 106.8125 C-202.67497287 108.75169354 -200.9940742 110.65163439 -199.30859375 112.75 C-198.82334229 113.3382959 -198.33809082 113.9265918 -197.83813477 114.53271484 C-195.01526657 117.96750741 -192.25350242 121.45002387 -189.49609375 124.9375 C-180.16863324 136.60157486 -171.01018547 147.28595595 -155.55859375 149.8125 C-142.3453629 150.92274035 -130.88720621 149.12594084 -120.05078125 140.97265625 C-111.23792753 133.33392881 -104.14142381 123.97915724 -97.06689453 114.76660156 C-95.46083166 112.68584287 -93.83766447 110.61932584 -92.2109375 108.5546875 C-84.04319208 98.16964043 -76.18641883 87.59966626 -68.55859375 76.8125 C-67.92131348 75.91337891 -67.2840332 75.01425781 -66.62744141 74.08789062 C-55.60878456 58.50767513 -45.17562656 42.68677072 -35.45922852 26.26245117 C-34.32752097 24.35498286 -33.18494457 22.45391656 -32.03100586 20.55981445 C-28.6026733 14.88188473 -28.6026733 14.88188473 -26.1328125 8.75390625 C-21.975482 -2.74307615 -10.27229282 -0.45047644 0 0 Z " fill="#08524d" transform="translate(403.55859375,270.1875)"/>
<path d="M0 0 C2.72219787 1.13172419 4.27670333 2.71472749 6.35802841 4.8038187 C7.21335663 5.65502293 8.06868484 6.50622715 8.9499321 7.38322544 C9.88950966 8.33341996 10.8289427 9.28375742 11.7682457 10.23422337 C12.76325249 11.23007642 13.75892044 12.22526927 14.75519943 13.21984959 C17.45791622 15.92170495 20.15127778 18.63271615 22.84307384 21.34544587 C25.65775862 24.17887291 28.48093024 27.00381758 31.30321884 29.82966709 C36.64630488 35.18208079 41.98169701 40.5420965 47.31437802 45.90487474 C53.38582379 52.00984204 59.46578109 58.10630218 65.54647398 64.202057 C78.05470776 76.74165613 90.55219415 89.29191709 103.04265976 101.8492136 C102.04265976 104.8492136 102.04265976 104.8492136 99.56608963 106.5124836 C95.11431603 108.20141159 91.3859237 108.26950738 86.66778183 108.23689365 C85.73175519 108.24227919 84.79572854 108.24766473 83.83133745 108.25321347 C80.69917 108.26750535 77.56742442 108.2603862 74.43523788 108.25326633 C72.18795558 108.2589692 69.94067617 108.26593313 67.69340134 108.27406406 C61.59226696 108.29201848 55.49127623 108.2908229 49.39012337 108.28512168 C44.29793971 108.28203354 39.20578379 108.28811802 34.11360407 108.29416043 C21.41570111 108.30901456 8.71789987 108.30538577 -3.97999686 108.29329712 C-15.00428744 108.28336233 -26.02841024 108.29631033 -37.05267495 108.32023131 C-48.37790029 108.34461987 -59.70302535 108.35383116 -71.02828455 108.34757859 C-77.38440409 108.34420445 -83.74038495 108.34665469 -90.09648514 108.36382961 C-96.07194266 108.3792712 -102.04707917 108.3753739 -108.02252388 108.35652447 C-110.21631114 108.35283109 -112.41012204 108.35596876 -114.60388756 108.36641026 C-117.59711814 108.37957004 -120.58927809 108.36811669 -123.58246231 108.35041904 C-124.4519197 108.36002405 -125.3213771 108.36962906 -126.21718168 108.37952513 C-131.60540749 108.3139106 -134.68338326 107.43423034 -138.95734024 103.8492136 C-142.22677798 99.49694926 -142.79456743 95.98647437 -142.58234024 90.63436985 C-141.09602708 81.63288575 -138.17503909 71.14470313 -130.87433243 65.13436985 C-126.0438167 62.10683643 -120.84257296 60.00487388 -115.5520668 57.92050266 C-111.53222579 56.26082423 -107.76887713 54.18405032 -103.95734024 52.0992136 C-96.02890352 47.8721788 -88.00197105 43.84903628 -79.95734024 39.8492136 C-71.28730223 35.538378 -62.6637708 31.15900995 -54.11749649 26.6070261 C-46.35684903 22.49214049 -38.49015653 18.59341506 -30.61847305 14.69613743 C-25.44168525 12.12500972 -20.29542653 9.52093608 -15.21515274 6.7632761 C-13.90610977 6.05461399 -13.90610977 6.05461399 -12.57062149 5.33163548 C-10.95533689 4.45045589 -9.34555699 3.55908113 -7.74249649 2.65585423 C-2.51713649 -0.19391107 -2.51713649 -0.19391107 0 0 Z " fill="#08524d" transform="translate(141.95734024047852,404.1507863998413)"/>
<path d="M0 0 C6.29904347 5.25176974 9.24176603 13.28858609 12.45507812 20.63867188 C14.90057198 25.95939871 17.96195203 30.85407728 21.0625 35.8125 C21.64 36.75859131 22.2175 37.70468262 22.8125 38.67944336 C29.37867449 49.40216159 36.53061928 59.71562095 43.8125 69.9609375 C44.23813232 70.56405762 44.66376465 71.16717773 45.10229492 71.78857422 C46.22379416 73.37455559 47.35560546 74.95323131 48.48828125 76.53125 C50 79 50 79 50 82 C48.82719482 82.58378418 47.65438965 83.16756836 46.44604492 83.76904297 C41.99607215 85.98481684 37.54753063 88.20345193 33.09936523 90.42285156 C31.19251369 91.37379924 29.28530059 92.32402235 27.37768555 93.2734375 C16.73069105 98.57307515 6.13148553 103.94296933 -4.37763977 109.51144409 C-11.19747208 113.12072564 -18.08309417 116.57995188 -25 120 C-33.62101273 124.28069812 -42.19193216 128.63743491 -50.68603516 133.1652832 C-59.00020325 137.57393058 -67.43469863 141.74358345 -75.86914062 145.91601562 C-82.81726846 149.36416857 -89.65826967 152.94643875 -96.43994141 156.70825195 C-99 158 -99 158 -101 158 C-100.40018251 154.55001196 -99.51542959 151.53362903 -98.14013672 148.31640625 C-97.7530806 147.40467651 -97.36602448 146.49294678 -96.96723938 145.55358887 C-96.54234726 144.56652954 -96.11745514 143.57947021 -95.6796875 142.5625 C-95.2331633 141.515177 -94.7866391 140.467854 -94.32658386 139.38879395 C-92.84754369 135.92377984 -91.36138892 132.46186738 -89.875 129 C-88.83623871 126.57107833 -87.79774987 124.14204013 -86.75952148 121.71289062 C-78.64287833 102.73770136 -70.42681346 83.80563382 -62.17993164 64.88671875 C-57.76717857 54.7535932 -53.38954919 44.60931542 -49.140625 34.40625 C-48.57915016 33.05992493 -48.57915016 33.05992493 -48.0063324 31.68640137 C-46.28181839 27.54647724 -44.56731565 23.4028498 -42.86938477 19.25195312 C-42.27380213 17.81371847 -41.67802995 16.37556229 -41.08203125 14.9375 C-40.82580994 14.30058228 -40.56958862 13.66366455 -40.30560303 13.00744629 C-38.18241946 7.91742088 -35.88690768 4.09797424 -31.06640625 1.29296875 C-21.6657732 -2.20069562 -9.52183779 -3.28850029 0 0 Z " fill="#08524d" transform="translate(129,271)"/>
<path d="M0 0 C0.28512955 0.66604248 0.57025909 1.33208496 0.86402893 2.01831055 C3.58370624 8.37097174 6.30400144 14.72336804 9.02494907 21.07548523 C10.69648546 24.97779509 12.36751168 28.88032283 14.03812122 32.78302956 C15.11538866 35.299142 16.19337903 37.81494451 17.27133751 40.33076096 C18.06343044 42.18055054 18.854262 44.03087577 19.64497375 45.8812561 C21.8311468 50.98823482 24.02365294 56.08918308 26.31518555 61.14990234 C26.81217201 62.25325928 26.81217201 62.25325928 27.31919861 63.37890625 C28.15075899 65.21392099 28.99415967 67.0435586 29.83886719 68.87255859 C31.71912918 73.9369312 32.04261205 78.71246746 31 84 C28.82513763 88.59137611 26.54447465 90.83213246 22 93 C19.1666879 93.27743054 16.55943809 93.39281521 13.73002625 93.36076355 C12.90087654 93.36332682 12.07172684 93.3658901 11.21745139 93.36853105 C8.44123739 93.37346947 5.66556813 93.35697509 2.8894043 93.34057617 C0.89854444 93.33972991 -1.09231635 93.34020502 -3.08317566 93.34190369 C-8.48774781 93.34276511 -13.89212058 93.32511547 -19.29664636 93.30418181 C-24.94475817 93.28543955 -30.59287446 93.2836665 -36.24101257 93.28010559 C-46.93651231 93.27077793 -57.63192015 93.24615434 -68.32737941 93.21605712 C-80.50379247 93.18253559 -92.68020991 93.16603275 -104.85665762 93.15097082 C-129.90448938 93.11960547 -154.95223954 93.0668309 -180 93 C-176.74237446 90.34369357 -173.71189022 88.17840344 -169.9296875 86.3359375 C-168.96168213 85.85938721 -167.99367676 85.38283691 -166.99633789 84.8918457 C-165.96629639 84.39128662 -164.93625488 83.89072754 -163.875 83.375 C-161.68282199 82.29453319 -159.49142236 81.21248573 -157.30078125 80.12890625 C-156.22135254 79.59539551 -155.14192383 79.06188477 -154.02978516 78.51220703 C-150.00829829 76.50502817 -146.03025422 74.42345016 -142.0625 72.3125 C-133.32975266 67.675336 -124.54325374 63.14596482 -115.75 58.625 C-106.23710478 53.73278706 -96.72911946 48.83247052 -87.25 43.875 C-78.76165669 39.43569402 -70.25964218 35.0233113 -61.75 30.625 C-60.521481 29.98991539 -59.29296537 29.35482425 -58.06445312 28.71972656 C-56.21855892 27.76549933 -54.37265625 26.8112885 -52.5267334 25.8571167 C-45.93324184 22.44881624 -39.34081844 19.0384676 -32.75 15.625 C-31.63592773 15.04878906 -30.52185547 14.47257812 -29.37402344 13.87890625 C-24.44559379 11.32549909 -19.52700464 8.75811325 -14.640625 6.125 C-13.8455957 5.69751465 -13.05056641 5.2700293 -12.23144531 4.82958984 C-10.79540367 4.05437874 -9.36220474 3.27386614 -7.93261719 2.48681641 C-5.06839209 0.93953658 -3.31034953 0 0 0 Z " fill="#08524d" transform="translate(481,419)"/>
<path d="M0 0 C4.37317227 2.18658613 7.43901378 4.82654097 10 9 C11.47603171 15.00252897 11.20910569 19.61698401 8 25 C4.2837405 29.09092327 0.77851839 30.85179013 -4.75 31.3125 C-9.31377915 31.2369963 -12.48387928 29.88250506 -16 27 C-19.52511652 22.82551992 -20.80854438 19.45648528 -21 14 C-20.18431889 8.18827209 -18.08067863 5.66985976 -13.65625 2.1640625 C-9.41673247 -0.81559841 -5.02634626 -0.55676451 0 0 Z " fill="#08524d" transform="translate(261,120)"/>
</svg>