<svg version="1.0" xmlns="http://www.w3.org/2000/svg" width="512.000000ptpx" height="512.000000ptpx" viewBox="0 0 512.000000 512.000000" preserveAspectRatio="xMidYMid meet" transform="rotate(0) scale(1, 1)">

<g transform="translate(0.000000,512.000000) scale(0.100000,-0.100000)" fill="#ccffa4" stroke="none">
<path d="M2058 4181 c-78 -25 -140 -67 -223 -150 -51 -52 -82 -75 -118 -87&#10;-129 -43 -237 -176 -237 -294 0 -99 40 -188 143 -318 41 -52 64 -70 129 -103&#10;43 -22 107 -47 141 -55 57 -15 62 -15 72 1 27 45 49 65 84 76 32 9 44 8 75 -6&#10;104 -49 80 -203 -34 -216 -42 -4 -64 4 -97 36 -20 19 -46 35 -59 35 -12 0 -50&#10;9 -83 19 -34 10 -61 18 -61 16 0 -2 11 -23 25 -46 14 -24 25 -56 25 -71 0 -18&#10;8 -33 23 -43 53 -35 63 -117 20 -165 -55 -60 -137 -55 -181 10 -32 48 -25 104&#10;18 143 16 15 37 27 46 27 13 0 15 6 9 28 -9 39 -43 87 -135 193 -122 140 -210&#10;278 -210 331 0 34 -23 29 -65 -12 -81 -79 -118 -182 -108 -300 5 -62 -5 -83&#10;-75 -173 -53 -68 -82 -148 -82 -225 0 -72 42 -211 76 -252 50 -59 193 -106&#10;253 -83 16 6 28 25 40 58 17 51 64 95 103 95 33 0 86 -28 103 -54 21 -32 21&#10;-97 0 -129 -30 -46 -112 -62 -159 -32 -18 12 -29 13 -55 4 -46 -16 -167 -6&#10;-222 18 -26 12 -65 37 -87 58 l-41 37 -15 -36 c-8 -20 -20 -63 -27 -97 -16&#10;-80 -2 -141 59 -261 l46 -91 -12 -82 c-14 -97 -5 -163 35 -244 l26 -55 16 25&#10;c40 65 159 167 261 224 58 32 140 79 183 104 81 47 181 137 206 183 12 24 11&#10;29 -8 54 -53 68 3 184 89 184 59 0 120 -58 120 -115 0 -55 -50 -115 -97 -115&#10;-16 0 -31 -13 -48 -40 -14 -23 -41 -58 -60 -79 l-35 -39 42 -6 c24 -4 67 -18&#10;96 -31 50 -23 56 -24 82 -10 102 53 208 -53 155 -155 -17 -34 -62 -60 -100&#10;-60 -60 0 -115 55 -115 114 0 15 -9 31 -23 40 -37 25 -147 49 -193 42 -40 -5&#10;-267 -123 -359 -186 -105 -72 -183 -200 -192 -313 -5 -53 -2 -70 20 -113 32&#10;-63 112 -138 183 -171 30 -13 91 -31 135 -39 114 -20 160 -43 239 -123 65 -65&#10;136 -110 202 -126 26 -7 28 -4 49 65 53 177 -8 313 -180 400 -33 16 -66 30&#10;-72 30 -6 0 -24 -11 -41 -25 -22 -19 -41 -25 -75 -25 -38 0 -50 5 -79 34 -38&#10;38 -45 86 -19 135 15 29 68 61 103 61 30 0 85 -42 100 -75 11 -24 32 -39 92&#10;-68 92 -43 185 -124 218 -190 46 -92 49 -200 9 -315 l-15 -42 57 0 c108 0 231&#10;53 284 123 63 83 70 111 68 260 -1 110 -6 149 -22 192 -25 67 -86 137 -145&#10;165 -35 18 -44 27 -42 44 7 49 81 25 161 -52 l47 -46 0 430 c0 481 -1 491 -67&#10;559 -43 45 -99 70 -170 80 -55 7 -73 26 -51 52 30 37 219 -22 268 -84 l20 -26&#10;0 472 0 471 -46 -35 c-48 -37 -88 -45 -98 -20 -9 24 2 38 49 67 24 14 55 44&#10;69 65 24 37 26 48 28 164 3 192 -40 299 -143 358 -48 27 -115 48 -125 38 -2&#10;-2 2 -22 10 -45 25 -71 30 -152 12 -220 -19 -77 -50 -126 -113 -183 -45 -40&#10;-167 -109 -193 -109 -6 0 -17 -15 -25 -34 -21 -50 -59 -76 -111 -76 -62 0&#10;-104 39 -111 102 -5 42 -2 49 30 84 31 34 41 39 81 39 36 0 51 -6 75 -29 l30&#10;-29 44 17 c103 39 205 135 227 214 19 69 11 161 -22 245 -13 33 -45 35 -130 8z"/>
<path d="M2799 4186 c-96 -34 -154 -98 -186 -206 -13 -41 -17 -88 -15 -179 2&#10;-116 4 -127 28 -164 14 -21 45 -51 69 -65 47 -29 58 -43 49 -67 -10 -25 -50&#10;-17 -98 20 l-46 35 0 -473 c1 -322 4 -466 11 -455 39 67 243 136 278 94 21&#10;-25 2 -44 -52 -51 -71 -10 -127 -35 -170 -80 -66 -68 -67 -78 -67 -559 l0&#10;-430 48 46 c79 77 153 101 160 51 3 -17 -6 -26 -40 -41 -58 -26 -121 -96 -146&#10;-165 -17 -45 -22 -81 -23 -194 -2 -147 5 -175 64 -255 53 -72 180 -128 288&#10;-128 l57 0 -15 43 c-40 114 -37 222 9 314 33 66 126 147 218 190 60 29 81 44&#10;92 68 15 33 70 75 100 75 35 0 88 -32 103 -61 26 -49 19 -97 -19 -135 -29 -29&#10;-41 -34 -79 -34 -34 0 -53 6 -75 25 -17 14 -35 25 -41 25 -6 0 -39 -14 -72&#10;-30 -172 -87 -233 -223 -180 -400 21 -69 23 -72 49 -65 63 15 137 61 202 126&#10;79 80 125 103 239 123 44 8 105 26 135 39 71 33 151 108 183 171 22 44 25 59&#10;19 115 -10 117 -86 239 -194 313 -91 63 -316 179 -357 184 -45 7 -155 -17&#10;-192 -42 -14 -9 -23 -25 -23 -40 0 -59 -55 -114 -115 -114 -38 0 -83 26 -100&#10;60 -53 102 53 208 155 155 26 -14 32 -13 82 10 29 13 72 27 96 31 l42 6 -35&#10;39 c-19 21 -46 56 -60 79 -17 27 -32 40 -48 40 -47 0 -97 60 -97 115 0 58 59&#10;115 120 115 85 0 142 -116 90 -183 -11 -14 -20 -28 -20 -32 0 -4 16 -29 36&#10;-56 48 -66 125 -122 305 -220 127 -70 165 -97 228 -159 42 -42 83 -86 92 -100&#10;l16 -24 26 55 c40 81 49 147 35 244 l-12 83 47 93 c62 125 73 174 58 254 -6&#10;35 -18 79 -26 100 l-16 37 -41 -37 c-22 -21 -61 -46 -87 -58 -55 -24 -176 -34&#10;-222 -18 -26 9 -37 8 -55 -4 -47 -30 -129 -14 -159 32 -21 32 -21 97 0 129 17&#10;26 70 54 103 54 39 0 86 -44 103 -95 20 -57 41 -69 111 -61 66 7 143 43 177&#10;82 38 43 81 179 81 256 0 77 -29 157 -82 225 -70 90 -80 111 -75 173 10 118&#10;-27 221 -108 300 -42 41 -65 46 -65 12 0 -53 -88 -191 -210 -331 -92 -106&#10;-126 -154 -135 -193 -6 -21 -4 -28 8 -28 28 0 76 -50 83 -86 14 -73 -38 -134&#10;-113 -134 -38 0 -50 5 -79 34 -26 26 -34 42 -34 70 0 45 17 82 47 101 15 10&#10;23 25 23 43 0 15 11 47 25 71 14 23 25 44 25 46 0 2 -27 -6 -61 -16 -33 -10&#10;-71 -19 -83 -19 -13 0 -39 -16 -59 -35 -99 -96 -246 12 -182 134 8 16 31 36&#10;51 46 60 28 115 5 159 -70 10 -16 15 -16 72 -1 34 8 98 33 141 55 65 33 89 51&#10;129 103 102 128 143 221 143 323 0 112 -101 237 -232 287 -38 14 -75 41 -133&#10;97 -89 86 -143 122 -224 145 -90 26 -106 23 -126 -26 -22 -56 -30 -172 -16&#10;-225 23 -83 122 -179 228 -219 l44 -17 30 29 c24 23 39 29 75 29 40 0 50 -5&#10;81 -39 32 -35 35 -42 30 -84 -7 -64 -49 -102 -111 -102 -50 0 -100 33 -110 74&#10;-4 17 -27 34 -90 64 -90 43 -164 103 -203 165 -53 85 -65 213 -27 318 7 23 14&#10;43 14 45 0 8 -36 3 -71 -10z"/>
<path d="M1794 3665 c-15 -23 -15 -27 0 -50 10 -15 26 -25 41 -25 15 0 31 10&#10;41 25 15 23 15 27 0 50 -10 15 -26 25 -41 25 -15 0 -31 -10 -41 -25z"/>
<path d="M3244 3665 c-15 -23 -15 -27 0 -50 10 -15 26 -25 41 -25 15 0 31 10&#10;41 25 15 23 15 27 0 50 -10 15 -26 25 -41 25 -15 0 -31 -10 -41 -25z"/>
<path d="M2042 3178 c-7 -7 -12 -24 -12 -38 0 -32 17 -50 45 -50 25 0 55 29&#10;55 53 0 38 -61 62 -88 35z"/>
<path d="M3006 3174 c-21 -21 -20 -47 2 -67 37 -34 82 -15 82 33 0 14 -5 31&#10;-12 38 -17 17 -54 15 -72 -4z"/>
<path d="M1762 2918 c-7 -7 -12 -24 -12 -38 0 -32 17 -50 45 -50 25 0 55 29&#10;55 52 0 36 -62 62 -88 36z"/>
<path d="M3287 2912 c-22 -24 -21 -45 1 -65 37 -34 82 -15 82 33 0 49 -51 68&#10;-83 32z"/>
<path d="M1542 2568 c-28 -28 -3 -88 37 -88 10 0 26 9 36 20 27 30 10 74 -30&#10;78 -17 2 -36 -3 -43 -10z"/>
<path d="M3501 2561 c-16 -29 -14 -46 9 -66 41 -37 102 17 73 64 -16 25 -69&#10;26 -82 2z"/>
<path d="M1930 2370 c-23 -44 21 -92 65 -72 49 23 30 92 -25 92 -19 0 -33 -7&#10;-40 -20z"/>
<path d="M3107 2369 c-30 -42 12 -92 58 -71 50 23 38 92 -15 92 -18 0 -34 -8&#10;-43 -21z"/>
<path d="M2103 1969 c-42 -15 -37 -80 7 -94 41 -13 75 28 59 71 -9 25 -36 34&#10;-66 23z"/>
<path d="M2974 1969 c-39 -14 -35 -81 5 -94 43 -13 83 34 62 73 -12 23 -39 32&#10;-67 21z"/>
<path d="M1665 1520 c-15 -17 -16 -24 -7 -45 15 -32 37 -41 68 -27 17 8 24 20&#10;24 40 0 52 -50 71 -85 32z"/>
<path d="M3382 1528 c-17 -17 -15 -63 2 -78 23 -18 59 -8 75 22 14 24 14 28&#10;-3 47 -21 23 -56 27 -74 9z"/>
</g>
</svg>