<svg version="1.1" xmlns="http://www.w3.org/2000/svg" width="512px" height="512px" transform="rotate(0) scale(1, 1)">
<path d="M0 0 C0 101.64 0 203.28 0 308 C-13.86 309.485 -13.86 309.485 -28 311 C-90.41017559 322.25956776 -150.40906024 352.64532576 -191.40625 402.04296875 C-192.69015625 403.50669922 -192.69015625 403.50669922 -194 405 C-194.66 405 -195.32 405 -196 405 C-196.22912031 368.03938379 -196.40521362 331.07887495 -196.51065329 294.11769169 C-196.52315967 289.74952116 -196.53610296 285.38135203 -196.54931641 281.01318359 C-196.55325106 279.70880284 -196.55325106 279.70880284 -196.55726521 278.37807097 C-196.60072373 264.3161493 -196.67953864 250.25463838 -196.77152796 236.19296001 C-196.86519681 221.75361959 -196.92062001 207.31449359 -196.94088495 192.87486184 C-196.95457493 183.97172224 -196.99773656 175.06974377 -197.07916467 166.1669618 C-197.13221512 160.05366031 -197.1479587 153.94095496 -197.13501377 147.82744025 C-197.12863696 144.30499725 -197.13808233 140.78457598 -197.19205475 137.26249695 C-197.52602143 111.70972159 -197.52602143 111.70972159 -188.57483482 101.60748482 C-187.72513933 100.74701483 -186.87544384 99.88654484 -186 99 C-184.52507072 97.1590074 -183.06396849 95.30673509 -181.625 93.4375 C-176.32053025 87.07401067 -170.70332108 81.00536612 -165 75 C-164.21496094 74.17242187 -163.42992187 73.34484375 -162.62109375 72.4921875 C-157.11876265 66.84220888 -151.16311284 61.90929905 -145 57 C-144.24460937 56.36578125 -143.48921875 55.7315625 -142.7109375 55.078125 C-104.73717922 23.49857344 -49.86902925 0 0 0 Z " fill="#08524d" transform="translate(463,53)"/>
<path d="M0 0 C1.76594587 0.18850903 3.5318597 0.37731825 5.29776001 0.56625366 C6.28115671 0.6713645 7.26455341 0.77647533 8.27775002 0.88477135 C52.54223537 5.69673942 94.61400779 21.25707681 131 47 C131.64146973 47.45068848 132.28293945 47.90137695 132.94384766 48.36572266 C143.80998894 56.0622381 153.48473351 64.70425835 163 74 C164.11846742 75.07814799 165.23695585 76.15627419 166.35546875 77.234375 C171.77751164 82.5079843 176.97607598 87.91223911 181.56322765 93.94277096 C183.95550952 97.05493609 183.95550952 97.05493609 186.79569721 99.83122349 C197.40566441 111.17037155 196.52569739 123.71268026 196.27672184 138.51208031 C196.22873442 142.09670162 196.24532728 145.68113858 196.25364685 149.26599121 C196.25938487 155.46064897 196.22519309 161.65402171 196.16303062 167.84835625 C196.07321812 176.80383061 196.04494315 185.7586905 196.03116272 194.71456636 C196.00715195 209.24829459 195.93412425 223.78133953 195.82983398 238.31469727 C195.72869707 252.42338671 195.65091724 266.53188985 195.60424805 280.64086914 C195.60135809 281.51211799 195.59846813 282.38336684 195.5954906 283.28101718 C195.58113406 287.65228937 195.56723354 292.02356288 195.55355966 296.39483726 C195.4397259 332.59704036 195.24615847 368.79846673 195 405 C191.26459739 403.7548658 190.44481475 402.28850188 188.0625 399.1875 C180.65740476 389.91304033 172.16186993 381.54415436 163 374 C162.48099121 373.57251465 161.96198242 373.1450293 161.42724609 372.70458984 C142.07691846 356.83442105 121.72766093 343.58761254 99 333 C98.23558594 332.64196289 97.47117187 332.28392578 96.68359375 331.91503906 C70.02953854 319.5827254 41.92935536 312.20610872 12.73828125 309.36328125 C11.39664417 309.22915508 10.05505037 309.09459514 8.71350098 308.95959473 C5.4760645 308.63548691 2.23826507 308.31570227 -1 308 C-1.0229639 272.66185011 -1.04054756 237.32370175 -1.05106533 201.98554594 C-1.05231581 197.7993646 -1.05361016 193.61318327 -1.05493164 189.42700195 C-1.05519395 188.59372158 -1.05545626 187.76044121 -1.05572652 186.90190993 C-1.06006011 173.4665396 -1.06793476 160.03117361 -1.0771528 146.59580585 C-1.08655395 132.77675409 -1.09206919 118.95770458 -1.09408849 105.13864976 C-1.0954504 96.63373639 -1.09972777 88.12883531 -1.10791647 79.62392572 C-1.11326392 73.76622445 -1.11478643 67.90852939 -1.11350138 62.05082586 C-1.11287028 58.68755037 -1.11430593 55.32431297 -1.11920547 51.96103859 C-1.1432008 34.61772895 -0.77173708 17.32665933 0 0 Z " fill="#08524d" transform="translate(50,53)"/>
<path d="M0 0 C9.03637843 1.45537826 17.13263959 4.22894987 26 7 C26 110.95 26 214.9 26 322 C13.75855947 319.77428354 13.75855947 319.77428354 9.3359375 318.81640625 C-10.91183137 314.53270381 -31.29835868 311.65981327 -52 311 C-53.25296875 310.95875 -54.5059375 310.9175 -55.796875 310.875 C-95.14478899 310.25289859 -135.01333433 316.42739769 -171.87915039 330.24291992 C-173.39496704 330.80329956 -173.39496704 330.80329956 -174.94140625 331.375 C-175.82513916 331.71273438 -176.70887207 332.05046875 -177.61938477 332.3984375 C-180.19087279 333.04823203 -181.53144505 332.88190799 -184 332 C-177.36593349 325.10690269 -170.52156375 318.91560825 -163 313 C-162.02546875 312.20851563 -161.0509375 311.41703125 -160.046875 310.6015625 C-132.74460034 288.85578092 -99.89695263 273.85281464 -66 266 C-64.74461426 265.70851074 -64.74461426 265.70851074 -63.46386719 265.41113281 C-49.37083383 262.26040784 -35.14673123 261.07523199 -20.7668457 260.1262207 C-20.02647064 260.07267426 -19.28609558 260.01912781 -18.52328491 259.96395874 C-16.4933112 259.81741653 -14.46236603 259.68451521 -12.43139648 259.55249023 C-8.74916472 258.95961293 -6.84089793 258.40733474 -4 256 C-0.83938269 250.17608017 -0.56780982 245.25239915 -0.60127258 238.70521545 C-0.59462576 237.68242994 -0.58797893 236.65964443 -0.58113068 235.60586542 C-0.5625118 232.18644194 -0.5651053 228.76736871 -0.56762695 225.34790039 C-0.55860915 222.89369208 -0.54828189 220.43948828 -0.53674316 217.98529053 C-0.51486309 212.70554073 -0.50207667 207.42588938 -0.49761391 202.14610481 C-0.49114578 194.51251778 -0.4681968 186.87904967 -0.44127061 179.24551063 C-0.39802657 166.85957266 -0.36804622 154.4736397 -0.34643555 142.08764648 C-0.32541871 130.05832454 -0.29813747 118.02904361 -0.26245117 105.99975586 C-0.26025235 105.25783302 -0.25805352 104.51591019 -0.25578807 103.75150485 C-0.24471824 100.02936523 -0.23352546 96.307226 -0.22227156 92.58508694 C-0.1291202 61.72342547 -0.05772808 30.86174904 0 0 Z " fill="#08524d" transform="translate(486,122)"/>
<path d="M0 0 C0.00238835 1.28198052 0.00477671 2.56396105 0.00723743 3.88478947 C0.06460246 34.31928482 0.13733667 64.75370031 0.22898628 95.18811027 C0.24025439 98.93440716 0.25139285 102.68070443 0.26245117 106.42700195 C0.26465486 107.17281947 0.26685854 107.91863699 0.269129 108.68705504 C0.30449734 120.76178666 0.32936408 132.83651822 0.35034702 144.91128243 C0.37211277 157.30194365 0.40517055 169.69253768 0.44870156 182.08314174 C0.47520496 189.72825617 0.49290998 197.37328686 0.49934604 205.01844495 C0.50522567 210.88165276 0.52681926 216.74473675 0.55427551 222.60788536 C0.56307564 225.01247969 0.56677425 227.41709889 0.56500816 229.82170868 C0.56335859 233.10377721 0.58002858 236.38526293 0.60127258 239.66725159 C0.59642501 240.61959877 0.59157743 241.57194595 0.58658296 242.55315214 C0.64612678 248.12427477 1.3150761 252.08116108 4 257 C9.40235774 261.31650179 16.76264368 260.64389453 23.375 260.9375 C82.26772027 264.31090923 135.02286904 287.56912348 178.6875 326.9375 C179.21754639 327.41058594 179.74759277 327.88367188 180.29370117 328.37109375 C181.56909199 329.53852283 182.79013219 330.76479464 184 332 C184 332.66 184 333.32 184 334 C179.00672329 332.53013783 174.02954848 331.02864597 169.08984375 329.38671875 C108.42658732 309.28323191 41.71332853 305.16451135 -20.26171875 322.30078125 C-23 323 -23 323 -26 323 C-26 219.05 -26 115.1 -26 8 C-2 0 -2 0 0 0 Z " fill="#08524d" transform="translate(26,121)"/>
</svg>