<svg version="1.1" xmlns="http://www.w3.org/2000/svg" width="512px" height="512px" transform="rotate(0) scale(1, 1)">
<path d="M0 0 C7.85319354 6.51717307 12.92478221 14.00070383 14.625 24.1875 C14.70984715 26.27246185 14.74277525 28.35984997 14.73852539 30.4465332 C14.73844986 31.68744217 14.73837433 32.92835114 14.73829651 34.2068634 C14.73319072 35.55066977 14.72797474 36.89447571 14.72265625 38.23828125 C14.72078965 39.62118987 14.71936689 41.00409915 14.71836853 42.38700867 C14.71456237 46.01524706 14.70474843 49.643445 14.69366455 53.27166748 C14.68340945 56.97863213 14.67886215 60.68560336 14.67382812 64.39257812 C14.66312435 71.65757046 14.6460709 78.92252955 14.625 86.1875 C14.07491776 85.77476837 13.52483551 85.36203674 12.95808411 84.9367981 C12.23690903 84.39578461 11.51573395 83.85477112 10.77270508 83.29736328 C10.05762283 82.76088165 9.34254059 82.22440002 8.60578918 81.67166138 C-2.25998971 73.5301744 -12.71235097 69.01258034 -26.4375 69 C-27.14455078 68.98775391 -27.85160156 68.97550781 -28.58007812 68.96289062 C-33.80170249 68.94779702 -33.80170249 68.94779702 -38.375 71.1875 C-39.53742542 74.58535892 -39.31984589 76.7975949 -38.375 80.1875 C-37.82150879 80.20208252 -37.26801758 80.21666504 -36.69775391 80.23168945 C-19.70107718 80.73221594 -6.88514284 81.94804748 5.4375 94.9375 C12.03558593 102.939434 14.75721001 111.86862691 14.73852539 122.08911133 C14.73867142 122.76283783 14.73881744 123.43656433 14.7389679 124.13070679 C14.73827472 126.34368174 14.73051036 128.55657111 14.72265625 130.76953125 C14.72078995 132.30938165 14.71936705 133.84923265 14.71836853 135.38908386 C14.71456002 139.43160659 14.70474402 143.47409309 14.69366455 147.51660156 C14.68341455 151.64582835 14.67886323 155.77506102 14.67382812 159.90429688 C14.6631202 167.9987145 14.64606386 176.09310273 14.625 184.1875 C9.9476879 184.2373443 5.27053416 184.27342757 0.59301758 184.29736328 C-0.99457496 184.30735321 -2.58214943 184.3209498 -4.16967773 184.33837891 C-26.56451613 184.57789589 -26.56451613 184.57789589 -34.375 178.1875 C-40.87556047 171.47025419 -41.63528381 166.57296854 -41.93359375 157.40234375 C-42.11676799 154.24422004 -42.11676799 154.24422004 -43.71875 152.27734375 C-46.31441002 150.56935048 -48.36222411 150.80289031 -51.375 151.1875 C-54.8928753 156.46431295 -53.85317921 163.05190188 -53.375 169.1875 C-51.53534878 178.22524962 -45.47244265 185.7758887 -37.8828125 190.85546875 C-21.75455659 199.42203459 -3.1902224 196.69263271 14.625 197.1875 C14.625 226.2275 14.625 255.2675 14.625 285.1875 C2.745 285.5175 -9.135 285.8475 -21.375 286.1875 C-33.89642866 289.31785717 -42.09068047 292.67618918 -49.375 303.1875 C-54.01549197 310.9445354 -54.29398043 319.37169932 -53.375 328.1875 C-52.385 329.6725 -52.385 329.6725 -51.375 331.1875 C-48.34905385 331.573791 -46.30783138 331.80574656 -43.70703125 330.08203125 C-41.73647532 327.2793344 -42.03664595 324.88975041 -42 321.5 C-41.61194583 314.11936179 -40.05306943 309.85613848 -34.8515625 304.66796875 C-27.69372826 298.36398783 -20.53299774 298.02215943 -11.25390625 298.08984375 C-10.50914536 298.0912587 -9.76438446 298.09267365 -8.99705505 298.09413147 C-6.64382727 298.09968011 -4.2906985 298.11222267 -1.9375 298.125 C-0.33138159 298.13002165 1.27473832 298.13458339 2.88085938 298.13867188 C6.79561043 298.14963265 10.71028849 298.16686116 14.625 298.1875 C14.69479351 307.01123549 14.74795926 315.8348746 14.78043652 324.65882683 C14.79603121 328.75702606 14.81715479 332.85503516 14.85131836 336.953125 C14.88413478 340.91482513 14.9018995 344.87634343 14.90963173 348.8381691 C14.91513556 350.34270206 14.92588221 351.84722611 14.94219017 353.35168076 C15.08630268 367.20917431 13.16202158 378.79833953 3.62109375 389.41796875 C-3.7609383 396.45665047 -12.88525016 401.04372917 -23.140625 401.50390625 C-24.03007812 401.54580078 -24.91953125 401.58769531 -25.8359375 401.63085938 C-26.75632813 401.67017578 -27.67671875 401.70949219 -28.625 401.75 C-29.56085938 401.79318359 -30.49671875 401.83636719 -31.4609375 401.88085938 C-33.76548641 401.9866805 -36.07013839 402.08876557 -38.375 402.1875 C-39.57488045 407.46949593 -39.57488045 407.46949593 -37.375 412.1875 C-25.92687384 416.00354205 -12.09089559 413.00148258 -1.6328125 407.83203125 C3.46981739 404.93950701 7.8384895 401.49608723 12.12890625 397.5078125 C13.625 396.1875 13.625 396.1875 14.625 396.1875 C14.69484721 404.09855494 14.74798592 412.00947868 14.78043652 419.92076683 C14.79601978 423.59523878 14.81712165 427.26949806 14.85131836 430.94384766 C14.88417666 434.49706709 14.90190804 438.05008338 14.90963173 441.60344315 C14.91778316 443.60291501 14.94115924 445.6023064 14.96488953 447.60165405 C14.96719007 460.19648305 12.43252845 469.77973785 3.80859375 479.1640625 C-6.85834314 489.2922652 -19.84703027 489.64986158 -33.765625 489.46484375 C-51.22822738 488.87710378 -64.52145814 480.31953918 -76.375 468.1875 C-88.17692496 455.20783617 -92.24721472 439.06468285 -91.71875 421.94140625 C-90.70247977 403.88446193 -82.09105706 389.48752675 -69.375 377.1875 C-68.26641895 376.30008588 -67.15317616 375.41846132 -66.03515625 374.54296875 C-65.15730469 373.76566406 -64.27945313 372.98835938 -63.375 372.1875 C-63.19702611 369.00305347 -63.19702611 369.00305347 -64.375 366.1875 C-66.18343748 363.98708932 -66.18343748 363.98708932 -68.671875 363.82421875 C-76.90248361 364.93035546 -84.40451397 374.82510402 -89.2421875 381.05859375 C-102.43635201 400.41486805 -105.5778405 421.24682945 -102.375 444.1875 C-120.82458847 440.50525365 -137.04723231 429.02791492 -148.375 414.1875 C-161.55583004 394.11831575 -166.68967785 372.69847599 -163.15625 348.92578125 C-162.04289501 343.59837763 -160.24289406 338.639347 -158.30078125 333.5625 C-157.30124281 329.91861305 -157.30464358 327.79068002 -158.375 324.1875 C-160.61808557 322.52359251 -160.61808557 322.52359251 -163.375 322.1875 C-165.47697897 322.63132936 -165.47697897 322.63132936 -167.375 324.1875 C-168.61236461 326.53213955 -169.55109571 328.65042997 -170.4375 331.125 C-170.69354004 331.81851562 -170.94958008 332.51203125 -171.21337891 333.2265625 C-174.14087836 341.64941262 -175.28256496 350.37135756 -176.375 359.1875 C-191.45311316 354.50913722 -202.89703119 345.213342 -210.375 331.1875 C-217.31886313 316.47226674 -219.26173283 299.7564101 -214.3125 284 C-207.71522937 267.23040147 -196.44102197 255.86883539 -180.375 248.1875 C-174.58362311 245.90530487 -168.64084782 244.75816034 -162.50390625 243.8125 C-159.99047484 243.07461188 -158.91556689 242.29696905 -157.375 240.1875 C-157.60783149 237.03828091 -157.60783149 237.03828091 -158.375 234.1875 C-167.69405664 230.32350091 -177.96797363 234.38930323 -186.875 238.0625 C-191.85995838 240.31813727 -196.05911412 242.85249728 -200.375 246.1875 C-201.035 246.1875 -201.695 246.1875 -202.375 246.1875 C-214.98080812 225.20475529 -220.84674971 202.58087325 -214.875 178.0625 C-210.92773639 165.87323877 -205.05659292 154.65367696 -196.375 145.1875 C-195.74980469 144.48238281 -195.12460938 143.77726563 -194.48046875 143.05078125 C-189.44788425 137.66970821 -183.7027991 133.90973477 -177.375 130.1875 C-174.62637998 132.93612002 -174.32342441 136.01288999 -173.5 139.6875 C-171.49440492 150.20572595 -171.49440492 150.20572595 -166.375 159.1875 C-162.91687831 159.52088596 -162.91687831 159.52088596 -159.375 159.1875 C-157.22268046 155.9590207 -157.18702279 155.05244708 -157.82421875 151.3828125 C-158.49014327 148.72856016 -159.39473601 146.20298874 -160.3125 143.625 C-167.520235 122.68325358 -164.85334093 100.65476942 -155.80859375 80.73828125 C-145.78309082 61.08271286 -129.93502641 47.75402667 -109.55859375 39.87890625 C-107.18491885 39.1273133 -104.82350036 38.6307259 -102.375 38.1875 C-102.61283203 39.89099609 -102.61283203 39.89099609 -102.85546875 41.62890625 C-105.66697272 64.36563378 -101.26302149 85.82719542 -87.0625 104.125 C-79.20688038 113.52239257 -79.20688038 113.52239257 -68.6640625 118.53125 C-66.24599021 118.38314316 -66.24599021 118.38314316 -64.5 116.5 C-63.01982658 113.4574213 -63.27792363 112.37645929 -64.375 109.1875 C-66.21200132 107.30124155 -67.98545608 105.66804358 -70 104 C-81.94733579 93.55292868 -90.30753848 79.07378209 -91.54345703 62.99609375 C-92.40771419 45.43612408 -89.26969749 29.07517761 -77.51367188 15.34204102 C-59.06005094 -4.98354533 -24.75098117 -17.1920223 0 0 Z M-111.8125 193.8125 C-113.64611713 196.11410496 -113.64611713 196.11410496 -113.328125 199.0625 C-112.06379613 203.20784055 -110.26529995 204.19490299 -106.6875 206.5625 C-96.85204675 213.45875553 -91.12722911 222.30119521 -88.7734375 234.23828125 C-87.29751558 247.47009292 -90.85082315 259.49273565 -99.125 270 C-102.32174212 273.51215401 -106.24978483 275.88823052 -110.30078125 278.31640625 C-112.64030681 280.09686814 -112.64030681 280.09686814 -113.265625 283.25390625 C-113.66156525 286.25224007 -113.66156525 286.25224007 -111.8125 288.5625 C-108.66683418 290.65961055 -107.11465544 290.58736595 -103.375 290.1875 C-90.36360931 283.00521234 -81.58418381 270.84207427 -76.59765625 257.03515625 C-72.54528661 242.57085878 -74.30986976 227.38766738 -81.375 214.1875 C-85.76981986 207.09179513 -90.7536568 201.26386312 -97.375 196.1875 C-98.40625 195.383125 -99.4375 194.57875 -100.5 193.75 C-104.80571931 191.40993516 -107.66686043 191.04874029 -111.8125 193.8125 Z " fill="#08524d" transform="translate(224.375,14.8125)"/>
<path d="M0 0 C12.44775073 -0.09031184 24.89528443 -0.1637223 37.34328842 -0.20724869 C43.12318834 -0.22813748 48.9028528 -0.25647912 54.68261719 -0.30175781 C60.25877451 -0.34516886 65.83470513 -0.36912737 71.41101837 -0.37950897 C73.54013896 -0.38690882 75.66924691 -0.40135875 77.79827118 -0.42292023 C80.77692125 -0.45189078 83.75463051 -0.45595861 86.73339844 -0.45410156 C87.61668823 -0.46848267 88.49997803 -0.48286377 89.41003418 -0.49768066 C95.37475628 -0.45735154 95.37475628 -0.45735154 98.5166626 1.84088135 C101.13835727 5.65697191 101.12881641 8.80635652 101.14044189 13.31867981 C101.14341302 13.96221096 101.14638414 14.60574211 101.1494453 15.26877421 C101.15812909 17.42895179 101.15964027 19.58907392 101.16113281 21.74926758 C101.16576122 23.29660663 101.17078591 24.84394455 101.17617798 26.39128113 C101.18930192 30.59798332 101.19574694 34.80466955 101.20018864 39.01138902 C101.20311941 41.63951409 101.20722423 44.2676348 101.21169281 46.89575768 C101.2253678 55.11837361 101.23503442 63.34097957 101.2388947 71.56360608 C101.24337544 81.05573379 101.26092403 90.5477175 101.2898953 100.03980142 C101.31151115 107.37662832 101.32159893 114.71341471 101.32293582 122.05027312 C101.32398393 126.43235825 101.32989295 130.81430802 101.34775543 135.19635963 C101.36423444 139.31924707 101.3663925 143.44189736 101.35761642 147.56480598 C101.35684595 149.07648605 101.36119014 150.58817886 101.37107468 152.09982681 C101.38379676 154.16695595 101.3779169 156.2332455 101.36749268 158.30036926 C101.36969252 160.03394794 101.36969252 160.03394794 101.3719368 161.80254841 C100.94746177 165.45165856 99.89655471 167.87018662 98 171 C94.59478859 172.7026057 90.70607881 172.12864821 86.96044922 172.11352539 C86.02381439 172.11367142 85.08717957 172.11381744 84.12216187 172.1139679 C81.01631378 172.11326944 77.91052515 172.10548015 74.8046875 172.09765625 C72.65520256 172.09579183 70.5057172 172.09436804 68.35623169 172.09336853 C62.69104851 172.08954522 57.02589085 172.07971651 51.36071777 172.06866455 C45.58292994 172.05844644 39.805138 172.05387005 34.02734375 172.04882812 C22.6848828 172.03809409 11.34244751 172.02049878 0 172 C0 162.43 0 152.86 0 143 C3.11961182 142.97812622 3.11961182 142.97812622 6.30224609 142.95581055 C13.16358979 142.90553746 20.02470479 142.83895577 26.8858242 142.76428509 C31.0469101 142.71950298 35.2078963 142.68026457 39.36914062 142.65356445 C43.38286201 142.62760909 47.39620138 142.58726299 51.40968704 142.53681374 C52.94308353 142.52009215 54.47654618 142.50861092 56.01002121 142.50238609 C58.15341259 142.49280184 60.29581492 142.46481417 62.43896484 142.43237305 C63.66030121 142.42126999 64.88163757 142.41016693 66.13998413 142.39872742 C67.08378937 142.26714737 68.0275946 142.13556732 69 142 C71.08391136 138.87413296 71.25051292 138.18566732 71.25396729 134.63525391 C71.25960693 133.74356506 71.26524658 132.85187622 71.27105713 131.9331665 C71.26700867 130.95748718 71.26296021 129.98180786 71.25878906 128.9765625 C71.2622937 127.94706482 71.26579834 126.91756714 71.26940918 125.85687256 C71.27822791 122.44618024 71.27237676 119.03569452 71.265625 115.625 C71.26697161 113.25992798 71.2689121 110.89485623 71.27142334 108.52978516 C71.2743748 103.5699602 71.2700762 98.61020722 71.26074219 93.65039062 C71.24934771 87.28453849 71.25590705 80.91885498 71.26788712 74.55300903 C71.27510509 69.66836266 71.27281806 64.78375645 71.26763153 59.89910889 C71.26629486 57.55149313 71.26794334 55.20387375 71.27259064 52.85626221 C71.27765476 49.57855536 71.26994703 46.30112378 71.25878906 43.0234375 C71.26283752 42.04775818 71.26688599 41.07207886 71.27105713 40.0668335 C71.26541748 39.17514465 71.25977783 38.28345581 71.25396729 37.36474609 C71.25321323 36.58972748 71.25245918 35.81470886 71.25168228 35.01620483 C71.11340924 32.68547001 71.11340924 32.68547001 69 30 C66.01029037 29.52047198 66.01029037 29.52047198 62.43896484 29.56762695 C61.42903221 29.55233948 61.42903221 29.55233948 60.3986969 29.53674316 C58.1693603 29.50650665 55.94045257 29.49733151 53.7109375 29.48828125 C52.16678426 29.47144236 50.6226448 29.45329319 49.07852173 29.43388367 C45.01135563 29.38629127 40.94424535 29.35654202 36.87689209 29.33044434 C32.72771169 29.30068514 28.57872386 29.25413902 24.4296875 29.20898438 C16.28653665 29.12284612 8.14340631 29.05709911 0 29 C0 19.43 0 9.86 0 0 Z " fill="#08524d" transform="translate(252,170)"/>
<path d="M0 0 C19.47 0 38.94 0 59 0 C59 29.04 59 58.08 59 88 C39.53 88 20.06 88 0 88 C0 58.96 0 29.92 0 0 Z " fill="#08524d" transform="translate(252,212)"/>
<path d="M0 0 C6.06147168 6.40784149 8.59073851 13.64335105 8.453125 22.3359375 C7.68068818 30.99177366 3.96404562 36.23259883 -2.49609375 41.81640625 C-4.99887054 43.43287085 -6.90799116 43.81120351 -9.8125 44.3125 C-9.79155273 45.19510498 -9.77060547 46.07770996 -9.74902344 46.98706055 C-9.68065905 50.27655569 -9.63061051 53.56529094 -9.59277344 56.85522461 C-9.57271579 58.27624457 -9.54546222 59.69718259 -9.51074219 61.11791992 C-9.46195989 63.16605895 -9.43947461 65.21310275 -9.421875 67.26171875 C-9.40092773 68.49237061 -9.37998047 69.72302246 -9.35839844 70.9909668 C-9.90704906 75.00408063 -10.94284228 76.49576442 -13.8125 79.3125 C-16.29858398 81.02587891 -16.29858398 81.02587891 -19.05859375 82.5390625 C-20.06083984 83.0959375 -21.06308594 83.6528125 -22.09570312 84.2265625 C-23.13662109 84.79117188 -24.17753906 85.35578125 -25.25 85.9375 C-27.31139034 87.07517224 -29.37259471 88.21318153 -31.43359375 89.3515625 C-32.3455249 89.84865723 -33.25745605 90.34575195 -34.19702148 90.85791016 C-35.99823594 91.8596497 -37.77319853 92.90959512 -39.52368164 93.99755859 C-41.8125 95.3125 -41.8125 95.3125 -43.8125 95.3125 C-43.8125 107.8525 -43.8125 120.3925 -43.8125 133.3125 C-48.7625 133.3125 -53.7125 133.3125 -58.8125 133.3125 C-58.91137183 126.97709716 -58.98397073 120.6421433 -59.03222656 114.30615234 C-59.05234276 112.15079933 -59.07963925 109.99550089 -59.11425781 107.84033203 C-59.16277486 104.74237605 -59.18546873 101.64514154 -59.203125 98.546875 C-59.22377014 97.58320007 -59.24441528 96.61952515 -59.26568604 95.62664795 C-59.26791621 88.97848645 -59.26791621 88.97848645 -57.16137695 85.89794922 C-54.4338776 84.05693677 -51.70400056 82.33446553 -48.83984375 80.7109375 C-48.27552139 80.38839996 -47.71119904 80.06586243 -47.129776 79.73355103 C-45.33990425 78.71210711 -43.54519939 77.69954576 -41.75 76.6875 C-39.38300677 75.34308589 -37.01779724 73.99556127 -34.65234375 72.6484375 C-33.60425537 72.05595215 -32.55616699 71.4634668 -31.47631836 70.85302734 C-29.54895228 69.73840174 -27.66502784 68.54751856 -25.8125 67.3125 C-25.30345616 64.8967887 -25.30345616 64.8967887 -25.30078125 62.0859375 C-25.26533203 61.0546875 -25.22988281 60.0234375 -25.19335938 58.9609375 C-25.17080078 57.88070312 -25.14824219 56.80046875 -25.125 55.6875 C-25.09083984 54.59953125 -25.05667969 53.5115625 -25.02148438 52.390625 C-24.93881666 49.69801937 -24.86972913 47.00574709 -24.8125 44.3125 C-25.59423584 44.17602051 -26.37597168 44.03954102 -27.18139648 43.89892578 C-32.28636132 42.76112068 -36.19917584 38.57115382 -39.1796875 34.3984375 C-43.21925162 27.46925818 -43.57538765 21.1837055 -42.8125 13.3125 C-40.5787172 5.41253644 -35.77556607 0.4445617 -28.8125 -3.6875 C-18.44407851 -7.94595883 -9.31391017 -5.5883461 0 0 Z " fill="#08524d" transform="translate(338.8125,23.6875)"/>
<path d="M0 0 C4.95 0 9.9 0 15 0 C15 12.54 15 25.08 15 38 C16.98 38.66 18.96 39.32 21 40 C23.09887695 41.04980469 23.09887695 41.04980469 24.98828125 42.171875 C25.69073975 42.58622803 26.39319824 43.00058105 27.11694336 43.42749023 C27.84147705 43.86391846 28.56601074 44.30034668 29.3125 44.75 C30.06217041 45.19738525 30.81184082 45.64477051 31.58422852 46.10571289 C46.28565397 54.92848096 46.28565397 54.92848096 49 59 C49.22705078 62.09448242 49.22705078 62.09448242 49.1953125 65.85546875 C49.1924826 66.51710526 49.18965271 67.17874176 49.18673706 67.86042786 C49.17555918 69.96963737 49.15045981 72.07841925 49.125 74.1875 C49.11496707 75.61913448 49.10584176 77.05077564 49.09765625 78.48242188 C49.07562795 81.98841977 49.04111485 85.49416813 49 89 C50.16583618 89.2012146 50.16583618 89.2012146 51.35522461 89.40649414 C56.36745091 90.53127233 59.6788736 94.2451444 63 98 C67.02972725 104.49471998 68.08642631 111.48280785 67 119 C64.50177476 127.61687316 59.40265508 132.33021979 51.96484375 136.984375 C46.73548831 139.68742155 40.59904948 139.79678769 34.91796875 138.5390625 C27.70767602 136.12141011 21.8310609 132.08520005 18 125.4375 C14.98686912 118.65540201 14.82407097 111.57228876 16.6640625 104.41796875 C19.07601887 98.26223663 23.3070216 93.16607387 29.03125 89.80859375 C31 89 31 89 34 89 C35.17045701 81.35050986 36.0190064 73.29378184 33 66 C27.25371152 59.97855104 19.37884379 56.71135895 11.89013672 53.34667969 C1.82940529 48.65881057 1.82940529 48.65881057 0 45 C-0.08949417 43.54962893 -0.1175844 42.09521371 -0.11352539 40.64208984 C-0.11344986 39.74130707 -0.11337433 38.84052429 -0.11329651 37.91244507 C-0.10813522 36.93844757 -0.10297394 35.96445007 -0.09765625 34.9609375 C-0.0962413 33.96494537 -0.09482635 32.96895325 -0.09336853 31.94277954 C-0.08775936 28.75348947 -0.0752053 25.56426894 -0.0625 22.375 C-0.05748618 20.21614685 -0.05292307 18.05729259 -0.04882812 15.8984375 C-0.03778695 10.59893143 -0.02051614 5.29947752 0 0 Z " fill="#08524d" transform="translate(280,355)"/>
<path d="M0 0 C5.1462123 4.34549045 8.89106147 10.11517437 9.5078125 16.890625 C9.73962182 25.01286709 9.24894553 31.27770954 4.234375 37.88671875 C-1.10432573 43.35308406 -7.82709932 46.71739787 -15.5 46.98046875 C-23.98847192 46.5114924 -29.87304683 44.23896449 -35.640625 37.94921875 C-38.27824274 34.8638194 -39.17290771 32.86851197 -40.765625 28.88671875 C-69.805625 28.55671875 -98.845625 28.22671875 -128.765625 27.88671875 C-128.765625 23.26671875 -128.765625 18.64671875 -128.765625 13.88671875 C-85.205625 13.39171875 -85.205625 13.39171875 -40.765625 12.88671875 C-39.445625 10.24671875 -38.125625 7.60671875 -36.765625 4.88671875 C-27.36721142 -6.70739407 -12.14976464 -7.99021146 0 0 Z " fill="#08524d" transform="translate(494.765625,235.11328125)"/>
<path d="M0 0 C4.39599736 -0.05393862 8.79133296 -0.0936468 13.1875 -0.125 C14.43337891 -0.14175781 15.67925781 -0.15851563 16.96289062 -0.17578125 C18.16494141 -0.18222656 19.36699219 -0.18867188 20.60546875 -0.1953125 C22.26292114 -0.21102295 22.26292114 -0.21102295 23.95385742 -0.22705078 C27.20781819 0.01549018 29.18358909 0.34727167 32 2 C34.00463867 4.74975586 34.00463867 4.74975586 35.91796875 8.21484375 C36.26128738 8.82638809 36.60460602 9.43793243 36.95832825 10.06800842 C38.04869948 12.01710506 39.11837841 13.97668141 40.1875 15.9375 C40.91724159 17.25271876 41.6483477 18.56718141 42.38085938 19.88085938 C43.72388062 22.28963952 45.05688918 24.70291528 46.38354492 27.12084961 C47.988927 30.06610121 47.988927 30.06610121 50 33 C52.6556728 33.58348752 52.6556728 33.58348752 55.625 33.6875 C56.62789063 33.75324219 57.63078125 33.81898438 58.6640625 33.88671875 C59.43492187 33.92410156 60.20578125 33.96148437 61 34 C61.10183594 33.25878906 61.20367187 32.51757812 61.30859375 31.75390625 C62.62351587 26.51650457 66.63793322 22.53666055 71.1015625 19.6328125 C78.39796237 15.88896688 85.51647646 14.81497956 93.5 17.0625 C99.99748231 19.46398742 105.0726206 23.81095475 108.4375 29.875 C111.58288261 37.13034921 111.7702116 44.59574781 109 52 C105.76691651 58.48736752 101.76986015 63.19867856 95 66 C86.50462101 68.61396277 79.25928443 68.32936478 71.3125 64.3125 C65.74064089 60.83980642 62.23115322 56.1068654 60 50 C58.13794922 49.99613281 58.13794922 49.99613281 56.23828125 49.9921875 C54.59631844 49.95465692 52.95439203 49.91550929 51.3125 49.875 C50.08756836 49.87886719 50.08756836 49.87886719 48.83789062 49.8828125 C44.68193771 49.74820674 42.6299451 49.54076612 39.40625 46.7734375 C38.55938578 45.54532881 37.76551519 44.28039699 37 43 C36.41178467 42.04399902 35.82356934 41.08799805 35.2175293 40.10302734 C33.51445912 37.26938975 31.85131999 34.42054335 30.21411133 31.54882812 C29.17971315 29.73635588 28.13447839 27.93045549 27.08789062 26.125 C22 17.26254618 22 17.26254618 22 15 C14.74 15 7.48 15 0 15 C0 10.05 0 5.1 0 0 Z " fill="#08524d" transform="translate(366,314)"/>
<path d="M0 0 C6.21479432 5.61457274 8.46965614 12.49827933 8.94140625 20.75390625 C8.46751483 28.09922326 5.41964046 34.4583524 0.08203125 39.515625 C-5.61746009 44.07742717 -11.39189224 46.30770999 -18.8203125 46.0625 C-26.46362102 45.00871052 -32.47688445 42.17432701 -37.71875 36.53515625 C-39.97627845 33.53389394 -41.05859375 31.55286458 -41.05859375 27.75390625 C-45.01352266 27.33175092 -48.27839807 27.45309265 -52.05859375 28.75390625 C-55.51891963 32.5085187 -57.67689662 36.90080101 -59.93359375 41.44140625 C-61.16856857 43.80620405 -62.42331613 46.15998649 -63.67578125 48.515625 C-64.25424805 49.61310059 -64.83271484 50.71057617 -65.42871094 51.84130859 C-67.91414683 56.28277806 -70.05576937 60.08629812 -75.05859375 61.75390625 C-77.12358267 61.83706377 -79.19117265 61.86126503 -81.2578125 61.8515625 C-83.07055664 61.84672852 -83.07055664 61.84672852 -84.91992188 61.84179688 C-86.81387695 61.82922852 -86.81387695 61.82922852 -88.74609375 61.81640625 C-90.65745117 61.80963867 -90.65745117 61.80963867 -92.60742188 61.80273438 C-95.75783245 61.79093508 -98.90821894 61.77299943 -102.05859375 61.75390625 C-102.05859375 56.80390625 -102.05859375 51.85390625 -102.05859375 46.75390625 C-94.79859375 46.75390625 -87.53859375 46.75390625 -80.05859375 46.75390625 C-79.39859375 45.10390625 -78.73859375 43.45390625 -78.05859375 41.75390625 C-75.86378145 37.51333952 -73.51303584 33.35925733 -71.18359375 29.19140625 C-70.55839844 28.05509766 -69.93320312 26.91878906 -69.2890625 25.74804688 C-68.67933594 24.65556641 -68.06960938 23.56308594 -67.44140625 22.4375 C-66.88855957 21.44290771 -66.33571289 20.44831543 -65.76611328 19.42358398 C-61.78663616 13.20173922 -61.78663616 13.20173922 -57.95214844 12.20800781 C-57.21899414 12.18706055 -56.48583984 12.16611328 -55.73046875 12.14453125 C-54.93125 12.11230469 -54.13203125 12.08007812 -53.30859375 12.046875 C-52.48359375 12.03269531 -51.65859375 12.01851562 -50.80859375 12.00390625 C-49.968125 11.97425781 -49.12765625 11.94460937 -48.26171875 11.9140625 C-46.19452225 11.84358989 -44.12655342 11.79645686 -42.05859375 11.75390625 C-41.8155249 11.2213623 -41.57245605 10.68881836 -41.32202148 10.14013672 C-38.12188984 3.39582279 -34.14795698 -1.05180128 -27.49609375 -4.62109375 C-17.47469625 -7.19068285 -8.43746976 -6.2639534 0 0 Z " fill="#08524d" transform="translate(468.05859375,136.24609375)"/>
<path d="M0 0 C6.09121014 3.70148164 11.26160617 9.09134267 13.19921875 16.046875 C14.67747033 23.46637974 15.09037054 29.84324963 11.13671875 36.50390625 C6.48467346 43.0311946 1.30255753 47.3978888 -6.5625 49.3125 C-13.8657173 50.30459008 -20.16934863 48.97032654 -26.5625 45.3125 C-31.33993172 41.60370432 -33.98298039 37.77954157 -36.5625 32.3125 C-37.70464966 32.29848145 -37.70464966 32.29848145 -38.86987305 32.28417969 C-42.3305662 32.23039063 -45.78992018 32.14675816 -49.25 32.0625 C-50.44818359 32.04832031 -51.64636719 32.03414063 -52.88085938 32.01953125 C-54.61625977 31.97119141 -54.61625977 31.97119141 -56.38671875 31.921875 C-57.98132935 31.8904541 -57.98132935 31.8904541 -59.6081543 31.85839844 C-63.35335902 31.16636656 -65.00851608 30.13397769 -67.5625 27.3125 C-68.13012695 24.28808594 -68.13012695 24.28808594 -68.05078125 20.796875 C-68.03466797 19.54648437 -68.01855469 18.29609375 -68.00195312 17.0078125 C-67.96005859 15.70585937 -67.91816406 14.40390625 -67.875 13.0625 C-67.85244141 11.74507813 -67.82988281 10.42765625 -67.80664062 9.0703125 C-67.74770787 5.81722419 -67.65802864 2.56471938 -67.5625 -0.6875 C-62.6125 -0.6875 -57.6625 -0.6875 -52.5625 -0.6875 C-52.5625 4.9225 -52.5625 10.5325 -52.5625 16.3125 C-44.47376182 16.64061485 -44.47376182 16.64061485 -36.5625 15.3125 C-34.23481471 12.98481471 -33.24415289 10.8950283 -31.921875 7.8984375 C-26.39338849 -2.61839604 -9.95073735 -4.72755338 0 0 Z " fill="#08524d" transform="translate(380.5625,355.6875)"/>
<path d="M0 0 C6.61993054 5.93358322 10.17853636 11.73747094 10.95703125 20.609375 C11.10014394 28.5716447 8.25726675 35.06400516 3 41 C-4.76372706 47.16401771 -12.24999827 47.8967916 -22 47 C-29.5141966 44.85880416 -34.08952961 40.64515746 -38 34 C-38.21398437 33.27425781 -38.42796875 32.54851562 -38.6484375 31.80078125 C-40.00443538 29.56182497 -40.00443538 29.56182497 -43.6953125 29.390625 C-45.17095592 29.32054946 -46.64796943 29.27854447 -48.125 29.25 C-50.72375 29.1675 -53.3225 29.085 -56 29 C-56 34.61 -56 40.22 -56 46 C-60.95 46 -65.9 46 -71 46 C-71.13465658 41.41569152 -71.23398429 36.83531751 -71.3125 32.25 C-71.35439453 30.94804687 -71.39628906 29.64609375 -71.43945312 28.3046875 C-71.45556641 27.05429688 -71.47167969 25.80390625 -71.48828125 24.515625 C-71.51446533 23.36352539 -71.54064941 22.21142578 -71.56762695 21.02441406 C-71 18 -71 18 -68.84448242 15.61328125 C-65.55937537 13.75009462 -63.74801645 13.56294827 -60 13.671875 C-58.865625 13.67574219 -57.73125 13.67960937 -56.5625 13.68359375 C-54.18715749 13.72787097 -51.81205496 13.78777457 -49.4375 13.86328125 C-43.2994461 14.10142018 -43.2994461 14.10142018 -38.19067383 11.28637695 C-36.86193779 9.21093926 -36.86193779 9.21093926 -35.96020508 7.04711914 C-33.71069169 2.25124581 -28.93233455 -0.81826728 -24.1875 -2.875 C-15.85466553 -5.55627814 -7.46566322 -4.57180679 0 0 Z " fill="#08524d" transform="translate(384,111)"/>
<path d="M0 0 C4.39620224 -0.0809117 8.79091597 -0.14046573 13.1875 -0.1875 C14.43337891 -0.21263672 15.67925781 -0.23777344 16.96289062 -0.26367188 C18.16494141 -0.27333984 19.36699219 -0.28300781 20.60546875 -0.29296875 C21.71043701 -0.3086792 22.81540527 -0.32438965 23.95385742 -0.34057617 C27.39891518 0.044601 29.23611125 0.94287312 32 3 C33.4375 5.375 33.4375 5.375 34 8 C33.125117 11.13499743 32.30655645 12.69344355 30 15 C27.01904297 15.22705078 27.01904297 15.22705078 23.2421875 15.1953125 C22.57913605 15.1924826 21.91608459 15.18965271 21.23294067 15.18673706 C19.11344417 15.17553435 16.99436896 15.15043051 14.875 15.125 C13.43880818 15.11497028 12.00260975 15.10584441 10.56640625 15.09765625 C7.04397762 15.07729539 3.52246083 15.0381494 0 15 C0 10.05 0 5.1 0 0 Z " fill="#08524d" transform="translate(366,281)"/>
<path d="M0 0 C4.2181424 -0.06889888 8.43433095 -0.12861776 12.65258789 -0.16479492 C14.08722552 -0.17987589 15.52181708 -0.2003438 16.95629883 -0.22631836 C19.01915859 -0.26273437 21.08140858 -0.27973243 23.14453125 -0.29296875 C25.00621948 -0.31653442 25.00621948 -0.31653442 26.90551758 -0.34057617 C30 0 30 0 31.8737793 1.36987305 C33.44683047 3.64675635 33.86807278 5.22952831 34 8 C32.786814 10.74563147 31.80469198 12.47016448 29.28027344 14.13232422 C26.3172181 15.25980802 23.87114741 15.2251995 20.703125 15.1953125 C18.89521484 15.18564453 18.89521484 15.18564453 17.05078125 15.17578125 C15.16939453 15.15064453 15.16939453 15.15064453 13.25 15.125 C11.98027344 15.11597656 10.71054687 15.10695312 9.40234375 15.09765625 C6.26814871 15.07409087 3.13405059 15.03822013 0 15 C0 10.05 0 5.1 0 0 Z " fill="#08524d" transform="translate(366,216)"/>
</svg>