<svg version="1.1" xmlns="http://www.w3.org/2000/svg" width="512px" height="512px" transform="rotate(0) scale(1, 1)">
<path d="M0 0 C24.27990484 -0.55702886 46.45901357 7.27142789 68.95703125 15.49609375 C71.25684745 16.32964293 73.55698695 17.16230053 75.85742188 17.99414062 C80.13392234 19.54130182 84.40958341 21.09072334 88.68394661 22.64377975 C100.50813813 26.93955158 112.34919039 31.18826105 124.18991947 35.43818569 C128.91516175 37.1343182 133.63955504 38.83279921 138.36352539 40.5324707 C150.19126239 44.78750099 162.0205858 49.03772382 173.86187744 53.25491333 C178.72756607 54.9878177 183.5922659 56.7234901 188.45703125 58.45898438 C190.71263339 59.26254264 192.96880059 60.06451687 195.22558594 60.86474609 C230.5677253 73.39669827 230.5677253 73.39669827 235.26953125 81.12109375 C235.86765625 82.04921875 236.46578125 82.97734375 237.08203125 83.93359375 C240.090172 92.00807681 239.74949116 99.25896211 236.26953125 107.12109375 C229.8539153 119.72800342 213.24529577 123.12625068 200.8237915 127.4382019 C196.84910521 128.81828603 192.88081348 130.21635458 188.91204834 131.61335754 C186.82921083 132.34643772 184.74607748 133.07867783 182.66265869 133.81010437 C171.71465301 137.65660494 160.80303818 141.60174448 149.89453125 145.55859375 C147.93712116 146.26781833 145.9796829 146.97696517 144.0222168 147.68603516 C140.08524386 149.11238987 136.1484938 150.53935736 132.21191406 151.96679688 C126.21874459 154.13980508 120.22477083 156.31058702 114.23046875 158.48046875 C113.23839417 158.83962372 112.24631958 159.19877869 111.22418213 159.56881714 C106.28298826 161.35728726 101.34123309 163.14418366 96.3984375 164.92822266 C94.46743771 165.62529724 92.53644805 166.32239991 90.60546875 167.01953125 C89.66024353 167.36074005 88.71501831 167.70194885 87.7411499 168.05349731 C82.14018041 170.07738867 76.54479219 172.11585433 70.95391846 174.16746521 C67.43180382 175.45867569 63.90703228 176.74252954 60.38183594 178.02529907 C58.76239206 178.61667506 57.14415714 179.21137573 55.52734375 179.80990601 C2.34550534 199.49005064 -40.60477675 183.26511881 -91.16601562 164.78808594 C-95.88844176 163.06233908 -100.61389496 161.34497893 -105.33984375 159.62890625 C-113.13810129 156.79675852 -120.93483153 153.96044632 -128.73046875 151.12109375 C-128.73046875 150.46109375 -128.73046875 149.80109375 -128.73046875 149.12109375 C-124.3980857 146.72353888 -120.06465175 144.32789272 -115.73046875 141.93359375 C-115.07487976 141.5713974 -114.41929077 141.20920105 -113.74383545 140.83602905 C-104.97109705 135.99118508 -96.17841973 131.18657421 -87.35546875 126.43359375 C-75.71971542 120.16168684 -64.21205247 113.67019688 -52.73046875 107.12109375 C-57.7860032 108.49879456 -62.68136769 110.14234288 -67.58203125 112 C-68.33828796 112.2841275 -69.09454468 112.568255 -69.87371826 112.86099243 C-72.36866087 113.79915977 -74.86207823 114.74130996 -77.35546875 115.68359375 C-79.11141223 116.3450168 -80.86743596 117.00622682 -82.62353516 117.66723633 C-87.33489626 119.4415061 -92.04487238 121.21942678 -96.75463867 122.9979248 C-100.81548727 124.5306128 -104.87737215 126.06054471 -108.9392395 127.5905304 C-113.00678077 129.12288776 -117.07387314 130.65643343 -121.14080811 132.19039917 C-123.10203536 132.9301242 -125.0633379 133.66964968 -127.02471924 134.40896606 C-129.78901444 135.45127669 -132.55278407 136.49496892 -135.31640625 137.5390625 C-136.52511383 137.99449936 -136.52511383 137.99449936 -137.75823975 138.45913696 C-157.3620869 145.75440862 -157.3620869 145.75440862 -169.73046875 162.12109375 C-171.27095296 166.19421258 -171.98446449 169.58100268 -172.00894165 173.92977905 C-172.02010513 175.06552368 -172.03126862 176.20126831 -172.04277039 177.37142944 C-172.04493057 178.60285675 -172.04709076 179.83428406 -172.04931641 181.10302734 C-172.06438484 183.06480927 -172.06438484 183.06480927 -172.07975769 185.06622314 C-172.10698811 188.64012168 -172.12218635 192.21398094 -172.13518572 195.78795576 C-172.15084682 199.52759762 -172.17762751 203.26715966 -172.20321655 207.00674438 C-172.24995169 214.08262474 -172.28672122 221.1585202 -172.31988943 228.23447573 C-172.35814808 236.29255206 -172.40754841 244.35054811 -172.45787358 252.4085567 C-172.56111509 268.97934468 -172.65040071 285.55017725 -172.73046875 302.12109375 C-171.80492187 302.40726562 -170.879375 302.6934375 -169.92578125 302.98828125 C-163.77951671 305.16727479 -160.56517092 308.62841411 -157.78320312 314.4140625 C-155.65600268 319.88400649 -154.40107091 325.62481621 -153.06567383 331.3293457 C-152.54437278 333.55260581 -152.00683066 335.77145858 -151.46679688 337.99023438 C-148.27725147 351.25122575 -145.27183006 364.08212489 -152.60546875 376.55859375 C-153.62628962 378.09349708 -154.66535625 379.61658758 -155.73046875 381.12109375 C-156.32859375 382.02859375 -156.92671875 382.93609375 -157.54296875 383.87109375 C-165.0329724 391.5750975 -174.74383771 395.98868719 -185.41796875 396.37109375 C-195.94524705 396.21490268 -204.28149662 392.17324908 -211.9296875 385.08203125 C-219.71610168 376.93580126 -222.91571244 367.73110866 -222.85432434 356.57980347 C-222.6578774 352.68005215 -221.84128742 349.00038418 -220.9375 345.2109375 C-220.74959396 344.39919571 -220.56168793 343.58745392 -220.36808777 342.75111389 C-219.97046365 341.04829012 -219.56767128 339.34666553 -219.15991211 337.64624023 C-218.54463729 335.0655921 -217.95610616 332.47979259 -217.36914062 329.89257812 C-216.97686805 328.22748503 -216.58303922 326.56275764 -216.1875 324.8984375 C-215.93091362 323.75591774 -215.93091362 323.75591774 -215.66914368 322.59031677 C-213.65134153 314.38558256 -209.73007653 307.9333241 -202.73046875 303.12109375 C-201.07550572 302.73381316 -199.40867109 302.39039987 -197.73046875 302.12109375 C-197.73323413 301.44855246 -197.73599951 300.77601116 -197.73884869 300.08308983 C-197.80531361 283.6631881 -197.85484858 267.2433294 -197.88590527 250.8233242 C-197.90132605 242.88249228 -197.92232311 234.94175056 -197.95678711 227.00097656 C-197.98683706 220.07388895 -198.00607848 213.14686671 -198.01273423 206.21971571 C-198.0166203 202.55718548 -198.02565108 198.89484217 -198.04765892 195.23237228 C-198.07211863 191.12797768 -198.07242884 187.023901 -198.07104492 182.91943359 C-198.08183075 181.72611923 -198.09261658 180.53280487 -198.10372925 179.30332947 C-198.04277231 162.47765027 -193.83700576 146.79785131 -182.015625 134.37890625 C-181.59152344 133.96382812 -181.16742188 133.54875 -180.73046875 133.12109375 C-183.42924977 130.42231273 -186.54001841 129.65913881 -190.08203125 128.4765625 C-191.58861655 127.95920238 -193.09512445 127.44161683 -194.6015625 126.92382812 C-196.96997328 126.1173371 -199.33937683 125.31401389 -201.71044922 124.51538086 C-224.51839451 116.80831359 -224.51839451 116.80831359 -230.73046875 106.12109375 C-233.48839511 98.97555726 -233.45008249 92.52665284 -230.82421875 85.390625 C-225.30188333 73.931779 -213.72914936 70.25236184 -202.46875 66.29296875 C-201.50146973 65.94695114 -200.53418945 65.60093353 -199.53759766 65.24443054 C-196.37471711 64.1142987 -193.20884793 62.99279465 -190.04296875 61.87109375 C-187.80402641 61.07240816 -185.56534238 60.27299813 -183.3269043 59.47290039 C-178.71741434 57.82560195 -174.10703665 56.18082438 -169.49609375 54.53759766 C-160.29535319 51.25524296 -151.10983882 47.9310446 -141.92553711 44.60302734 C-138.05992447 43.20240984 -134.19370633 41.80346765 -130.32751465 40.40444946 C-127.42010034 39.35233387 -124.5127747 38.29997359 -121.60546875 37.24755859 C-116.62038274 35.44309818 -111.63509986 33.6391826 -106.64967346 31.83566284 C-104.62338459 31.1026217 -102.59712919 30.36948804 -100.57090759 29.63626099 C-95.5957597 27.83611186 -90.61998684 26.03773044 -85.64282227 24.24316406 C-76.56280133 20.9675149 -67.4921376 17.67103298 -58.4453125 14.3046875 C-28.28934989 3.11631515 -28.28934989 3.11631515 -13.73046875 1.12109375 C-12.69148437 0.97671875 -11.6525 0.83234375 -10.58203125 0.68359375 C-7.05438978 0.2883398 -3.54421082 0.15718245 0 0 Z " fill="#08524d" transform="translate(244.73046875,37.87890625)"/>
<path d="M0 0 C20.15641861 18.58411485 30.48792486 44.60828746 32.0390625 71.60546875 C32.76053086 97.47994759 24.05893662 123.31666395 6.875 142.75 C6.39804687 143.35714844 5.92109375 143.96429688 5.4296875 144.58984375 C-9.51121739 163.41538392 -34.89944227 174.97370987 -58.3125 178 C-85.86895913 181.1350488 -113.45466417 174.45865874 -135.328125 157.078125 C-136.25109375 156.30984375 -137.1740625 155.5415625 -138.125 154.75 C-139.50945312 153.62851562 -139.50945312 153.62851562 -140.921875 152.484375 C-159.93907241 136.26066421 -171.89696447 112.08041174 -174.84765625 87.37890625 C-177.14656603 57.29880505 -169.15534902 30.55067019 -150.04296875 7.20703125 C-133.11869158 -12.4617233 -108.8030728 -25.83007341 -82.74609375 -28.125 C-50.99986785 -29.63897799 -23.87557773 -21.25948798 0 0 Z M-64.75 62.25 C-65.87734848 63.41439749 -67.00227912 64.5811399 -68.125 65.75 C-70.85448541 68.49341136 -73.59976176 71.22042438 -76.3515625 73.94140625 C-77.48440665 75.06507226 -78.61721871 76.18877062 -79.75 77.3125 C-80.60851562 78.15844727 -80.60851562 78.15844727 -81.484375 79.02148438 C-84.27227006 81.79317074 -86.88425269 84.50012181 -89.125 87.75 C-93.26677661 87.17530372 -95.77727446 84.92264089 -99 82.375 C-99.55647217 81.93816895 -100.11294434 81.50133789 -100.6862793 81.05126953 C-101.87657872 80.11578591 -103.06458029 79.17737252 -104.25048828 78.23632812 C-106.19144379 76.69731573 -108.13964617 75.16790544 -110.08984375 73.640625 C-113.43962995 71.01638788 -116.78366877 68.38499285 -120.125 65.75 C-123.4076932 67.24076434 -126.05577441 69.13620321 -128.875 71.375 C-129.67421875 72.00664062 -130.4734375 72.63828125 -131.296875 73.2890625 C-131.90015625 73.77117187 -132.5034375 74.25328125 -133.125 74.75 C-131.5087447 78.83663421 -128.57304688 81.53950866 -125.48828125 84.546875 C-124.93061569 85.09933899 -124.37295013 85.65180298 -123.79838562 86.2210083 C-122.01612195 87.98550514 -120.22733665 89.74318795 -118.4375 91.5 C-104.8837929 104.84062763 -104.8837929 104.84062763 -99.70629883 110.93066406 C-96.73106472 114.35376805 -93.51657337 117.5427385 -90.3125 120.75 C-89.31186523 121.76900391 -89.31186523 121.76900391 -88.29101562 122.80859375 C-87.65228516 123.44925781 -87.01355469 124.08992188 -86.35546875 124.75 C-85.78207764 125.3275 -85.20868652 125.905 -84.61791992 126.5 C-83.19394512 127.96399031 -83.19394512 127.96399031 -81.125 127.75 C-80.60292969 126.58726562 -80.08085937 125.42453125 -79.54296875 124.2265625 C-62.97337234 87.93635481 -37.45000095 55.65845682 -9.125 27.75 C-10.115 25.77 -11.105 23.79 -12.125 21.75 C-26.91696715 21.75 -54.66622716 52.20392351 -64.75 62.25 Z " fill="#08524d" transform="translate(468.125,295.25)"/>
<path d="M0 0 C13.75615107 4.48920031 27.45189212 9.08777346 41.03515625 14.078125 C42.19018646 14.50242798 43.34521667 14.92673096 44.5352478 15.3638916 C49.23452905 17.09429604 53.93163866 18.83046818 58.62670898 20.57226562 C114.04672197 41.10242067 158.38255139 39.45560145 213.625 19.25 C215.8324743 18.44880822 218.04015832 17.64819403 220.24804688 16.84814453 C229.5705933 13.46514987 238.88301983 10.05505914 248.1796875 6.6015625 C248.83160065 6.35942017 249.48351379 6.11727783 250.15518188 5.86779785 C253.02753973 4.79941828 255.89737247 3.72484849 258.76416016 2.64160156 C259.7185498 2.28291992 260.67293945 1.92423828 261.65625 1.5546875 C262.85991211 1.09811768 262.85991211 1.09811768 264.08789062 0.63232422 C266 0 266 0 268 0 C270.52928334 7.58785001 270.1247312 16.07761957 270 24 C269.45545166 24.11899658 268.91090332 24.23799316 268.34985352 24.3605957 C231.68771031 32.43151978 200.62087265 48.00040813 179.49829102 80.22192383 C171.7626959 92.48149548 165.53956584 106.68117135 163 121 C123.01971808 124.7502442 56.81802232 125.40922497 22.9375 99.66796875 C22.298125 99.11753906 21.65875 98.56710937 21 98 C20.2575 97.37738281 19.515 96.75476563 18.75 96.11328125 C5.6911928 84.17947265 -1.67659054 65.42799785 -3 48 C-4.62497751 9.24995501 -4.62497751 9.24995501 0 0 Z " fill="#08524d" transform="translate(114,224)"/>
</svg>