<svg version="1.1" xmlns="http://www.w3.org/2000/svg" width="512px" height="512px" transform="rotate(0) scale(1, 1)">
<path d="M0 0 C24.50368567 22.06284591 39.7521943 54.09444932 43.81982422 86.59472656 C44.05819674 91.71684637 44.06551413 96.84262578 44.06982422 101.96972656 C44.07049896 102.68781494 44.07117371 103.40590332 44.0718689 104.14575195 C44.05576839 114.9207557 43.60168653 125.12643344 40.81982422 135.59472656 C40.64821777 136.24715332 40.47661133 136.89958008 40.29980469 137.57177734 C34.85299829 157.77704399 25.59206408 176.75933015 11.81982422 192.59472656 C11.15724609 193.366875 10.49466797 194.13902344 9.81201172 194.93457031 C6.47917881 198.72858859 3.06505971 202.38760553 -0.58251953 205.87988281 C-16.51742915 221.17216938 -24.08192631 237.51613141 -26.18017578 259.59472656 C-29.81017578 259.59472656 -33.44017578 259.59472656 -37.18017578 259.59472656 C-37.18017578 265.20472656 -37.18017578 270.81472656 -37.18017578 276.59472656 C-75.79017578 276.59472656 -114.40017578 276.59472656 -154.18017578 276.59472656 C-154.18017578 270.98472656 -154.18017578 265.37472656 -154.18017578 259.59472656 C-157.81017578 259.59472656 -161.44017578 259.59472656 -165.18017578 259.59472656 C-165.29232422 258.03238281 -165.29232422 258.03238281 -165.40673828 256.43847656 C-167.35515073 233.69183184 -176.45954318 218.35692809 -193.20703125 203.2043457 C-218.12532472 180.45939925 -233.71419078 145.5338286 -235.30615234 111.93603516 C-236.43356835 70.98514606 -223.62105775 35.02627845 -196.18017578 4.59472656 C-194.34189035 2.80521197 -192.43482778 1.18084523 -190.47314453 -0.47167969 C-188.84511999 -1.84454536 -187.24612428 -3.25216617 -185.66845703 -4.68261719 C-132.09419374 -51.98039775 -51.82792905 -45.26074317 0 0 Z M-153.18017578 92.59472656 C-157.68807988 98.83543773 -159.00753329 105.03031503 -158.18017578 112.59472656 C-156.105699 120.79265889 -152.12646357 126.01769011 -145.35986328 130.91113281 C-137.22338468 135.48989626 -130.01456662 133.59472656 -120.18017578 133.59472656 C-120.18017578 174.84472656 -120.18017578 216.09472656 -120.18017578 258.59472656 C-115.56017578 258.59472656 -110.94017578 258.59472656 -106.18017578 258.59472656 C-106.18017578 217.34472656 -106.18017578 176.09472656 -106.18017578 133.59472656 C-98.92017578 133.59472656 -91.66017578 133.59472656 -84.18017578 133.59472656 C-84.18017578 174.84472656 -84.18017578 216.09472656 -84.18017578 258.59472656 C-79.56017578 258.59472656 -74.94017578 258.59472656 -70.18017578 258.59472656 C-70.18017578 217.34472656 -70.18017578 176.09472656 -70.18017578 133.59472656 C-64.57017578 133.59472656 -58.96017578 133.59472656 -53.18017578 133.59472656 C-49.43070722 132.37501992 -47.27245636 131.64496948 -44.18017578 129.59472656 C-43.10767578 128.89347656 -42.03517578 128.19222656 -40.93017578 127.46972656 C-35.40805731 121.69660271 -32.88748887 115.98968795 -32.61767578 107.96972656 C-32.85153276 102.29034282 -33.98981421 98.26871781 -37.18017578 93.59472656 C-37.71642578 92.70785156 -38.25267578 91.82097656 -38.80517578 90.90722656 C-44.03520684 85.8148279 -51.13476198 82.91201392 -58.36767578 82.34472656 C-67.05302281 82.91425752 -73.41145769 86.01682177 -79.18017578 92.59472656 C-83.34798243 99.05121317 -84.3354757 104.73349108 -84.24267578 112.34472656 C-84.22205078 114.73722656 -84.20142578 117.12972656 -84.18017578 119.59472656 C-91.77017578 119.59472656 -99.36017578 119.59472656 -107.18017578 119.59472656 C-107.09767578 116.97535156 -107.01517578 114.35597656 -106.93017578 111.65722656 C-106.84461325 102.71382467 -108.25532187 96.64753381 -114.24267578 89.78222656 C-119.43384005 84.98179509 -125.89068765 82.99173375 -132.80517578 82.15722656 C-141.35681504 83.26577239 -147.33539926 86.15489361 -153.18017578 92.59472656 Z " fill="#08524d" transform="translate(354.18017578125,126.4052734375)"/>
<path d="M0 0 C38.61 0 77.22 0 117 0 C117 10.97163121 117 10.97163121 112.34765625 15.66796875 C107.70024494 19.80445958 104.63386715 21.13686903 98.3125 21.0625 C97.31863281 21.05347656 96.32476562 21.04445313 95.30078125 21.03515625 C94.16189453 21.01775391 94.16189453 21.01775391 93 21 C92.690625 22.7015625 92.690625 22.7015625 92.375 24.4375 C89.94730047 33.97970789 83.07702274 41.244911 74.86328125 46.3203125 C66.61202839 50.32686313 56.02292318 50.48900045 47.1875 48.3046875 C44.94469429 47.37797264 43.02816636 46.32865592 41 45 C40.30648437 44.57589844 39.61296875 44.15179688 38.8984375 43.71484375 C30.98247764 38.39306549 26.91024467 30.89241428 24 22 C23.29875 21.98582031 22.5975 21.97164063 21.875 21.95703125 C15.08326906 21.61559912 10.1721428 20.57441875 5 16 C0.5499409 10.29479602 0 7.44127283 0 0 Z " fill="#08524d" transform="translate(200,448)"/>
<path d="M0 0 C38.61 0 77.22 0 117 0 C117 5.61 117 11.22 117 17 C78.39 17 39.78 17 0 17 C0 11.39 0 5.78 0 0 Z " fill="#08524d" transform="translate(200,417)"/>
<path d="M0 0 C3.58274531 0.52112659 5.08008635 0.77990732 7.4375 3.5 C9.40545406 8.54288229 7.68236629 11.97210365 5.72998047 16.68041992 C3.47436944 21.6010946 0.76636292 26.22751029 -2 30.875 C-2.84014648 32.33099609 -2.84014648 32.33099609 -3.69726562 33.81640625 C-9.07879764 42.92168211 -9.07879764 42.92168211 -13.5625 45.5 C-17.0176796 45.44042794 -19.4447089 45.3604297 -22.23364258 43.21362305 C-24.42519729 40.38751198 -24.22416045 37.93848481 -24.11474609 34.45556641 C-23.10303488 29.04098816 -20.27476567 24.56757324 -17.4284668 19.91186523 C-16.37358949 18.18519122 -15.35177664 16.44210041 -14.33398438 14.69335938 C-6.1129486 0.8579577 -6.1129486 0.8579577 0 0 Z " fill="#08524d" transform="translate(358.5625,40.5)"/>
<path d="M0 0 C5.50612279 4.32090653 8.37138445 10.51988401 11.6875 16.5625 C12.26822266 17.60341797 12.84894531 18.64433594 13.44726562 19.71679688 C20.89248205 33.10097207 20.89248205 33.10097207 20 40 C18.875 42.4375 18.875 42.4375 17 44 C13.58068904 45.11499271 11.83044955 45.38490678 8.5390625 43.859375 C4.07893399 40.59318858 1.83373779 35.65790447 -0.86914062 30.94140625 C-2.04876132 28.91628886 -3.27796863 26.92760595 -4.515625 24.9375 C-12.06227731 12.56233757 -12.06227731 12.56233757 -11.70703125 4.91796875 C-9.74739289 -0.39795631 -5.00724806 -0.70277166 0 0 Z " fill="#08524d" transform="translate(157,41)"/>
<path d="M0 0 C2.64764845 1.67684402 2.95477045 2.85138861 3.875 5.875 C4.02957514 9.73937842 3.28506453 10.91441073 1 14 C-2.72367808 16.72377434 -6.73597153 18.94668896 -10.74975586 21.21313477 C-12.6765133 22.30626677 -14.5831079 23.42969107 -16.49023438 24.55664062 C-17.72546507 25.26493813 -18.96176179 25.97138045 -20.19921875 26.67578125 C-21.31127686 27.31427002 -22.42333496 27.95275879 -23.5690918 28.6105957 C-27.80014093 30.3240306 -30.47215998 30.33587188 -35 30 C-36.9375 28.9375 -36.9375 28.9375 -38 27 C-38.9375 23.625 -38.9375 23.625 -39 20 C-36.29544169 15.83926642 -33.27487419 13.68317582 -28.9921875 11.265625 C-28.42549347 10.94213074 -27.85879944 10.61863647 -27.27493286 10.28533936 C-25.48024369 9.26387599 -23.67790905 8.25686946 -21.875 7.25 C-20.65702505 6.55952258 -19.4395715 5.86812459 -18.22265625 5.17578125 C-6.63977716 -1.39784782 -6.63977716 -1.39784782 0 0 Z " fill="#08524d" transform="translate(436,120)"/>
<path d="M0 0 C3.08032227 1.28173828 3.08032227 1.28173828 6.31640625 3.0703125 C6.89535141 3.38902313 7.47429657 3.70773376 8.07078552 4.03610229 C9.28854381 4.71086101 10.5027915 5.39199055 11.71362305 6.07910156 C13.55117252 7.11859212 15.40197324 8.13062252 17.25585938 9.140625 C28.62851397 15.43903127 28.62851397 15.43903127 32 21 C32 24.5469368 31.64099902 26.83111944 29.9375 29.9375 C26.79017187 31.66345414 23.47558288 31.39234604 20 31 C16.5690918 29.6105957 16.5690918 29.6105957 13.19921875 27.67578125 C12.59616409 27.3325029 11.99310944 26.98922455 11.3717804 26.63554382 C10.10919312 25.9115597 8.85140469 25.17914661 7.59838867 24.4387207 C5.68656161 23.31194694 3.75851824 22.21808258 1.82617188 21.12695312 C-8.70125423 15.04594118 -8.70125423 15.04594118 -11 10 C-10.92657532 6.4021905 -10.39744561 4.55936789 -8.3125 1.625 C-5.26203901 -0.51856718 -3.69038875 -0.33319667 0 0 Z " fill="#08524d" transform="translate(83,119)"/>
<path d="M0 0 C3.02612305 1.33520508 3.02612305 1.33520508 6.01171875 3.01953125 C7.09904297 3.62990234 8.18636719 4.24027344 9.30664062 4.86914062 C10.98016602 5.83110352 10.98016602 5.83110352 12.6875 6.8125 C13.81478516 7.44220703 14.94207031 8.07191406 16.10351562 8.72070312 C27.62675449 15.25350898 27.62675449 15.25350898 30 20 C30.38080215 23.50337981 30.40245078 25.36278626 28.5 28.375 C24.97720199 30.66481871 22.02554882 30.74129207 18 30 C13.92118102 28.2530896 10.1752668 26.03113701 6.375 23.75 C5.364375 23.16347656 4.35375 22.57695312 3.3125 21.97265625 C-10.56617093 13.86765813 -10.56617093 13.86765813 -12 11 C-12.69109948 3.85863874 -12.69109948 3.85863874 -9.9375 0.4375 C-6.09387227 -1.44342421 -4.15108484 -0.87534283 0 0 Z " fill="#08524d" transform="translate(407,309)"/>
<path d="M0 0 C1.9375 1.0625 1.9375 1.0625 3 3 C3.61057692 8.49519231 3.61057692 8.49519231 3 11 C-1.18154529 15.75539891 -6.55138819 18.56215659 -11.97070312 21.71044922 C-13.74095885 22.74471773 -15.49504062 23.8033212 -17.25 24.86328125 C-28.12941944 31.20960925 -28.12941944 31.20960925 -35 30 C-37.99097304 27.45767292 -38.84202557 25.8425303 -39.5625 22 C-38.80300227 17.94934544 -37.04761043 16.72796388 -34 14 C-30.27520838 11.51205484 -26.3832761 9.33691983 -22.47167969 7.15917969 C-20.62566056 6.12536993 -18.79771283 5.0636243 -16.96875 4 C-15.78485048 3.33416288 -14.59998464 2.67004042 -13.4140625 2.0078125 C-12.3513916 1.40598145 -11.2887207 0.80415039 -10.19384766 0.18408203 C-6.32803895 -1.24912178 -3.97501456 -0.93122024 0 0 Z " fill="#08524d" transform="translate(114,309)"/>
<path d="M0 0 C0.85287094 -0.00004028 1.70574188 -0.00008057 2.5844574 -0.00012207 C4.38409816 0.00523103 6.18373849 0.02280502 7.9831543 0.05175781 C10.74014529 0.09365959 13.49469704 0.09282265 16.25195312 0.0859375 C18.00131908 0.09642863 19.75067244 0.10936633 21.5 0.125 C22.32504532 0.12520142 23.15009064 0.12540283 24.00013733 0.12561035 C29.7368727 0.24451812 29.7368727 0.24451812 31.86607361 1.90905762 C34.04702603 4.69780735 34.12367371 7.11838757 34.18359375 10.59375 C32.41718203 13.39564446 31.15309553 15.10899911 28.18359375 16.59375 C25.61607572 16.7289807 23.07693698 16.80637062 20.5078125 16.83203125 C19.74563919 16.840103 18.98346588 16.84817474 18.19819641 16.85649109 C16.58340732 16.87032975 14.96858901 16.88105289 13.35375977 16.88891602 C10.89087042 16.90611192 8.42932969 16.94999507 5.96679688 16.99414062 C4.39714528 17.00426935 2.82748228 17.01278489 1.2578125 17.01953125 C0.15755989 17.04579338 0.15755989 17.04579338 -0.96492004 17.07258606 C-4.57429086 17.05736836 -6.65703429 16.69202165 -9.75463867 14.78198242 C-12.61470973 11.74648013 -12.88888073 9.72479545 -12.81640625 5.59375 C-9.62664793 -0.30229126 -6.09081537 -0.1213341 0 0 Z " fill="#08524d" transform="translate(431.81640625,221.40625)"/>
<path d="M0 0 C0.85191422 -0.00761353 1.70382843 -0.01522705 2.58155823 -0.02307129 C4.38287425 -0.03387397 6.18425291 -0.0367247 7.9855957 -0.03222656 C10.7408098 -0.03125462 13.49323535 -0.07286229 16.24804688 -0.1171875 C17.99869211 -0.12239486 19.74934702 -0.12508269 21.5 -0.125 C22.32302109 -0.14139526 23.14604218 -0.15779053 23.9940033 -0.17468262 C28.11045822 -0.12498861 29.72097296 -0.0697288 32.87133789 2.77929688 C34.84286047 6.4485472 34.4155795 8.51172631 33.31640625 12.46875 C31.4210675 15.05330285 30.42814108 15.43150506 27.31640625 16.46875 C24.86164564 16.58895641 22.43604781 16.65676507 19.98046875 16.671875 C18.90591934 16.68042511 18.90591934 16.68042511 17.80966187 16.68914795 C16.29499788 16.69858536 14.78031348 16.70512693 13.265625 16.70898438 C10.95666422 16.71868589 8.64859556 16.74971775 6.33984375 16.78125 C4.86589068 16.78778105 3.39193127 16.79303112 1.91796875 16.796875 C1.23135162 16.8092218 0.5447345 16.8215686 -0.16268921 16.83428955 C-4.51806332 16.81419975 -7.23047489 16.14623076 -10.68359375 13.46875 C-12.68359375 10.46875 -12.68359375 10.46875 -12.49609375 6.96875 C-10.81310997 -0.2810263 -6.68896972 0.00163296 0 0 Z " fill="#08524d" transform="translate(58.68359375,221.53125)"/>
<path d="M0 0 C0.66 -0.0103125 1.32 -0.020625 2 -0.03125 C5.02360313 0.77189458 6.09299125 2.0183297 8 4.5 C8.4100178 7.39864759 8.5850002 9.91071182 8.56640625 12.80859375 C8.57570412 14.01419701 8.57570412 14.01419701 8.58518982 15.24415588 C8.59228199 16.94115998 8.5891244 18.63823374 8.57641602 20.33520508 C8.56256176 22.92595118 8.59660937 25.51307524 8.63476562 28.10351562 C8.63571701 29.75520921 8.63385696 31.40690731 8.62890625 33.05859375 C8.64216446 33.82956894 8.65542267 34.60054413 8.66908264 35.3948822 C8.599745 39.41955785 8.16616854 41.28884365 5.64819336 44.48852539 C3 46.5 3 46.5 0 47.125 C-4.10968125 46.26881641 -5.41463912 44.78531117 -8 41.5 C-8.48706378 38.48962552 -8.68051408 36.05962906 -8.62890625 33.05859375 C-8.63131821 32.25390152 -8.63373016 31.44920929 -8.63621521 30.62013245 C-8.63523872 28.92484593 -8.62189208 27.22952675 -8.59692383 25.53442383 C-8.56255659 22.94176941 -8.57628638 20.35251493 -8.59570312 17.75976562 C-8.58880571 16.10936052 -8.57913426 14.45896419 -8.56640625 12.80859375 C-8.57136612 12.03559433 -8.57632599 11.26259491 -8.58143616 10.46617126 C-8.5033674 6.89543781 -8.29562563 4.88471001 -6.08959961 2.01391602 C-3.82319745 0.37190646 -2.76611762 -0.04322059 0 0 Z " fill="#08524d" transform="translate(256,14.5)"/>
<path d="M0 0 C3.26421243 2.66466321 4.59495738 4.12542259 5.47265625 8.1875 C5.74775714 12.36339047 5.31363606 15.17941458 2.6875 18.5 C-1.53402885 22.42700358 -5.22007278 22.12886466 -10.6875 22.0625 C-11.38939453 22.05798828 -12.09128906 22.05347656 -12.81445312 22.04882812 C-14.54300538 22.03706927 -16.27151365 22.01913454 -18 22 C-18.08165496 19.79229195 -18.13948488 17.58369575 -18.1875 15.375 C-18.23970703 13.53035156 -18.23970703 13.53035156 -18.29296875 11.6484375 C-17.97454042 7.6829434 -17.08744255 5.36063446 -15 2 C-10.2249434 -1.52444654 -5.53689989 -1.80152809 0 0 Z " fill="#08524d" transform="translate(302,224)"/>
<path d="M0 0 C2.67926055 2.24310185 3.54448122 3.06018014 4.6875 6.25 C4.82708857 8.87426505 4.87681369 11.38292747 4.8125 14 C4.80347656 14.69738281 4.79445312 15.39476562 4.78515625 16.11328125 C4.76169888 17.82566958 4.72583104 19.53788004 4.6875 21.25 C2.31124823 21.35883596 -0.05993976 21.43766696 -2.4375 21.5 C-3.10265625 21.53351563 -3.7678125 21.56703125 -4.453125 21.6015625 C-9.59067675 21.70229881 -12.35589956 20.44984102 -16.3125 17.25 C-18.90286348 13.83542996 -18.74358741 10.41717829 -18.3125 6.25 C-16.6843054 3.16806022 -15.28240938 0.98579333 -12.5 -1.125 C-7.73869727 -2.48537221 -4.38912283 -2.31878187 0 0 Z " fill="#08524d" transform="translate(228.3125,224.75)"/>
</svg>